STARTFONT 2.1
COMMENT
COMMENT Converted from OpenType font "HelvXBold.otf" by "otf2bdf 3.0".
COMMENT
FONT -FreeType-Helvetica Now Display XBold-Medium-R-Normal--98-840-84-84-P-530-ISO10646-1
SIZE 84 84 84
FONTBOUNDINGBOX 162 136 -36 -33
STARTPROPERTIES 19
FOUNDRY "FreeType"
FAMILY_NAME "Helvetica Now Display XBold"
WEIGHT_NAME "Medium"
SLANT "R"
SETWIDTH_NAME "Normal"
ADD_STYLE_NAME ""
PIXEL_SIZE 98
POINT_SIZE 840
RESOLUTION_X 84
RESOLUTION_Y 84
SPACING "P"
AVERAGE_WIDTH 530
CHARSET_REGISTRY "ISO10646"
CHARSET_ENCODING "1"
FONT_ASCENT 108
FONT_DESCENT 35
COPYRIGHT "Copyright © 2019 Monotype Imaging Inc. All rights reserved."
_OTF_FONTFILE "HelvXBold.otf"
_OTF_PSNAME "HelveticaNowDisplay-XBd"
ENDPROPERTIES
CHARS 513
STARTCHAR 0000
ENCODING 0
SWIDTH 0 0
DWIDTH 0 0
BBX 0 0 0 0
BITMAP
ENDCHAR
STARTCHAR 000D
ENCODING 13
SWIDTH 234 0
DWIDTH 23 0
BBX 0 0 0 0
BITMAP
ENDCHAR
STARTCHAR 0020
ENCODING 32
SWIDTH 234 0
DWIDTH 23 0
BBX 0 0 0 0
BITMAP
ENDCHAR
STARTCHAR 0021
ENCODING 33
SWIDTH 244 0
DWIDTH 24 0
BBX 18 70 3 0
BITMAP
7FFF80
7FFF80
7FFF80
7FFF80
7FFF80
7FFF80
7FFF80
7FFF80
7FFF80
7FFF80
7FFF80
7FFF80
7FFF80
7FFF80
7FFF80
7FFF80
7FFF80
7FFF80
7FFF80
7FFF80
7FFF80
7FFF80
7FFF80
3FFF00
3FFF00
3FFF00
3FFF00
3FFF00
3FFF00
3FFF00
1FFE00
1FFE00
1FFE00
1FFE00
1FFE00
1FFE00
1FFE00
1FFC00
0FFC00
0FFC00
0FFC00
0FFC00
0FFC00
0FFC00
0FF800
07F800
07F800
000000
000000
000000
000000
000000
000000
FFFFC0
FFFFC0
FFFFC0
FFFFC0
FFFFC0
FFFFC0
FFFFC0
FFFFC0
FFFFC0
FFFFC0
FFFFC0
FFFFC0
FFFFC0
FFFFC0
FFFFC0
FFFFC0
FFFFC0
ENDCHAR
STARTCHAR 0022
ENCODING 34
SWIDTH 510 0
DWIDTH 50 0
BBX 40 33 5 37
BITMAP
FFFF81FFFF
FFFF81FFFE
FFFF81FFFE
7FFF81FFFE
7FFF01FFFE
7FFF01FFFE
7FFF00FFFE
7FFF00FFFE
7FFF00FFFE
7FFF00FFFE
7FFF00FFFE
7FFF00FFFE
7FFF00FFFE
7FFF00FFFE
7FFF00FFFC
3FFF00FFFC
3FFF00FFFC
3FFE00FFFC
3FFE00FFFC
3FFE007FFC
3FFE007FFC
3FFE007FFC
3FFE007FFC
3FFE007FFC
3FFE007FFC
3FFE007FFC
3FFE007FF8
3FFE007FF8
1FFE007FF8
1FFE007FF8
1FFC007FF8
1FFC003FF8
1FFC003FF8
ENDCHAR
STARTCHAR 0023
ENCODING 35
SWIDTH 714 0
DWIDTH 70 0
BBX 65 70 2 0
BITMAP
00000FFF8003FFF000
00001FFF8003FFF000
00001FFF8003FFE000
00001FFF8003FFE000
00001FFF8007FFE000
00001FFF0007FFE000
00003FFF0007FFE000
00003FFF0007FFC000
00003FFF0007FFC000
00003FFF000FFFC000
00003FFE000FFFC000
00007FFE000FFFC000
00007FFE000FFF8000
00007FFE000FFF8000
00007FFE001FFF8000
00007FFC001FFF8000
0000FFFC001FFF8000
00FFFFFFFFFFFFFF80
01FFFFFFFFFFFFFF80
01FFFFFFFFFFFFFF80
01FFFFFFFFFFFFFF80
01FFFFFFFFFFFFFF00
01FFFFFFFFFFFFFF00
03FFFFFFFFFFFFFF00
03FFFFFFFFFFFFFF00
03FFFFFFFFFFFFFF00
03FFFFFFFFFFFFFE00
03FFFFFFFFFFFFFE00
07FFFFFFFFFFFFFE00
0003FFE000FFFC0000
0003FFE000FFFC0000
0007FFE000FFFC0000
0007FFE000FFF80000
0007FFE001FFF80000
0007FFC001FFF80000
0007FFC001FFF80000
000FFFC001FFF80000
000FFFC001FFF00000
000FFFC003FFF00000
000FFF8003FFF00000
000FFF8003FFF00000
1FFFFFFFFFFFFFF000
3FFFFFFFFFFFFFF000
3FFFFFFFFFFFFFF000
3FFFFFFFFFFFFFF000
3FFFFFFFFFFFFFE000
3FFFFFFFFFFFFFE000
7FFFFFFFFFFFFFE000
7FFFFFFFFFFFFFE000
7FFFFFFFFFFFFFE000
7FFFFFFFFFFFFFC000
7FFFFFFFFFFFFFC000
FFFFFFFFFFFFFFC000
007FFE001FFF800000
007FFC001FFF800000
00FFFC001FFF800000
00FFFC001FFF000000
00FFFC003FFF000000
00FFFC003FFF000000
00FFF8003FFF000000
01FFF8003FFF000000
01FFF8003FFE000000
01FFF8007FFE000000
01FFF8007FFE000000
01FFF0007FFE000000
03FFF0007FFE000000
03FFF0007FFC000000
03FFF000FFFC000000
03FFF000FFFC000000
03FFE000FFFC000000
ENDCHAR
STARTCHAR 0024
ENCODING 36
SWIDTH 653 0
DWIDTH 64 0
BBX 60 92 2 -11
BITMAP
0000003FC0000000
0000003FC0000000
0000003FC0000000
0000003FC0000000
0000003FC0000000
0000003FC0000000
0000003FC0000000
0000003FC0000000
0000003FC0000000
0000003FC0000000
000007FFF0000000
00007FFFFF800000
0003FFFFFFF00000
000FFFFFFFFC0000
003FFFFFFFFF0000
007FFFFFFFFF8000
01FFFFFFFFFFE000
03FFFFFFFFFFF000
07FFFFFFFFFFF800
07FFFFFFFFFFF800
0FFFFFFFFFFFFC00
1FFFFFFFFFFFFE00
1FFFFFFFFFFFFE00
1FFFFF3FFFFFFF00
3FFFF83FC7FFFF00
3FFFF03FC1FFFF00
3FFFE03FC0FFFF80
3FFFE03FC07FFF80
7FFFC03FC07FFF80
7FFFC03FC07FFF80
7FFFC03FC03FFFC0
7FFFC03FC03FFFC0
7FFFE03FC03FFFC0
7FFFE03FC0000000
3FFFF03FC0000000
3FFFF83FC0000000
3FFFFE3FC0000000
3FFFFFFFC0000000
1FFFFFFFC0000000
1FFFFFFFF8000000
0FFFFFFFFF800000
0FFFFFFFFFF80000
07FFFFFFFFFE0000
03FFFFFFFFFFC000
01FFFFFFFFFFE000
00FFFFFFFFFFF800
007FFFFFFFFFFC00
001FFFFFFFFFFE00
0007FFFFFFFFFF00
0001FFFFFFFFFF80
00003FFFFFFFFFC0
000003FFFFFFFFC0
0000003FFFFFFFE0
0000003FFFFFFFE0
0000003FCFFFFFE0
0000003FC1FFFFF0
0000003FC07FFFF0
0000003FC03FFFF0
FFFF003FC03FFFF0
FFFF003FC01FFFF0
FFFF003FC01FFFF0
FFFF003FC01FFFF0
FFFF803FC01FFFF0
FFFF803FC01FFFF0
7FFFC03FC03FFFF0
7FFFE03FC03FFFE0
7FFFF03FC07FFFE0
3FFFF83FC1FFFFE0
3FFFFF3FC7FFFFC0
1FFFFFFFFFFFFFC0
1FFFFFFFFFFFFFC0
0FFFFFFFFFFFFF80
07FFFFFFFFFFFF00
03FFFFFFFFFFFE00
01FFFFFFFFFFFC00
00FFFFFFFFFFF800
007FFFFFFFFFF000
001FFFFFFFFFE000
000FFFFFFFFF8000
0001FFFFFFFE0000
00003FFFFFF00000
000003FFFE000000
0000003FC0000000
0000003FC0000000
0000003FC0000000
0000003FC0000000
0000003FC0000000
0000003FC0000000
0000003FC0000000
0000003FC0000000
0000003FC0000000
0000003FC0000000
ENDCHAR
STARTCHAR 0025
ENCODING 37
SWIDTH 908 0
DWIDTH 89 0
BBX 85 72 2 -1
BITMAP
0007FC0000000000000000
007FFF80000000FFC00000
00FFFFE0000000FF800000
03FFFFF0000001FF800000
07FFFFFC000003FF000000
0FFFFFFE000003FF000000
1FFFFFFE000007FE000000
1FFFFFFF000007FE000000
3FFFFFFF00000FFC000000
3FFE0FFF80000FFC000000
7FF807FF80001FF8000000
7FF803FFC0001FF0000000
7FF001FFC0003FF0000000
7FF001FFC0003FE0000000
FFF001FFC0007FE0000000
FFE001FFC0007FC0000000
FFE000FFE000FFC0000000
FFE000FFE000FF80000000
FFE000FFE001FF80000000
FFE000FFE003FF00000000
FFE000FFE003FF00000000
FFE000FFE007FE00000000
FFE000FFE007FE00000000
FFE000FFE00FFC00000000
FFE000FFE00FFC00000000
FFE000FFE01FF800000000
FFE001FFC01FF000000000
FFF001FFC03FF000000000
7FF001FFC03FE000000000
7FF001FFC07FE001FF0000
7FF803FFC07FC00FFFE000
7FF807FF80FFC03FFFF800
3FFE0FFF80FF807FFFFE00
3FFFFFFF01FF81FFFFFF00
1FFFFFFF03FF01FFFFFF80
1FFFFFFE03FF03FFFFFF80
0FFFFFFE07FE07FFFFFFC0
07FFFFFC07FE07FFFFFFE0
03FFFFF80FFC0FFF83FFE0
00FFFFE00FFC0FFF01FFE0
007FFF801FF81FFE00FFF0
000FFE001FF01FFC007FF0
000000003FF01FFC007FF0
000000003FE01FFC007FF8
000000007FE01FFC003FF8
000000007FC03FF8003FF8
00000000FFC03FF8003FF8
00000000FF803FF8003FF8
00000001FF803FF8003FF8
00000003FF003FF8003FF8
00000003FF003FF8003FF8
00000007FE003FF8003FF8
00000007FE003FF8003FF8
0000000FFC003FF8003FF8
0000000FFC003FF8003FF8
0000001FF8003FF8003FF8
0000001FF0003FFC003FF8
0000003FF0001FFC007FF8
0000003FE0001FFC007FF0
0000007FE0001FFC007FF0
0000007FC0001FFE00FFF0
000000FFC0000FFF00FFE0
000000FF80000FFF83FFE0
000001FF800007FFFFFFE0
000001FF000007FFFFFFC0
000003FF000003FFFFFF80
000007FE000003FFFFFF80
000007FE000001FFFFFF00
00000FFC000000FFFFFE00
00000FFC0000003FFFF800
00001FF80000000FFFF000
0000000000000001FF0000
ENDCHAR
STARTCHAR 0026
ENCODING 38
SWIDTH 714 0
DWIDTH 70 0
BBX 68 73 2 -2
BITMAP
000001FFE000000000
00000FFFFC00000000
00007FFFFF80000000
0001FFFFFFE0000000
0003FFFFFFF0000000
0007FFFFFFF8000000
000FFFFFFFFC000000
001FFFFFFFFE000000
003FFFFFFFFF000000
003FFFFFFFFF000000
007FFFFFFFFF800000
007FFFFFFFFF800000
007FFFC07FFFC00000
00FFFF801FFFC00000
00FFFF001FFFC00000
00FFFE000FFFC00000
00FFFE000FFFC00000
00FFFE000FFFC00000
00FFFE000FFFC00000
00FFFE000FFFC00000
00FFFF000FFFC00000
00FFFF001FFF800000
00FFFF801FFF800000
007FFF803FFF800000
007FFFC07FFF000000
003FFFE1FFFF000000
003FFFF3FFFE000000
001FFFFFFFFC000000
000FFFFFFFF8000000
000FFFFFFFF0000000
0007FFFFFFE0000000
0003FFFFFFC0000000
0003FFFFFF00000000
000FFFFFFE00000000
003FFFFFF800000000
007FFFFFF000000000
00FFFFFFF800000000
03FFFFFFFC007FFC00
07FFFFFFFE007FFC00
0FFFFFFFFF00FFFC00
0FFFFFFFFF00FFFC00
1FFFF9FFFF80FFFC00
3FFFF0FFFFC0FFFC00
3FFFE07FFFE0FFFC00
7FFFC07FFFF1FFF800
7FFF803FFFF9FFF800
7FFF801FFFFFFFF800
7FFF800FFFFFFFF000
FFFF0007FFFFFFF000
FFFF0003FFFFFFF000
FFFF0001FFFFFFE000
FFFF0000FFFFFFE000
FFFF00007FFFFFC000
FFFF80003FFFFFC000
FFFF80003FFFFF8000
7FFFC0001FFFFF8000
7FFFC0000FFFFF0000
7FFFE00007FFFF0000
7FFFF8000FFFFF8000
3FFFFE007FFFFFC000
3FFFFFFFFFFFFFE000
3FFFFFFFFFFFFFF000
1FFFFFFFFFFFFFF800
0FFFFFFFFFFFFFF800
0FFFFFFFFFFFFFFC00
07FFFFFFFFFFFFFE00
03FFFFFFFFFFFFFF00
01FFFFFFFFFBFFFF80
007FFFFFFFE1FFFFC0
001FFFFFFF80FFFFE0
000FFFFFFE007FFFF0
0001FFFFF000000000
00001FFF0000000000
ENDCHAR
STARTCHAR 0027
ENCODING 39
SWIDTH 275 0
DWIDTH 27 0
BBX 17 33 5 37
BITMAP
FFFF80
FFFF80
FFFF80
7FFF80
7FFF00
7FFF00
7FFF00
7FFF00
7FFF00
7FFF00
7FFF00
7FFF00
7FFF00
7FFF00
7FFF00
3FFF00
3FFF00
3FFE00
3FFE00
3FFE00
3FFE00
3FFE00
3FFE00
3FFE00
3FFE00
3FFE00
3FFE00
3FFE00
1FFE00
1FFE00
1FFC00
1FFC00
1FFC00
ENDCHAR
STARTCHAR 0028
ENCODING 40
SWIDTH 295 0
DWIDTH 29 0
BBX 25 96 4 -19
BITMAP
001FFF80
003FFF00
003FFF00
007FFF00
007FFE00
00FFFE00
00FFFC00
00FFFC00
01FFFC00
01FFF800
03FFF800
03FFF800
03FFF000
07FFF000
07FFF000
0FFFE000
0FFFE000
0FFFE000
0FFFE000
1FFFC000
1FFFC000
1FFFC000
1FFFC000
3FFF8000
3FFF8000
3FFF8000
3FFF8000
7FFF8000
7FFF8000
7FFF0000
7FFF0000
7FFF0000
7FFF0000
7FFF0000
FFFF0000
FFFF0000
FFFF0000
FFFF0000
FFFF0000
FFFF0000
FFFF0000
FFFF0000
FFFE0000
FFFE0000
FFFE0000
FFFE0000
FFFE0000
FFFE0000
FFFE0000
FFFE0000
FFFE0000
FFFE0000
FFFE0000
FFFE0000
FFFF0000
FFFF0000
FFFF0000
FFFF0000
FFFF0000
FFFF0000
FFFF0000
FFFF0000
7FFF0000
7FFF0000
7FFF0000
7FFF0000
7FFF8000
7FFF8000
7FFF8000
3FFF8000
3FFF8000
3FFF8000
3FFFC000
1FFFC000
1FFFC000
1FFFC000
1FFFC000
0FFFE000
0FFFE000
0FFFE000
07FFE000
07FFF000
07FFF000
03FFF000
03FFF800
03FFF800
01FFF800
01FFFC00
00FFFC00
00FFFC00
00FFFE00
007FFE00
007FFF00
003FFF00
003FFF00
001FFF80
ENDCHAR
STARTCHAR 0029
ENCODING 41
SWIDTH 295 0
DWIDTH 29 0
BBX 26 96 0 -19
BITMAP
FFFE0000
7FFE0000
7FFF0000
3FFF0000
3FFF8000
1FFF8000
1FFF8000
1FFFC000
0FFFC000
0FFFE000
0FFFE000
07FFE000
07FFF000
07FFF000
03FFF000
03FFF800
03FFF800
01FFF800
01FFFC00
01FFFC00
01FFFC00
01FFFE00
00FFFE00
00FFFE00
00FFFE00
00FFFE00
00FFFF00
007FFF00
007FFF00
007FFF00
007FFF00
007FFF80
007FFF80
007FFF80
007FFF80
007FFF80
003FFF80
003FFF80
003FFF80
003FFF80
003FFF80
003FFF80
003FFF80
003FFF80
003FFFC0
003FFFC0
003FFFC0
003FFFC0
003FFFC0
003FFFC0
003FFFC0
003FFFC0
003FFFC0
003FFF80
003FFF80
003FFF80
003FFF80
003FFF80
003FFF80
003FFF80
007FFF80
007FFF80
007FFF80
007FFF80
007FFF80
007FFF00
007FFF00
007FFF00
007FFF00
00FFFF00
00FFFE00
00FFFE00
00FFFE00
00FFFE00
01FFFE00
01FFFC00
01FFFC00
01FFFC00
03FFF800
03FFF800
03FFF800
03FFF000
07FFF000
07FFF000
07FFE000
0FFFE000
0FFFE000
0FFFC000
1FFFC000
1FFF8000
1FFF8000
3FFF0000
3FFF0000
7FFF0000
7FFE0000
FFFE0000
ENDCHAR
STARTCHAR 002A
ENCODING 42
SWIDTH 448 0
DWIDTH 44 0
BBX 41 40 2 30
BITMAP
0001FF800000
0001FF800000
0001FF800000
0001FF800000
0001FF800000
0001FF800000
0001FF800000
0001FF800000
0001FF800000
1001FF800C00
3E01FF807C00
3FC1FF83FC00
3FF9FF9FFE00
7FFFFFFFFE00
7FFFFFFFFE00
7FFFFFFFFF00
FFFFFFFFFF00
FFFFFFFFFF00
FFFFFFFFFF80
1FFFFFFFFC00
03FFFFFFC000
007FFFFE0000
000FFFF00000
000FFFF00000
001FFFF80000
001FFFFC0000
003FFFFC0000
007FFFFE0000
00FFFFFF0000
00FFFFFF8000
01FFE7FF8000
03FFE3FFC000
03FFC3FFE000
07FF81FFF000
03FF00FFE000
01FF007FC000
00FE007F0000
007C003E0000
001C001C0000
000800080000
ENDCHAR
STARTCHAR 002B
ENCODING 43
SWIDTH 530 0
DWIDTH 52 0
BBX 46 45 3 12
BITMAP
0000FFFC0000
0000FFFC0000
0000FFFC0000
0000FFFC0000
0000FFFC0000
0000FFFC0000
0000FFFC0000
0000FFFC0000
0000FFFC0000
0000FFFC0000
0000FFFC0000
0000FFFC0000
0000FFFC0000
0000FFFC0000
0000FFFC0000
0000FFFC0000
FFFFFFFFFFFC
FFFFFFFFFFFC
FFFFFFFFFFFC
FFFFFFFFFFFC
FFFFFFFFFFFC
FFFFFFFFFFFC
FFFFFFFFFFFC
FFFFFFFFFFFC
FFFFFFFFFFFC
FFFFFFFFFFFC
FFFFFFFFFFFC
FFFFFFFFFFFC
FFFFFFFFFFFC
0000FFFC0000
0000FFFC0000
0000FFFC0000
0000FFFC0000
0000FFFC0000
0000FFFC0000
0000FFFC0000
0000FFFC0000
0000FFFC0000
0000FFFC0000
0000FFFC0000
0000FFFC0000
0000FFFC0000
0000FFFC0000
0000FFFC0000
0000FFFC0000
ENDCHAR
STARTCHAR 002C
ENCODING 44
SWIDTH 244 0
DWIDTH 24 0
BBX 18 34 3 -17
BITMAP
FFFFC0
FFFFC0
FFFFC0
FFFFC0
FFFFC0
FFFFC0
FFFFC0
FFFFC0
FFFFC0
FFFFC0
FFFFC0
FFFFC0
FFFFC0
FFFFC0
FFFFC0
FFFFC0
FFFFC0
00FFC0
00FFC0
00FFC0
00FF80
01FF80
01FF80
01FF80
03FF80
FFFF00
FFFF00
FFFF00
FFFE00
FFFC00
FFF800
FFF000
FFC000
FE0000
ENDCHAR
STARTCHAR 002D
ENCODING 45
SWIDTH 357 0
DWIDTH 35 0
BBX 29 13 3 21
BITMAP
FFFFFFF8
FFFFFFF8
FFFFFFF8
FFFFFFF8
FFFFFFF8
FFFFFFF8
FFFFFFF8
FFFFFFF8
FFFFFFF8
FFFFFFF8
FFFFFFF8
FFFFFFF8
FFFFFFF8
ENDCHAR
STARTCHAR 002E
ENCODING 46
SWIDTH 244 0
DWIDTH 24 0
BBX 18 17 3 0
BITMAP
FFFFC0
FFFFC0
FFFFC0
FFFFC0
FFFFC0
FFFFC0
FFFFC0
FFFFC0
FFFFC0
FFFFC0
FFFFC0
FFFFC0
FFFFC0
FFFFC0
FFFFC0
FFFFC0
FFFFC0
ENDCHAR
STARTCHAR 002F
ENCODING 47
SWIDTH 408 0
DWIDTH 40 0
BBX 40 70 0 0
BITMAP
0000007FFF
000000FFFE
000000FFFE
000000FFFE
000001FFFC
000001FFFC
000001FFF8
000003FFF8
000003FFF8
000003FFF0
000007FFF0
000007FFF0
000007FFE0
00000FFFE0
00000FFFE0
00001FFFC0
00001FFFC0
00001FFFC0
00003FFF80
00003FFF80
00003FFF00
00007FFF00
00007FFF00
00007FFE00
0000FFFE00
0000FFFE00
0000FFFC00
0001FFFC00
0001FFFC00
0003FFF800
0003FFF800
0003FFF800
0007FFF000
0007FFF000
0007FFE000
000FFFE000
000FFFE000
000FFFC000
001FFFC000
001FFFC000
001FFF8000
003FFF8000
003FFF8000
007FFF0000
007FFF0000
007FFF0000
00FFFE0000
00FFFE0000
00FFFC0000
01FFFC0000
01FFFC0000
01FFF80000
03FFF80000
03FFF80000
03FFF00000
07FFF00000
07FFF00000
0FFFE00000
0FFFE00000
0FFFE00000
1FFFC00000
1FFFC00000
1FFF800000
3FFF800000
3FFF800000
3FFF000000
7FFF000000
7FFF000000
7FFE000000
FFFE000000
ENDCHAR
STARTCHAR 0030
ENCODING 48
SWIDTH 673 0
DWIDTH 66 0
BBX 60 73 3 -2
BITMAP
000000FFF0000000
00000FFFFF800000
00007FFFFFE00000
0001FFFFFFF80000
0007FFFFFFFE0000
000FFFFFFFFF0000
001FFFFFFFFF8000
003FFFFFFFFFE000
007FFFFFFFFFF000
00FFFFFFFFFFF000
01FFFFFFFFFFF800
03FFFFFFFFFFFC00
03FFFFFFFFFFFC00
07FFFFFFFFFFFE00
07FFFFC01FFFFF00
0FFFFF000FFFFF00
0FFFFE0003FFFF00
1FFFFC0003FFFF80
1FFFF80001FFFF80
1FFFF80000FFFFC0
3FFFF00000FFFFC0
3FFFF000007FFFC0
3FFFE000007FFFC0
3FFFE000007FFFE0
7FFFE000007FFFE0
7FFFE000003FFFE0
7FFFC000003FFFE0
7FFFC000003FFFE0
7FFFC000003FFFE0
7FFFC000003FFFF0
7FFFC000003FFFF0
7FFFC000003FFFF0
FFFFC000001FFFF0
FFFFC000001FFFF0
FFFFC000001FFFF0
FFFFC000001FFFF0
FFFFC000001FFFF0
FFFFC000001FFFF0
FFFFC000001FFFF0
FFFFC000001FFFF0
FFFFC000001FFFF0
7FFFC000003FFFF0
7FFFC000003FFFF0
7FFFC000003FFFF0
7FFFC000003FFFE0
7FFFC000003FFFE0
7FFFC000003FFFE0
7FFFE000003FFFE0
7FFFE000007FFFE0
3FFFE000007FFFE0
3FFFE000007FFFC0
3FFFF000007FFFC0
3FFFF00000FFFFC0
1FFFF80000FFFFC0
1FFFF80001FFFF80
1FFFFC0003FFFF80
0FFFFE0003FFFF00
0FFFFF000FFFFF00
07FFFFC01FFFFF00
07FFFFFFFFFFFE00
03FFFFFFFFFFFC00
03FFFFFFFFFFFC00
01FFFFFFFFFFF800
00FFFFFFFFFFF000
007FFFFFFFFFF000
003FFFFFFFFFE000
001FFFFFFFFFC000
000FFFFFFFFF0000
0007FFFFFFFE0000
0001FFFFFFF80000
00007FFFFFE00000
00000FFFFF800000
000000FFF0000000
ENDCHAR
STARTCHAR 0031
ENCODING 49
SWIDTH 418 0
DWIDTH 41 0
BBX 32 70 3 0
BITMAP
00001FFF
00001FFF
00001FFF
00003FFF
00003FFF
00003FFF
00007FFF
0000FFFF
0000FFFF
0001FFFF
0003FFFF
0007FFFF
001FFFFF
007FFFFF
07FFFFFF
FFFFFFFF
FFFFFFFF
FFFFFFFF
FFFFFFFF
FFFFFFFF
FFFFFFFF
FFFFFFFF
FFFFFFFF
FFFFFFFF
FFFFFFFF
FFFFFFFF
0000FFFF
0000FFFF
0000FFFF
0000FFFF
0000FFFF
0000FFFF
0000FFFF
0000FFFF
0000FFFF
0000FFFF
0000FFFF
0000FFFF
0000FFFF
0000FFFF
0000FFFF
0000FFFF
0000FFFF
0000FFFF
0000FFFF
0000FFFF
0000FFFF
0000FFFF
0000FFFF
0000FFFF
0000FFFF
0000FFFF
0000FFFF
0000FFFF
0000FFFF
0000FFFF
0000FFFF
0000FFFF
0000FFFF
0000FFFF
0000FFFF
0000FFFF
0000FFFF
0000FFFF
0000FFFF
0000FFFF
0000FFFF
0000FFFF
0000FFFF
0000FFFF
ENDCHAR
STARTCHAR 0032
ENCODING 50
SWIDTH 622 0
DWIDTH 61 0
BBX 54 71 3 0
BITMAP
000007FFC00000
00007FFFFC0000
0003FFFFFF8000
000FFFFFFFE000
003FFFFFFFF800
007FFFFFFFFC00
00FFFFFFFFFE00
01FFFFFFFFFF00
03FFFFFFFFFF80
07FFFFFFFFFFC0
07FFFFFFFFFFE0
0FFFFFFFFFFFE0
1FFFFFFFFFFFF0
1FFFFFFFFFFFF0
1FFFFC00FFFFF8
3FFFF8003FFFF8
3FFFE0001FFFF8
3FFFE0000FFFF8
3FFFC0000FFFF8
7FFFC00007FFF8
7FFF800007FFFC
7FFF800007FFFC
7FFF800007FFF8
7FFF800007FFF8
7FFF800007FFF8
0000000007FFF8
000000000FFFF8
000000000FFFF8
000000001FFFF0
000000003FFFF0
000000007FFFF0
00000001FFFFE0
00000007FFFFE0
0000001FFFFFC0
0000007FFFFF80
000001FFFFFF00
00000FFFFFFE00
00003FFFFFFC00
0000FFFFFFF800
0003FFFFFFF000
0007FFFFFFC000
001FFFFFFF8000
003FFFFFFE0000
007FFFFFF80000
00FFFFFFE00000
01FFFFFF800000
03FFFFFE000000
07FFFFF8000000
07FFFFE0000000
0FFFFF80000000
0FFFFE00000000
1FFFFC00000000
1FFFF800000000
3FFFF000000000
3FFFF000000000
3FFFE000000000
3FFFE000000000
7FFFFFFFFFFFFC
7FFFFFFFFFFFFC
7FFFFFFFFFFFFC
7FFFFFFFFFFFFC
7FFFFFFFFFFFFC
7FFFFFFFFFFFFC
7FFFFFFFFFFFFC
7FFFFFFFFFFFFC
7FFFFFFFFFFFFC
7FFFFFFFFFFFFC
FFFFFFFFFFFFFC
FFFFFFFFFFFFFC
FFFFFFFFFFFFFC
FFFFFFFFFFFFFC
ENDCHAR
STARTCHAR 0033
ENCODING 51
SWIDTH 642 0
DWIDTH 63 0
BBX 57 73 3 -2
BITMAP
000003FFF0000000
00007FFFFF800000
0001FFFFFFE00000
0007FFFFFFF80000
001FFFFFFFFE0000
003FFFFFFFFF8000
00FFFFFFFFFFC000
01FFFFFFFFFFE000
01FFFFFFFFFFF000
03FFFFFFFFFFF000
07FFFFFFFFFFF800
07FFFFFFFFFFF800
0FFFFFFFFFFFFC00
0FFFFF807FFFFC00
1FFFFC000FFFFC00
1FFFF80007FFFE00
1FFFF00003FFFE00
1FFFE00001FFFE00
1FFFE00001FFFE00
3FFFE00001FFFE00
3FFFC00001FFFE00
3FFFC00001FFFE00
3FFFC00001FFFE00
0000000001FFFE00
0000000001FFFC00
0000000003FFFC00
0000000007FFF800
000000000FFFF800
000000003FFFF000
000001FFFFFFE000
000001FFFFFFC000
000001FFFFFF8000
000001FFFFFF0000
000001FFFFFE0000
000001FFFFFC0000
000001FFFFFF0000
000001FFFFFFC000
000001FFFFFFE000
000001FFFFFFF000
000001FFFFFFF800
000001FFFFFFFC00
000000007FFFFE00
000000000FFFFE00
0000000007FFFF00
0000000003FFFF00
0000000001FFFF00
0000000001FFFF80
FFFF000000FFFF80
FFFF000000FFFF80
FFFF000000FFFF80
FFFF000000FFFF80
7FFF800000FFFF80
7FFF800000FFFF80
7FFF800000FFFF80
7FFFC00001FFFF80
7FFFE00003FFFF80
3FFFF00003FFFF80
3FFFF8000FFFFF00
3FFFFE003FFFFF00
1FFFFFFFFFFFFF00
1FFFFFFFFFFFFE00
0FFFFFFFFFFFFE00
0FFFFFFFFFFFFC00
07FFFFFFFFFFF800
03FFFFFFFFFFF000
01FFFFFFFFFFE000
00FFFFFFFFFFC000
007FFFFFFFFF8000
001FFFFFFFFF0000
0007FFFFFFFC0000
0001FFFFFFF00000
00003FFFFF800000
000003FFF8000000
ENDCHAR
STARTCHAR 0034
ENCODING 52
SWIDTH 663 0
DWIDTH 65 0
BBX 59 70 3 0
BITMAP
00000001FFFFC000
00000003FFFFC000
00000003FFFFC000
00000007FFFFC000
0000000FFFFFC000
0000001FFFFFC000
0000003FFFFFC000
0000003FFFFFC000
0000007FFFFFC000
000000FFFFFFC000
000001FFFFFFC000
000003FFFFFFC000
000003FFFFFFC000
000007FFFFFFC000
00000FFFFFFFC000
00001FFFFFFFC000
00003FFFFFFFC000
00003FFFBFFFC000
00007FFF3FFFC000
0000FFFE3FFFC000
0001FFFE3FFFC000
0003FFFC3FFFC000
0007FFF83FFFC000
0007FFF03FFFC000
000FFFE03FFFC000
001FFFC03FFFC000
003FFFC03FFFC000
007FFF803FFFC000
007FFF003FFFC000
00FFFE003FFFC000
01FFFC003FFFC000
03FFFC003FFFC000
07FFF8003FFFC000
07FFF0003FFFC000
0FFFE0003FFFC000
1FFFC0003FFFC000
3FFFC0003FFFC000
7FFF80003FFFC000
7FFF00003FFFC000
FFFE00003FFFC000
FFFC00003FFFC000
FFFFFFFFFFFFFFE0
FFFFFFFFFFFFFFE0
FFFFFFFFFFFFFFE0
FFFFFFFFFFFFFFE0
FFFFFFFFFFFFFFE0
FFFFFFFFFFFFFFE0
FFFFFFFFFFFFFFE0
FFFFFFFFFFFFFFE0
FFFFFFFFFFFFFFE0
FFFFFFFFFFFFFFE0
FFFFFFFFFFFFFFE0
FFFFFFFFFFFFFFE0
FFFFFFFFFFFFFFE0
FFFFFFFFFFFFFFE0
000000007FFFC000
000000007FFFC000
000000007FFFC000
000000007FFFC000
000000007FFFC000
000000007FFFC000
000000007FFFC000
000000007FFFC000
000000007FFFC000
000000007FFFC000
000000007FFFC000
000000007FFFC000
000000007FFFC000
000000007FFFC000
000000007FFFC000
ENDCHAR
STARTCHAR 0035
ENCODING 53
SWIDTH 622 0
DWIDTH 61 0
BBX 55 72 3 -2
BITMAP
00FFFFFFFFFFF0
00FFFFFFFFFFF0
00FFFFFFFFFFF0
00FFFFFFFFFFF0
00FFFFFFFFFFF0
01FFFFFFFFFFF0
01FFFFFFFFFFF0
01FFFFFFFFFFF0
01FFFFFFFFFFF0
01FFFFFFFFFFF0
01FFFFFFFFFFF0
03FFFFFFFFFFF0
03FFFFFFFFFFF0
03FFFFFFFFFFF0
03FFF800000000
03FFF800000000
03FFF800000000
07FFF000000000
07FFF000000000
07FFF000000000
07FFF000000000
07FFF000000000
07FFF000000000
0FFFE000000000
0FFFE03FF80000
0FFFE1FFFF8000
0FFFE7FFFFE000
0FFFFFFFFFF800
0FFFFFFFFFFC00
1FFFFFFFFFFE00
1FFFFFFFFFFF00
1FFFFFFFFFFF80
1FFFFFFFFFFFC0
1FFFFFFFFFFFE0
1FFFFFFFFFFFF0
3FFFFF01FFFFF0
3FFFF8003FFFF8
3FFFF0001FFFF8
3FFFE0000FFFF8
3FFFC00007FFFC
3FFF800003FFFC
0000000003FFFC
0000000001FFFE
0000000001FFFE
0000000001FFFE
0000000001FFFE
0000000001FFFE
0000000001FFFE
0000000001FFFE
0000000001FFFE
FFFF000001FFFE
7FFF000001FFFE
7FFF800003FFFC
7FFF800003FFFC
7FFFC00007FFFC
3FFFE0000FFFFC
3FFFF0001FFFF8
3FFFF8003FFFF8
1FFFFE00FFFFF0
1FFFFFFFFFFFF0
0FFFFFFFFFFFE0
0FFFFFFFFFFFE0
07FFFFFFFFFFC0
03FFFFFFFFFF80
01FFFFFFFFFF00
00FFFFFFFFFE00
007FFFFFFFFC00
001FFFFFFFF000
0007FFFFFFE000
0001FFFFFF8000
00007FFFFC0000
000003FFC00000
ENDCHAR
STARTCHAR 0036
ENCODING 54
SWIDTH 632 0
DWIDTH 62 0
BBX 56 73 3 -2
BITMAP
000000FFE00000
00001FFFFF0000
00007FFFFFC000
0001FFFFFFF000
0007FFFFFFFC00
000FFFFFFFFF00
001FFFFFFFFF80
003FFFFFFFFFC0
007FFFFFFFFFE0
00FFFFFFFFFFE0
01FFFFFFFFFFF0
01FFFFFFFFFFF8
03FFFFC07FFFF8
07FFFE000FFFFC
07FFFC0007FFFC
0FFFF80003FFFC
0FFFF00001FFFE
0FFFE00000FFFE
1FFFE00000FFFE
1FFFC00000FFFE
1FFFC000000000
3FFF8000000000
3FFF8000000000
3FFF8000000000
3FFF8000000000
7FFF000FF80000
7FFF00FFFF8000
7FFF03FFFFF000
7FFF0FFFFFFC00
7FFF1FFFFFFE00
7FFF3FFFFFFF80
7FFF7FFFFFFFC0
7FFFFFFFFFFFE0
7FFFFFFFFFFFF0
FFFFFFFFFFFFF0
FFFFFFFFFFFFF8
FFFFFFFFFFFFFC
FFFFFFC07FFFFC
FFFFFE001FFFFE
FFFFFC0007FFFE
FFFFF80003FFFE
FFFFF00001FFFF
7FFFE00001FFFF
7FFFE00000FFFF
7FFFC00000FFFF
7FFFC00000FFFF
7FFFC000007FFF
7FFFC000007FFF
7FFFC000007FFF
7FFFC000007FFF
3FFFC000007FFF
3FFFC00000FFFF
3FFFC00000FFFF
3FFFE00000FFFF
1FFFE00001FFFF
1FFFF00001FFFE
1FFFF00003FFFE
0FFFF80007FFFE
0FFFFE000FFFFC
07FFFF807FFFFC
07FFFFFFFFFFF8
03FFFFFFFFFFF8
01FFFFFFFFFFF0
01FFFFFFFFFFE0
00FFFFFFFFFFE0
007FFFFFFFFFC0
003FFFFFFFFF80
001FFFFFFFFE00
0007FFFFFFFC00
0003FFFFFFF000
0000FFFFFFC000
00001FFFFF0000
000001FFF00000
ENDCHAR
STARTCHAR 0037
ENCODING 55
SWIDTH 530 0
DWIDTH 52 0
BBX 50 70 1 0
BITMAP
FFFFFFFFFFFFC0
FFFFFFFFFFFFC0
FFFFFFFFFFFFC0
FFFFFFFFFFFFC0
FFFFFFFFFFFFC0
FFFFFFFFFFFFC0
FFFFFFFFFFFFC0
FFFFFFFFFFFFC0
FFFFFFFFFFFFC0
FFFFFFFFFFFFC0
FFFFFFFFFFFFC0
FFFFFFFFFFFFC0
FFFFFFFFFFFFC0
FFFFFFFFFFFFC0
000000007FFF80
00000000FFFF00
00000001FFFE00
00000003FFFC00
00000007FFF800
00000007FFF000
0000000FFFF000
0000001FFFE000
0000003FFFC000
0000003FFF8000
0000007FFF8000
000000FFFF0000
000000FFFE0000
000001FFFE0000
000001FFFC0000
000003FFF80000
000007FFF80000
000007FFF00000
00000FFFF00000
00000FFFE00000
00001FFFE00000
00001FFFE00000
00003FFFC00000
00003FFFC00000
00003FFF800000
00007FFF800000
00007FFF800000
0000FFFF000000
0000FFFF000000
0000FFFF000000
0001FFFE000000
0001FFFE000000
0001FFFE000000
0001FFFE000000
0003FFFE000000
0003FFFC000000
0003FFFC000000
0003FFFC000000
0007FFFC000000
0007FFFC000000
0007FFF8000000
0007FFF8000000
0007FFF8000000
000FFFF8000000
000FFFF8000000
000FFFF8000000
000FFFF8000000
000FFFF8000000
000FFFF8000000
000FFFF8000000
000FFFF8000000
001FFFF8000000
001FFFF8000000
001FFFF8000000
001FFFF8000000
001FFFF8000000
ENDCHAR
STARTCHAR 0038
ENCODING 56
SWIDTH 632 0
DWIDTH 62 0
BBX 57 73 2 -2
BITMAP
000003FFE0000000
00003FFFFF000000
0001FFFFFFE00000
0007FFFFFFF80000
001FFFFFFFFE0000
003FFFFFFFFF0000
007FFFFFFFFF8000
00FFFFFFFFFFC000
01FFFFFFFFFFE000
03FFFFFFFFFFF000
07FFFFFFFFFFF000
07FFFFFFFFFFF800
0FFFFF003FFFF800
0FFFFC000FFFFC00
0FFFF00007FFFC00
1FFFE00003FFFC00
1FFFE00001FFFC00
1FFFC00001FFFE00
1FFFC00000FFFE00
1FFFC00000FFFE00
1FFFC00000FFFE00
1FFFC00000FFFE00
1FFFC00000FFFC00
1FFFC00001FFFC00
0FFFE00001FFFC00
0FFFE00003FFFC00
0FFFF00007FFF800
07FFF8000FFFF800
03FFFE003FFFF000
03FFFFFFFFFFF000
01FFFFFFFFFFE000
00FFFFFFFFFFC000
007FFFFFFFFF8000
003FFFFFFFFE0000
000FFFFFFFFC0000
007FFFFFFFFF0000
00FFFFFFFFFFC000
03FFFFFFFFFFE000
07FFFFFFFFFFF800
0FFFFFFFFFFFF800
1FFFFF003FFFFC00
1FFFF8000FFFFE00
3FFFF00003FFFF00
3FFFE00001FFFF00
7FFFC00000FFFF00
7FFF800000FFFF80
7FFF8000007FFF80
7FFF8000007FFF80
FFFF8000007FFF80
FFFF0000007FFF80
FFFF0000007FFF80
FFFF0000007FFF80
FFFF8000007FFF80
FFFF8000007FFF80
FFFF800000FFFF80
7FFFC00000FFFF80
7FFFC00001FFFF80
7FFFE00003FFFF80
7FFFF80007FFFF00
3FFFFE001FFFFF00
3FFFFFFFFFFFFE00
1FFFFFFFFFFFFE00
1FFFFFFFFFFFFC00
0FFFFFFFFFFFF800
07FFFFFFFFFFF800
03FFFFFFFFFFF000
01FFFFFFFFFFE000
00FFFFFFFFFF8000
003FFFFFFFFF0000
000FFFFFFFFC0000
0003FFFFFFF00000
00007FFFFF800000
000003FFF0000000
ENDCHAR
STARTCHAR 0039
ENCODING 57
SWIDTH 632 0
DWIDTH 62 0
BBX 56 73 3 -2
BITMAP
000007FF800000
00007FFFF80000
0003FFFFFF0000
000FFFFFFFC000
003FFFFFFFF000
007FFFFFFFF800
00FFFFFFFFFC00
01FFFFFFFFFE00
03FFFFFFFFFF00
07FFFFFFFFFF80
0FFFFFFFFFFFC0
0FFFFFFFFFFFC0
1FFFFFFFFFFFE0
3FFFFE01FFFFF0
3FFFF8007FFFF0
3FFFE0001FFFF0
7FFFC0000FFFF8
7FFFC00007FFF8
7FFF800007FFFC
FFFF000003FFFC
FFFF000003FFFC
FFFF000003FFFC
FFFF000001FFFE
FFFF000001FFFE
FFFF000001FFFE
FFFF000001FFFE
FFFF000001FFFE
FFFF000003FFFE
FFFF000003FFFF
FFFF800003FFFF
7FFF800007FFFF
7FFFC00007FFFF
7FFFE0000FFFFF
7FFFF0001FFFFF
3FFFF8007FFFFF
3FFFFE01FFFFFF
1FFFFFFFFFFFFF
1FFFFFFFFFFFFF
0FFFFFFFFFFFFF
07FFFFFFFFFFFF
03FFFFFFFFFFFF
01FFFFFFFF7FFF
00FFFFFFFE7FFF
007FFFFFFC7FFE
003FFFFFF0FFFE
000FFFFFC0FFFE
0001FFFF00FFFE
00001FF000FFFE
0000000000FFFE
0000000000FFFC
0000000001FFFC
0000000001FFFC
0000000001FFFC
7FFF000003FFF8
7FFF000003FFF8
7FFF800007FFF8
3FFF800007FFF0
3FFFC0000FFFF0
3FFFE0001FFFE0
1FFFF0007FFFE0
1FFFFE01FFFFC0
0FFFFFFFFFFFC0
0FFFFFFFFFFF80
07FFFFFFFFFF00
03FFFFFFFFFF00
01FFFFFFFFFE00
00FFFFFFFFFC00
007FFFFFFFF800
003FFFFFFFE000
000FFFFFFFC000
0003FFFFFF0000
00007FFFF80000
000007FFC00000
ENDCHAR
STARTCHAR 003A
ENCODING 58
SWIDTH 244 0
DWIDTH 24 0
BBX 18 48 3 0
BITMAP
FFFFC0
FFFFC0
FFFFC0
FFFFC0
FFFFC0
FFFFC0
FFFFC0
FFFFC0
FFFFC0
FFFFC0
FFFFC0
FFFFC0
FFFFC0
FFFFC0
FFFFC0
FFFFC0
FFFFC0
000000
000000
000000
000000
000000
000000
000000
000000
000000
000000
000000
000000
000000
000000
FFFFC0
FFFFC0
FFFFC0
FFFFC0
FFFFC0
FFFFC0
FFFFC0
FFFFC0
FFFFC0
FFFFC0
FFFFC0
FFFFC0
FFFFC0
FFFFC0
FFFFC0
FFFFC0
FFFFC0
ENDCHAR
STARTCHAR 003B
ENCODING 59
SWIDTH 244 0
DWIDTH 24 0
BBX 18 65 3 -17
BITMAP
FFFFC0
FFFFC0
FFFFC0
FFFFC0
FFFFC0
FFFFC0
FFFFC0
FFFFC0
FFFFC0
FFFFC0
FFFFC0
FFFFC0
FFFFC0
FFFFC0
FFFFC0
FFFFC0
FFFFC0
000000
000000
000000
000000
000000
000000
000000
000000
000000
000000
000000
000000
000000
000000
FFFFC0
FFFFC0
FFFFC0
FFFFC0
FFFFC0
FFFFC0
FFFFC0
FFFFC0
FFFFC0
FFFFC0
FFFFC0
FFFFC0
FFFFC0
FFFFC0
FFFFC0
FFFFC0
FFFFC0
00FFC0
00FFC0
00FFC0
00FF80
01FF80
01FF80
01FF80
03FF80
FFFF00
FFFF00
FFFF00
FFFE00
FFFC00
FFF800
FFF000
FFC000
FE0000
ENDCHAR
STARTCHAR 003C
ENCODING 60
SWIDTH 530 0
DWIDTH 52 0
BBX 46 50 3 10
BITMAP
000000000004
00000000003C
0000000001FC
0000000007FC
000000003FFC
00000000FFFC
00000007FFFC
0000003FFFFC
000000FFFFFC
000007FFFFFC
00003FFFFFFC
0000FFFFFFFC
0007FFFFFFFC
001FFFFFFFFC
00FFFFFFFFFC
07FFFFFFFFF0
1FFFFFFFFFC0
FFFFFFFFFE00
FFFFFFFFF000
FFFFFFFF8000
FFFFFFFC0000
FFFFFFC00000
FFFFFE000000
FFFFF0000000
FFFF80000000
FFFF00000000
FFFFE0000000
FFFFFE000000
FFFFFFC00000
FFFFFFF80000
FFFFFFFF0000
FFFFFFFFE000
FFFFFFFFFC00
1FFFFFFFFF80
07FFFFFFFFF0
00FFFFFFFFFC
003FFFFFFFFC
0007FFFFFFFC
0000FFFFFFFC
00003FFFFFFC
000007FFFFFC
000000FFFFFC
0000003FFFFC
00000007FFFC
00000001FFFC
000000003FFC
0000000007FC
0000000001FC
00000000003C
000000000004
ENDCHAR
STARTCHAR 003D
ENCODING 61
SWIDTH 530 0
DWIDTH 52 0
BBX 46 32 3 19
BITMAP
FFFFFFFFFFFC
FFFFFFFFFFFC
FFFFFFFFFFFC
FFFFFFFFFFFC
FFFFFFFFFFFC
FFFFFFFFFFFC
FFFFFFFFFFFC
FFFFFFFFFFFC
FFFFFFFFFFFC
FFFFFFFFFFFC
FFFFFFFFFFFC
FFFFFFFFFFFC
000000000000
000000000000
000000000000
000000000000
000000000000
000000000000
000000000000
000000000000
FFFFFFFFFFFC
FFFFFFFFFFFC
FFFFFFFFFFFC
FFFFFFFFFFFC
FFFFFFFFFFFC
FFFFFFFFFFFC
FFFFFFFFFFFC
FFFFFFFFFFFC
FFFFFFFFFFFC
FFFFFFFFFFFC
FFFFFFFFFFFC
FFFFFFFFFFFC
ENDCHAR
STARTCHAR 003E
ENCODING 62
SWIDTH 530 0
DWIDTH 52 0
BBX 46 50 3 10
BITMAP
800000000000
F00000000000
FC0000000000
FF8000000000
FFF000000000
FFFC00000000
FFFF80000000
FFFFE0000000
FFFFFC000000
FFFFFF800000
FFFFFFE00000
FFFFFFFC0000
FFFFFFFF0000
FFFFFFFFE000
FFFFFFFFFC00
3FFFFFFFFF00
0FFFFFFFFFE0
01FFFFFFFFF8
003FFFFFFFFC
0007FFFFFFFC
0000FFFFFFFC
00001FFFFFFC
000003FFFFFC
0000003FFFFC
00000007FFFC
00000003FFFC
0000003FFFFC
000001FFFFFC
00000FFFFFFC
00007FFFFFFC
0007FFFFFFFC
003FFFFFFFFC
01FFFFFFFFFC
0FFFFFFFFFE0
3FFFFFFFFF80
FFFFFFFFFC00
FFFFFFFFE000
FFFFFFFF8000
FFFFFFFC0000
FFFFFFE00000
FFFFFF800000
FFFFFC000000
FFFFF0000000
FFFF80000000
FFFC00000000
FFF000000000
FF8000000000
FC0000000000
F00000000000
800000000000
ENDCHAR
STARTCHAR 003F
ENCODING 63
SWIDTH 551 0
DWIDTH 54 0
BBX 50 71 2 0
BITMAP
00003FFF000000
0003FFFFF00000
001FFFFFFE0000
007FFFFFFF8000
00FFFFFFFFE000
01FFFFFFFFF000
07FFFFFFFFF800
07FFFFFFFFFC00
0FFFFFFFFFFE00
1FFFFFFFFFFE00
3FFFFFFFFFFF00
3FFFFFFFFFFF00
3FFFFFFFFFFF80
7FFFF007FFFF80
7FFFC001FFFF80
7FFF8000FFFFC0
FFFF80007FFFC0
FFFF00007FFFC0
FFFF00007FFFC0
FFFF00007FFFC0
FFFE00007FFFC0
FFFE00007FFF80
FFFE00007FFF80
00000000FFFF80
00000000FFFF80
00000001FFFF00
00000003FFFF00
0000000FFFFE00
0000001FFFFE00
0000007FFFFC00
000000FFFFF800
000001FFFFF000
000007FFFFE000
000007FFFFC000
00000FFFFF8000
00001FFFFE0000
00003FFFFC0000
00003FFFF80000
00003FFFE00000
00007FFFC00000
00007FFF800000
00007FFF800000
00007FFF000000
00007FFF000000
00007FFE000000
00007FFE000000
00007FFE000000
00007FFE000000
00000000000000
00000000000000
00000000000000
00000000000000
00000000000000
00000000000000
0001FFFF000000
0001FFFF000000
0001FFFF000000
0001FFFF000000
0001FFFF000000
0001FFFF000000
0001FFFF000000
0001FFFF000000
0001FFFF000000
0001FFFF000000
0001FFFF000000
0001FFFF000000
0001FFFF000000
0001FFFF000000
0001FFFF000000
0001FFFF000000
0001FFFF000000
ENDCHAR
STARTCHAR 0040
ENCODING 64
SWIDTH 918 0
DWIDTH 90 0
BBX 86 83 2 -12
BITMAP
000000000FFFE000000000
00000003FFFFFF00000000
0000001FFFFFFFF0000000
000000FFFFFFFFFE000000
000003FFFFFFFFFF800000
00000FFFFFFFFFFFE00000
00001FFFFFFFFFFFF80000
00007FFFFFFFFFFFFC0000
0000FFFFFFFFFFFFFF0000
0003FFFFFFFFFFFFFF8000
0007FFFFF8003FFFFFC000
000FFFFF000001FFFFE000
001FFFF80000003FFFF000
003FFFE000000007FFF800
007FFF8000000001FFFC00
00FFFE0000000000FFFE00
00FFFC00000000003FFF00
01FFF800000000001FFF00
03FFF000000000000FFF80
03FFE0003FE0000007FFC0
07FFC000FFF83FFE03FFC0
07FF8003FFFE3FFE03FFE0
0FFF000FFFFF3FFE01FFE0
0FFF001FFFFFBFFE00FFF0
1FFE003FFFFFFFFE00FFF0
1FFE003FFFFFFFFE007FF0
1FFC007FFFFFFFFE007FF8
3FFC00FFFFFFFFFE007FF8
3FF800FFFFFFFFFE003FF8
3FF801FFFFFFFFFE003FF8
7FF801FFFE03FFFE003FF8
7FF803FFF801FFFE003FFC
7FF003FFF800FFFE001FFC
7FF003FFF0007FFE001FFC
7FF003FFF0007FFE001FFC
7FF003FFE0003FFE001FFC
7FF007FFE0003FFE001FFC
FFF007FFE0003FFE001FFC
FFE007FFE0003FFE001FFC
FFE007FFE0003FFE001FFC
FFE007FFE0003FFE001FFC
FFE007FFE0003FFE001FFC
FFE007FFE0003FFE001FFC
FFE007FFE0003FFE003FF8
FFF007FFE0003FFE003FF8
7FF007FFE0003FFE003FF8
7FF003FFE0003FFE003FF8
7FF003FFF0007FFF007FF8
7FF003FFF0007FFF007FF0
7FF003FFF800FFFF00FFF0
7FF003FFFC01FFFF81FFF0
7FF801FFFE03FFFFC3FFE0
3FF801FFFFFFFFFFFFFFE0
3FF800FFFFFFFFFFFFFFC0
3FFC00FFFFFFFFFFFFFFC0
3FFC007FFFFFFFFFFFFF80
1FFE007FFFFFE7FFFFFF00
1FFE003FFFFFC7FFFFFE00
0FFF001FFFFF83FFFFFC00
0FFF000FFFFF01FFFFF800
0FFF8003FFFE00FFFFF000
07FFC000FFF8003FFFC000
07FFC0000F800007FE0000
03FFE00000000000000000
01FFF00000000000000000
01FFF80000000000000000
00FFFC0000000000000000
007FFF0000000000000000
007FFF8000000000000000
003FFFE000000000000000
001FFFF800000003000000
000FFFFE0000001F000000
0007FFFFE00001FF000000
0001FFFFFFFFFFFF000000
0000FFFFFFFFFFFF000000
00007FFFFFFFFFFF000000
00001FFFFFFFFFFF000000
000007FFFFFFFFFF000000
000003FFFFFFFFFF000000
0000007FFFFFFFFF000000
0000001FFFFFFFFC000000
00000001FFFFFFC0000000
000000000FFFF800000000
ENDCHAR
STARTCHAR 0041
ENCODING 65
SWIDTH 734 0
DWIDTH 72 0
BBX 71 70 0 0
BITMAP
0000007FFFFC000000
0000007FFFFC000000
0000007FFFFC000000
000000FFFFFE000000
000000FFFFFE000000
000000FFFFFE000000
000001FFFFFF000000
000001FFFFFF000000
000001FFFFFF800000
000003FFFFFF800000
000003FFFFFF800000
000007FFFFFFC00000
000007FFFFFFC00000
000007FFFFFFC00000
00000FFFFFFFE00000
00000FFFEFFFE00000
00000FFFEFFFF00000
00001FFFCFFFF00000
00001FFFC7FFF00000
00001FFFC7FFF80000
00003FFF87FFF80000
00003FFF83FFF80000
00007FFF83FFFC0000
00007FFF03FFFC0000
00007FFF01FFFE0000
0000FFFF01FFFE0000
0000FFFE01FFFE0000
0000FFFE00FFFF0000
0001FFFE00FFFF0000
0001FFFC00FFFF0000
0003FFFC007FFF8000
0003FFFC007FFF8000
0003FFF8007FFFC000
0007FFF8003FFFC000
0007FFF8003FFFC000
0007FFF0003FFFE000
000FFFF0001FFFE000
000FFFF0001FFFE000
000FFFE0001FFFF000
001FFFE0000FFFF000
001FFFE0000FFFF800
003FFFC0000FFFF800
003FFFC00007FFF800
003FFFC00007FFFC00
007FFFFFFFFFFFFC00
007FFFFFFFFFFFFC00
007FFFFFFFFFFFFE00
00FFFFFFFFFFFFFE00
00FFFFFFFFFFFFFF00
00FFFFFFFFFFFFFF00
01FFFFFFFFFFFFFF00
01FFFFFFFFFFFFFF80
03FFFFFFFFFFFFFF80
03FFFFFFFFFFFFFF80
03FFFFFFFFFFFFFFC0
07FFFFFFFFFFFFFFC0
07FFFFFFFFFFFFFFE0
07FFFFFFFFFFFFFFE0
0FFFF80000003FFFE0
0FFFF00000001FFFF0
1FFFF00000001FFFF0
1FFFF00000001FFFF0
1FFFE00000000FFFF8
3FFFE00000000FFFF8
3FFFE00000000FFFFC
3FFFC000000007FFFC
7FFFC000000007FFFC
7FFFC000000007FFFE
7FFF8000000003FFFE
FFFF8000000003FFFE
ENDCHAR
STARTCHAR 0042
ENCODING 66
SWIDTH 673 0
DWIDTH 66 0
BBX 60 70 5 0
BITMAP
FFFFFFFFFF000000
FFFFFFFFFFF00000
FFFFFFFFFFFE0000
FFFFFFFFFFFF8000
FFFFFFFFFFFFC000
FFFFFFFFFFFFF000
FFFFFFFFFFFFF800
FFFFFFFFFFFFF800
FFFFFFFFFFFFFC00
FFFFFFFFFFFFFE00
FFFFFFFFFFFFFE00
FFFFFFFFFFFFFF00
FFFFFFFFFFFFFF00
FFFF80001FFFFF00
FFFF800007FFFF80
FFFF800001FFFF80
FFFF800001FFFF80
FFFF800000FFFF80
FFFF800000FFFF80
FFFF800000FFFF80
FFFF800000FFFF80
FFFF800000FFFF00
FFFF800000FFFF00
FFFF800000FFFF00
FFFF800000FFFF00
FFFF800001FFFE00
FFFF800003FFFE00
FFFF800007FFFC00
FFFFFFFFFFFFF800
FFFFFFFFFFFFF000
FFFFFFFFFFFFE000
FFFFFFFFFFFFC000
FFFFFFFFFFFF8000
FFFFFFFFFFFF8000
FFFFFFFFFFFFE000
FFFFFFFFFFFFF000
FFFFFFFFFFFFFC00
FFFFFFFFFFFFFE00
FFFFFFFFFFFFFE00
FFFFFFFFFFFFFF00
FFFFFFFFFFFFFF80
FFFF800007FFFFC0
FFFF800000FFFFC0
FFFF8000007FFFC0
FFFF8000003FFFE0
FFFF8000003FFFE0
FFFF8000003FFFE0
FFFF8000001FFFF0
FFFF8000001FFFF0
FFFF8000001FFFF0
FFFF8000003FFFF0
FFFF8000003FFFF0
FFFF8000003FFFF0
FFFF8000007FFFE0
FFFF800000FFFFE0
FFFF800001FFFFE0
FFFF80000FFFFFE0
FFFFFFFFFFFFFFC0
FFFFFFFFFFFFFFC0
FFFFFFFFFFFFFF80
FFFFFFFFFFFFFF80
FFFFFFFFFFFFFF00
FFFFFFFFFFFFFE00
FFFFFFFFFFFFFE00
FFFFFFFFFFFFF800
FFFFFFFFFFFFF000
FFFFFFFFFFFFE000
FFFFFFFFFFFF8000
FFFFFFFFFFFC0000
FFFFFFFFFFC00000
ENDCHAR
STARTCHAR 0043
ENCODING 67
SWIDTH 744 0
DWIDTH 73 0
BBX 68 73 2 -2
BITMAP
00000007FFC0000000
000000FFFFFC000000
000007FFFFFF800000
00003FFFFFFFF00000
00007FFFFFFFF80000
0001FFFFFFFFFE0000
0007FFFFFFFFFF0000
000FFFFFFFFFFFC000
001FFFFFFFFFFFE000
003FFFFFFFFFFFF000
007FFFFFFFFFFFF800
00FFFFFFFFFFFFFC00
01FFFFFFFFFFFFFC00
01FFFFFFFFFFFFFE00
03FFFFFF83FFFFFF00
07FFFFF0003FFFFF00
07FFFFC0000FFFFF80
0FFFFF800003FFFF80
0FFFFF000001FFFFC0
1FFFFE000000FFFFC0
1FFFFC0000007FFFE0
1FFFF80000007FFFE0
3FFFF80000003FFFE0
3FFFF00000003FFFF0
3FFFF00000001FFFF0
3FFFE00000001FFFF0
7FFFE00000001FFFF0
7FFFE0000000000000
7FFFC0000000000000
7FFFC0000000000000
7FFFC0000000000000
7FFFC0000000000000
FFFFC0000000000000
FFFFC0000000000000
FFFFC0000000000000
FFFFC0000000000000
FFFFC0000000000000
FFFFC0000000000000
FFFFC0000000000000
FFFFC0000000000000
FFFFC0000000000000
7FFFC0000000000000
7FFFC0000000000000
7FFFC0000000000000
7FFFC0000000000000
7FFFE00000000FFFF0
7FFFE00000001FFFF0
3FFFE00000001FFFF0
3FFFF00000001FFFF0
3FFFF00000003FFFE0
3FFFF80000003FFFE0
1FFFF80000007FFFE0
1FFFFC000000FFFFE0
0FFFFE000000FFFFC0
0FFFFF000001FFFFC0
0FFFFF800007FFFF80
07FFFFC0000FFFFF80
03FFFFF0003FFFFF00
03FFFFFF83FFFFFF00
01FFFFFFFFFFFFFE00
00FFFFFFFFFFFFFC00
00FFFFFFFFFFFFFC00
007FFFFFFFFFFFF800
003FFFFFFFFFFFF000
001FFFFFFFFFFFE000
000FFFFFFFFFFFC000
0003FFFFFFFFFF0000
0001FFFFFFFFFE0000
00007FFFFFFFF80000
00001FFFFFFFE00000
000007FFFFFF800000
000000FFFFFC000000
0000000FFFC0000000
ENDCHAR
STARTCHAR 0044
ENCODING 68
SWIDTH 734 0
DWIDTH 72 0
BBX 65 70 5 0
BITMAP
FFFFFFFFF000000000
FFFFFFFFFF80000000
FFFFFFFFFFF0000000
FFFFFFFFFFFE000000
FFFFFFFFFFFF800000
FFFFFFFFFFFFE00000
FFFFFFFFFFFFF00000
FFFFFFFFFFFFF80000
FFFFFFFFFFFFFE0000
FFFFFFFFFFFFFF0000
FFFFFFFFFFFFFF0000
FFFFFFFFFFFFFF8000
FFFFFFFFFFFFFFC000
FFFFFFFFFFFFFFE000
FFFF80003FFFFFE000
FFFF800007FFFFF000
FFFF800001FFFFF800
FFFF8000007FFFF800
FFFF8000003FFFF800
FFFF8000001FFFFC00
FFFF8000001FFFFC00
FFFF8000000FFFFE00
FFFF80000007FFFE00
FFFF80000007FFFE00
FFFF80000003FFFE00
FFFF80000003FFFF00
FFFF80000003FFFF00
FFFF80000001FFFF00
FFFF80000001FFFF00
FFFF80000001FFFF00
FFFF80000001FFFF00
FFFF80000001FFFF00
FFFF80000001FFFF80
FFFF80000001FFFF80
FFFF80000001FFFF80
FFFF80000001FFFF80
FFFF80000001FFFF80
FFFF80000001FFFF00
FFFF80000001FFFF00
FFFF80000001FFFF00
FFFF80000001FFFF00
FFFF80000001FFFF00
FFFF80000001FFFF00
FFFF80000003FFFF00
FFFF80000003FFFF00
FFFF80000003FFFE00
FFFF80000007FFFE00
FFFF80000007FFFE00
FFFF8000000FFFFE00
FFFF8000001FFFFC00
FFFF8000001FFFFC00
FFFF8000003FFFFC00
FFFF800000FFFFF800
FFFF800001FFFFF800
FFFF800007FFFFF000
FFFF80003FFFFFE000
FFFFFFFFFFFFFFE000
FFFFFFFFFFFFFFC000
FFFFFFFFFFFFFF8000
FFFFFFFFFFFFFF8000
FFFFFFFFFFFFFF0000
FFFFFFFFFFFFFE0000
FFFFFFFFFFFFF80000
FFFFFFFFFFFFF00000
FFFFFFFFFFFFE00000
FFFFFFFFFFFF800000
FFFFFFFFFFFE000000
FFFFFFFFFFF8000000
FFFFFFFFFF80000000
FFFFFFFFF800000000
ENDCHAR
STARTCHAR 0045
ENCODING 69
SWIDTH 622 0
DWIDTH 61 0
BBX 54 70 5 0
BITMAP
FFFFFFFFFFFFFC
FFFFFFFFFFFFFC
FFFFFFFFFFFFFC
FFFFFFFFFFFFFC
FFFFFFFFFFFFFC
FFFFFFFFFFFFFC
FFFFFFFFFFFFFC
FFFFFFFFFFFFFC
FFFFFFFFFFFFFC
FFFFFFFFFFFFFC
FFFFFFFFFFFFFC
FFFFFFFFFFFFFC
FFFFFFFFFFFFFC
FFFFFFFFFFFFFC
FFFFFFFFFFFFFC
FFFF8000000000
FFFF8000000000
FFFF8000000000
FFFF8000000000
FFFF8000000000
FFFF8000000000
FFFF8000000000
FFFF8000000000
FFFF8000000000
FFFF8000000000
FFFF8000000000
FFFF8000000000
FFFF8000000000
FFFFFFFFFFFFC0
FFFFFFFFFFFFC0
FFFFFFFFFFFFC0
FFFFFFFFFFFFC0
FFFFFFFFFFFFC0
FFFFFFFFFFFFC0
FFFFFFFFFFFFC0
FFFFFFFFFFFFC0
FFFFFFFFFFFFC0
FFFFFFFFFFFFC0
FFFFFFFFFFFFC0
FFFFFFFFFFFFC0
FFFFFFFFFFFFC0
FFFFFFFFFFFFC0
FFFF8000000000
FFFF8000000000
FFFF8000000000
FFFF8000000000
FFFF8000000000
FFFF8000000000
FFFF8000000000
FFFF8000000000
FFFF8000000000
FFFF8000000000
FFFF8000000000
FFFF8000000000
FFFF8000000000
FFFFFFFFFFFFFC
FFFFFFFFFFFFFC
FFFFFFFFFFFFFC
FFFFFFFFFFFFFC
FFFFFFFFFFFFFC
FFFFFFFFFFFFFC
FFFFFFFFFFFFFC
FFFFFFFFFFFFFC
FFFFFFFFFFFFFC
FFFFFFFFFFFFFC
FFFFFFFFFFFFFC
FFFFFFFFFFFFFC
FFFFFFFFFFFFFC
FFFFFFFFFFFFFC
FFFFFFFFFFFFFC
ENDCHAR
STARTCHAR 0046
ENCODING 70
SWIDTH 591 0
DWIDTH 58 0
BBX 52 70 5 0
BITMAP
FFFFFFFFFFFFF0
FFFFFFFFFFFFF0
FFFFFFFFFFFFF0
FFFFFFFFFFFFF0
FFFFFFFFFFFFF0
FFFFFFFFFFFFF0
FFFFFFFFFFFFF0
FFFFFFFFFFFFF0
FFFFFFFFFFFFF0
FFFFFFFFFFFFF0
FFFFFFFFFFFFF0
FFFFFFFFFFFFF0
FFFFFFFFFFFFF0
FFFFFFFFFFFFF0
FFFFFFFFFFFFF0
FFFF8000000000
FFFF8000000000
FFFF8000000000
FFFF8000000000
FFFF8000000000
FFFF8000000000
FFFF8000000000
FFFF8000000000
FFFF8000000000
FFFF8000000000
FFFF8000000000
FFFF8000000000
FFFF8000000000
FFFFFFFFFFFF80
FFFFFFFFFFFF80
FFFFFFFFFFFF80
FFFFFFFFFFFF80
FFFFFFFFFFFF80
FFFFFFFFFFFF80
FFFFFFFFFFFF80
FFFFFFFFFFFF80
FFFFFFFFFFFF80
FFFFFFFFFFFF80
FFFFFFFFFFFF80
FFFFFFFFFFFF80
FFFFFFFFFFFF80
FFFFFFFFFFFF80
FFFF8000000000
FFFF8000000000
FFFF8000000000
FFFF8000000000
FFFF8000000000
FFFF8000000000
FFFF8000000000
FFFF8000000000
FFFF8000000000
FFFF8000000000
FFFF8000000000
FFFF8000000000
FFFF8000000000
FFFF8000000000
FFFF8000000000
FFFF8000000000
FFFF8000000000
FFFF8000000000
FFFF8000000000
FFFF8000000000
FFFF8000000000
FFFF8000000000
FFFF8000000000
FFFF8000000000
FFFF8000000000
FFFF8000000000
FFFF8000000000
FFFF8000000000
ENDCHAR
STARTCHAR 0047
ENCODING 71
SWIDTH 775 0
DWIDTH 76 0
BBX 70 73 2 -2
BITMAP
00000007FFE0000000
000000FFFFFE000000
000007FFFFFFC00000
00001FFFFFFFF80000
00007FFFFFFFFE0000
0001FFFFFFFFFF8000
0003FFFFFFFFFFC000
000FFFFFFFFFFFE000
001FFFFFFFFFFFF800
003FFFFFFFFFFFFC00
007FFFFFFFFFFFFC00
00FFFFFFFFFFFFFE00
01FFFFFFFFFFFFFF00
01FFFFFFFFFFFFFF80
03FFFFFFC1FFFFFF80
07FFFFF8001FFFFFC0
07FFFFE00007FFFFC0
0FFFFF800001FFFFE0
0FFFFF000000FFFFE0
1FFFFE0000007FFFF0
1FFFFC0000003FFFF0
1FFFF80000001FFFF0
3FFFF80000001FFFF8
3FFFF00000000FFFF8
3FFFF00000000FFFF8
7FFFE0000000000000
7FFFE0000000000000
7FFFE0000000000000
7FFFC0000000000000
7FFFC0000000000000
7FFFC0000000000000
7FFFC0000000000000
FFFFC00003FFFFFFFC
FFFFC00003FFFFFFFC
FFFFC00003FFFFFFFC
FFFFC00003FFFFFFFC
FFFFC00003FFFFFFFC
FFFFC00003FFFFFFFC
FFFFC00003FFFFFFFC
FFFFC00003FFFFFFFC
FFFFC00003FFFFFFFC
7FFFC00003FFFFFFFC
7FFFC00003FFFFFFFC
7FFFC00003FFFFFFFC
7FFFE00003FFFFFFFC
7FFFE000000007FFFC
7FFFE000000007FFFC
3FFFF000000007FFFC
3FFFF00000000FFFFC
3FFFF80000000FFFFC
3FFFF80000001FFFFC
1FFFFC0000001FFFFC
1FFFFE0000003FFFFC
1FFFFE0000007FFFFC
0FFFFF000000FFFFFC
0FFFFFC00001FFFFFC
07FFFFE00007FFFFFC
07FFFFF8001FFFFFFC
03FFFFFFC1FFFFFFFC
01FFFFFFFFFFFFFFFC
01FFFFFFFFFFFFFFFC
00FFFFFFFFFFFFFFFC
007FFFFFFFFFFFFFFC
003FFFFFFFFFFF7FFC
001FFFFFFFFFFE7FFC
000FFFFFFFFFFC7FFC
0007FFFFFFFFF87FFC
0001FFFFFFFFF03FFC
0000FFFFFFFFC03FFC
00003FFFFFFF803FFC
00000FFFFFFE003FFC
000001FFFFF0000000
0000000FFF00000000
ENDCHAR
STARTCHAR 0048
ENCODING 72
SWIDTH 734 0
DWIDTH 72 0
BBX 61 70 5 0
BITMAP
FFFF80000007FFF8
FFFF80000007FFF8
FFFF80000007FFF8
FFFF80000007FFF8
FFFF80000007FFF8
FFFF80000007FFF8
FFFF80000007FFF8
FFFF80000007FFF8
FFFF80000007FFF8
FFFF80000007FFF8
FFFF80000007FFF8
FFFF80000007FFF8
FFFF80000007FFF8
FFFF80000007FFF8
FFFF80000007FFF8
FFFF80000007FFF8
FFFF80000007FFF8
FFFF80000007FFF8
FFFF80000007FFF8
FFFF80000007FFF8
FFFF80000007FFF8
FFFF80000007FFF8
FFFF80000007FFF8
FFFF80000007FFF8
FFFF80000007FFF8
FFFF80000007FFF8
FFFF80000007FFF8
FFFFFFFFFFFFFFF8
FFFFFFFFFFFFFFF8
FFFFFFFFFFFFFFF8
FFFFFFFFFFFFFFF8
FFFFFFFFFFFFFFF8
FFFFFFFFFFFFFFF8
FFFFFFFFFFFFFFF8
FFFFFFFFFFFFFFF8
FFFFFFFFFFFFFFF8
FFFFFFFFFFFFFFF8
FFFFFFFFFFFFFFF8
FFFFFFFFFFFFFFF8
FFFFFFFFFFFFFFF8
FFFFFFFFFFFFFFF8
FFFFFFFFFFFFFFF8
FFFF80000007FFF8
FFFF80000007FFF8
FFFF80000007FFF8
FFFF80000007FFF8
FFFF80000007FFF8
FFFF80000007FFF8
FFFF80000007FFF8
FFFF80000007FFF8
FFFF80000007FFF8
FFFF80000007FFF8
FFFF80000007FFF8
FFFF80000007FFF8
FFFF80000007FFF8
FFFF80000007FFF8
FFFF80000007FFF8
FFFF80000007FFF8
FFFF80000007FFF8
FFFF80000007FFF8
FFFF80000007FFF8
FFFF80000007FFF8
FFFF80000007FFF8
FFFF80000007FFF8
FFFF80000007FFF8
FFFF80000007FFF8
FFFF80000007FFF8
FFFF80000007FFF8
FFFF80000007FFF8
FFFF80000007FFF8
ENDCHAR
STARTCHAR 0049
ENCODING 73
SWIDTH 275 0
DWIDTH 27 0
BBX 17 70 5 0
BITMAP
FFFF80
FFFF80
FFFF80
FFFF80
FFFF80
FFFF80
FFFF80
FFFF80
FFFF80
FFFF80
FFFF80
FFFF80
FFFF80
FFFF80
FFFF80
FFFF80
FFFF80
FFFF80
FFFF80
FFFF80
FFFF80
FFFF80
FFFF80
FFFF80
FFFF80
FFFF80
FFFF80
FFFF80
FFFF80
FFFF80
FFFF80
FFFF80
FFFF80
FFFF80
FFFF80
FFFF80
FFFF80
FFFF80
FFFF80
FFFF80
FFFF80
FFFF80
FFFF80
FFFF80
FFFF80
FFFF80
FFFF80
FFFF80
FFFF80
FFFF80
FFFF80
FFFF80
FFFF80
FFFF80
FFFF80
FFFF80
FFFF80
FFFF80
FFFF80
FFFF80
FFFF80
FFFF80
FFFF80
FFFF80
FFFF80
FFFF80
FFFF80
FFFF80
FFFF80
FFFF80
ENDCHAR
STARTCHAR 004A
ENCODING 74
SWIDTH 571 0
DWIDTH 56 0
BBX 49 72 2 -2
BITMAP
000000007FFF80
000000007FFF80
000000007FFF80
000000007FFF80
000000007FFF80
000000007FFF80
000000007FFF80
000000007FFF80
000000007FFF80
000000007FFF80
000000007FFF80
000000007FFF80
000000007FFF80
000000007FFF80
000000007FFF80
000000007FFF80
000000007FFF80
000000007FFF80
000000007FFF80
000000007FFF80
000000007FFF80
000000007FFF80
000000007FFF80
000000007FFF80
000000007FFF80
000000007FFF80
000000007FFF80
000000007FFF80
000000007FFF80
000000007FFF80
000000007FFF80
000000007FFF80
000000007FFF80
000000007FFF80
000000007FFF80
000000007FFF80
000000007FFF80
000000007FFF80
000000007FFF80
000000007FFF80
000000007FFF80
000000007FFF80
000000007FFF80
000000007FFF80
000000007FFF80
FFFF00007FFF80
FFFF00007FFF80
FFFF00007FFF80
FFFF00007FFF80
FFFF00007FFF80
FFFF00007FFF80
FFFF00007FFF80
FFFF0000FFFF80
FFFF8000FFFF80
7FFF8000FFFF80
7FFFC001FFFF80
7FFFE003FFFF00
7FFFF80FFFFF00
3FFFFFFFFFFF00
3FFFFFFFFFFE00
1FFFFFFFFFFE00
1FFFFFFFFFFC00
0FFFFFFFFFFC00
0FFFFFFFFFF800
07FFFFFFFFF000
03FFFFFFFFE000
01FFFFFFFFC000
007FFFFFFF8000
003FFFFFFE0000
000FFFFFF80000
0003FFFFE00000
00003FFE000000
ENDCHAR
STARTCHAR 004B
ENCODING 75
SWIDTH 724 0
DWIDTH 71 0
BBX 66 70 5 0
BITMAP
FFFF80000007FFFF80
FFFF8000000FFFFF00
FFFF8000001FFFFF00
FFFF8000003FFFFE00
FFFF8000007FFFFC00
FFFF8000007FFFF800
FFFF800000FFFFF000
FFFF800001FFFFE000
FFFF800003FFFFC000
FFFF800007FFFF8000
FFFF80000FFFFF0000
FFFF80001FFFFE0000
FFFF80003FFFFC0000
FFFF80007FFFF80000
FFFF8000FFFFF00000
FFFF8001FFFFE00000
FFFF8003FFFFC00000
FFFF8007FFFF800000
FFFF800FFFFF000000
FFFF801FFFFE000000
FFFF803FFFFC000000
FFFF807FFFF8000000
FFFF80FFFFF0000000
FFFF81FFFFE0000000
FFFF83FFFFC0000000
FFFF87FFFF80000000
FFFF8FFFFF00000000
FFFF8FFFFE00000000
FFFF9FFFFC00000000
FFFFBFFFFE00000000
FFFFFFFFFE00000000
FFFFFFFFFF00000000
FFFFFFFFFF80000000
FFFFFFFFFF80000000
FFFFFFFFFFC0000000
FFFFFFFFFFE0000000
FFFFFFFFFFE0000000
FFFFFFFFFFF0000000
FFFFFFFFFFF8000000
FFFFFFFFFFF8000000
FFFFFF9FFFFC000000
FFFFFF1FFFFE000000
FFFFFE0FFFFE000000
FFFFFC07FFFF000000
FFFFF807FFFF800000
FFFFF003FFFF800000
FFFFE001FFFFC00000
FFFFC001FFFFE00000
FFFF8000FFFFE00000
FFFF80007FFFF00000
FFFF80007FFFF80000
FFFF80003FFFF80000
FFFF80001FFFFC0000
FFFF80001FFFFE0000
FFFF80000FFFFE0000
FFFF800007FFFF0000
FFFF800007FFFF8000
FFFF800003FFFF8000
FFFF800001FFFFC000
FFFF800001FFFFE000
FFFF800000FFFFF000
FFFF8000007FFFF000
FFFF8000007FFFF800
FFFF8000003FFFFC00
FFFF8000001FFFFC00
FFFF8000001FFFFE00
FFFF8000000FFFFF00
FFFF80000007FFFF00
FFFF80000007FFFF80
FFFF80000003FFFFC0
ENDCHAR
STARTCHAR 004C
ENCODING 76
SWIDTH 561 0
DWIDTH 55 0
BBX 49 70 5 0
BITMAP
FFFF8000000000
FFFF8000000000
FFFF8000000000
FFFF8000000000
FFFF8000000000
FFFF8000000000
FFFF8000000000
FFFF8000000000
FFFF8000000000
FFFF8000000000
FFFF8000000000
FFFF8000000000
FFFF8000000000
FFFF8000000000
FFFF8000000000
FFFF8000000000
FFFF8000000000
FFFF8000000000
FFFF8000000000
FFFF8000000000
FFFF8000000000
FFFF8000000000
FFFF8000000000
FFFF8000000000
FFFF8000000000
FFFF8000000000
FFFF8000000000
FFFF8000000000
FFFF8000000000
FFFF8000000000
FFFF8000000000
FFFF8000000000
FFFF8000000000
FFFF8000000000
FFFF8000000000
FFFF8000000000
FFFF8000000000
FFFF8000000000
FFFF8000000000
FFFF8000000000
FFFF8000000000
FFFF8000000000
FFFF8000000000
FFFF8000000000
FFFF8000000000
FFFF8000000000
FFFF8000000000
FFFF8000000000
FFFF8000000000
FFFF8000000000
FFFF8000000000
FFFF8000000000
FFFF8000000000
FFFF8000000000
FFFF8000000000
FFFFFFFFFFFF80
FFFFFFFFFFFF80
FFFFFFFFFFFF80
FFFFFFFFFFFF80
FFFFFFFFFFFF80
FFFFFFFFFFFF80
FFFFFFFFFFFF80
FFFFFFFFFFFF80
FFFFFFFFFFFF80
FFFFFFFFFFFF80
FFFFFFFFFFFF80
FFFFFFFFFFFF80
FFFFFFFFFFFF80
FFFFFFFFFFFF80
FFFFFFFFFFFF80
ENDCHAR
STARTCHAR 004D
ENCODING 77
SWIDTH 897 0
DWIDTH 88 0
BBX 78 70 5 0
BITMAP
FFFFFF80000007FFFFFC
FFFFFFC000000FFFFFFC
FFFFFFC000000FFFFFFC
FFFFFFC000000FFFFFFC
FFFFFFC000000FFFFFFC
FFFFFFE000001FFFFFFC
FFFFFFE000001FFFFFFC
FFFFFFE000001FFFFFFC
FFFFFFF000003FFFFFFC
FFFFFFF000003FFFFFFC
FFFFFFF000003FFFFFFC
FFFFFFF800007FFFFFFC
FFFFFFF800007FFFFFFC
FFFFFFF800007FFFFFFC
FFFFFFFC0000FFFFFFFC
FFFFFFFC0000FFFFFFFC
FFFFFFFC0000FFFFFFFC
FFFFFFFC0000FFFFFFFC
FFFFFFFE0001FFFFFFFC
FFFF7FFE0001FFFBFFFC
FFFF7FFE0001FFFBFFFC
FFFF7FFF0003FFFBFFFC
FFFF7FFF0003FFFBFFFC
FFFF3FFF0003FFF3FFFC
FFFF3FFF8007FFF3FFFC
FFFF3FFF8007FFF3FFFC
FFFF1FFF8007FFE3FFFC
FFFF1FFFC00FFFE3FFFC
FFFF1FFFC00FFFE3FFFC
FFFF0FFFC00FFFC3FFFC
FFFF0FFFC00FFFC3FFFC
FFFF0FFFE01FFFC3FFFC
FFFF0FFFE01FFFC3FFFC
FFFF07FFE01FFF83FFFC
FFFF07FFF03FFF83FFFC
FFFF07FFF03FFF83FFFC
FFFF03FFF03FFF03FFFC
FFFF03FFF03FFF03FFFC
FFFF03FFF87FFF03FFFC
FFFF01FFF87FFE03FFFC
FFFF01FFF87FFE03FFFC
FFFF01FFFC7FFE03FFFC
FFFF00FFFCFFFC03FFFC
FFFF00FFFCFFFC03FFFC
FFFF00FFFCFFFC03FFFC
FFFF007FFEFFF803FFFC
FFFF007FFFFFF803FFFC
FFFF007FFFFFF803FFFC
FFFF007FFFFFF803FFFC
FFFF003FFFFFF003FFFC
FFFF003FFFFFF003FFFC
FFFF003FFFFFF003FFFC
FFFF001FFFFFE003FFFC
FFFF001FFFFFE003FFFC
FFFF001FFFFFE003FFFC
FFFF000FFFFFC003FFFC
FFFF000FFFFFC003FFFC
FFFF000FFFFFC003FFFC
FFFF0007FFFF8003FFFC
FFFF0007FFFF8003FFFC
FFFF0007FFFF8003FFFC
FFFF0003FFFF0003FFFC
FFFF0003FFFF0003FFFC
FFFF0003FFFF0003FFFC
FFFF0003FFFE0003FFFC
FFFF0001FFFE0003FFFC
FFFF0001FFFE0003FFFC
FFFF0001FFFE0003FFFC
FFFF0000FFFC0003FFFC
FFFF0000FFFC0003FFFC
ENDCHAR
STARTCHAR 004E
ENCODING 78
SWIDTH 734 0
DWIDTH 72 0
BBX 61 70 5 0
BITMAP
FFFFC0000003FFF8
FFFFE0000003FFF8
FFFFF0000003FFF8
FFFFF0000003FFF8
FFFFF8000003FFF8
FFFFF8000003FFF8
FFFFFC000003FFF8
FFFFFE000003FFF8
FFFFFE000003FFF8
FFFFFF000003FFF8
FFFFFF800003FFF8
FFFFFF800003FFF8
FFFFFFC00003FFF8
FFFFFFC00003FFF8
FFFFFFE00003FFF8
FFFFFFF00003FFF8
FFFFFFF00003FFF8
FFFFFFF80003FFF8
FFFFFFF80003FFF8
FFFFFFFC0003FFF8
FFFFFFFE0003FFF8
FFFFFFFE0003FFF8
FFFFFFFF0003FFF8
FFFFFFFF0003FFF8
FFFFFFFF8003FFF8
FFFF7FFFC003FFF8
FFFF7FFFC003FFF8
FFFF3FFFE003FFF8
FFFF1FFFF003FFF8
FFFF1FFFF003FFF8
FFFF0FFFF803FFF8
FFFF0FFFF803FFF8
FFFF07FFFC03FFF8
FFFF07FFFE03FFF8
FFFF03FFFE03FFF8
FFFF01FFFF03FFF8
FFFF01FFFF03FFF8
FFFF00FFFF83FFF8
FFFF00FFFF83FFF8
FFFF007FFFC3FFF8
FFFF003FFFC3FFF8
FFFF003FFFE3FFF8
FFFF001FFFF3FFF8
FFFF001FFFF3FFF8
FFFF000FFFFBFFF8
FFFF0007FFFBFFF8
FFFF0007FFFFFFF8
FFFF0003FFFFFFF8
FFFF0003FFFFFFF8
FFFF0001FFFFFFF8
FFFF0000FFFFFFF8
FFFF0000FFFFFFF8
FFFF00007FFFFFF8
FFFF00003FFFFFF8
FFFF00003FFFFFF8
FFFF00001FFFFFF8
FFFF00001FFFFFF8
FFFF00000FFFFFF8
FFFF000007FFFFF8
FFFF000007FFFFF8
FFFF000003FFFFF8
FFFF000003FFFFF8
FFFF000001FFFFF8
FFFF000000FFFFF8
FFFF000000FFFFF8
FFFF0000007FFFF8
FFFF0000007FFFF8
FFFF0000003FFFF8
FFFF0000001FFFF8
FFFF0000001FFFF8
ENDCHAR
STARTCHAR 004F
ENCODING 79
SWIDTH 775 0
DWIDTH 76 0
BBX 72 73 2 -2
BITMAP
00000007FFE0000000
0000007FFFFE000000
000003FFFFFFC00000
00001FFFFFFFF80000
00007FFFFFFFFE0000
0000FFFFFFFFFF0000
0003FFFFFFFFFFC000
0007FFFFFFFFFFE000
000FFFFFFFFFFFF000
001FFFFFFFFFFFFC00
003FFFFFFFFFFFFC00
007FFFFFFFFFFFFE00
00FFFFFFFFFFFFFF00
01FFFFFFFFFFFFFF80
03FFFFFFE7FFFFFFC0
03FFFFFC001FFFFFC0
07FFFFE00007FFFFE0
07FFFFC00001FFFFE0
0FFFFF000000FFFFF0
0FFFFE0000007FFFF0
1FFFFC0000003FFFF8
1FFFFC0000001FFFF8
1FFFF80000001FFFFC
3FFFF00000000FFFFC
3FFFF00000000FFFFC
3FFFF000000007FFFE
7FFFE000000007FFFE
7FFFE000000007FFFE
7FFFE000000003FFFE
7FFFC000000003FFFE
7FFFC000000003FFFF
7FFFC000000003FFFF
FFFFC000000003FFFF
FFFFC000000001FFFF
FFFFC000000001FFFF
FFFFC000000001FFFF
FFFFC000000001FFFF
FFFFC000000001FFFF
FFFFC000000001FFFF
FFFFC000000001FFFF
FFFFC000000003FFFF
7FFFC000000003FFFF
7FFFC000000003FFFF
7FFFC000000003FFFE
7FFFE000000003FFFE
7FFFE000000007FFFE
7FFFE000000007FFFE
3FFFF000000007FFFE
3FFFF00000000FFFFC
3FFFF00000000FFFFC
1FFFF80000001FFFFC
1FFFFC0000001FFFF8
1FFFFC0000003FFFF8
0FFFFE0000007FFFF0
0FFFFF000000FFFFF0
07FFFFC00003FFFFF0
07FFFFE00007FFFFE0
03FFFFF8001FFFFFC0
03FFFFFFE7FFFFFFC0
01FFFFFFFFFFFFFF80
00FFFFFFFFFFFFFF00
007FFFFFFFFFFFFE00
003FFFFFFFFFFFFE00
001FFFFFFFFFFFFC00
000FFFFFFFFFFFF000
0007FFFFFFFFFFE000
0003FFFFFFFFFFC000
0000FFFFFFFFFF0000
00007FFFFFFFFE0000
00001FFFFFFFF80000
000003FFFFFFE00000
0000007FFFFF000000
00000003FFE0000000
ENDCHAR
STARTCHAR 0050
ENCODING 80
SWIDTH 663 0
DWIDTH 65 0
BBX 58 70 5 0
BITMAP
FFFFFFFFFC000000
FFFFFFFFFFC00000
FFFFFFFFFFF80000
FFFFFFFFFFFE0000
FFFFFFFFFFFF8000
FFFFFFFFFFFFC000
FFFFFFFFFFFFE000
FFFFFFFFFFFFF000
FFFFFFFFFFFFF800
FFFFFFFFFFFFFC00
FFFFFFFFFFFFFC00
FFFFFFFFFFFFFE00
FFFFFFFFFFFFFF00
FFFFFFFFFFFFFF00
FFFF80001FFFFF00
FFFF800007FFFF80
FFFF800001FFFF80
FFFF800001FFFF80
FFFF800000FFFF80
FFFF8000007FFFC0
FFFF8000007FFFC0
FFFF8000007FFFC0
FFFF8000007FFFC0
FFFF8000007FFFC0
FFFF8000007FFFC0
FFFF8000007FFFC0
FFFF8000007FFFC0
FFFF8000007FFFC0
FFFF800000FFFF80
FFFF800001FFFF80
FFFF800001FFFF80
FFFF800007FFFF80
FFFF80001FFFFF00
FFFFFFFFFFFFFF00
FFFFFFFFFFFFFE00
FFFFFFFFFFFFFE00
FFFFFFFFFFFFFC00
FFFFFFFFFFFFFC00
FFFFFFFFFFFFF800
FFFFFFFFFFFFF000
FFFFFFFFFFFFE000
FFFFFFFFFFFFC000
FFFFFFFFFFFF8000
FFFFFFFFFFFE0000
FFFFFFFFFFF80000
FFFFFFFFFFE00000
FFFFFFFFFC000000
FFFF800000000000
FFFF800000000000
FFFF800000000000
FFFF800000000000
FFFF800000000000
FFFF800000000000
FFFF800000000000
FFFF800000000000
FFFF800000000000
FFFF800000000000
FFFF800000000000
FFFF800000000000
FFFF800000000000
FFFF800000000000
FFFF800000000000
FFFF800000000000
FFFF800000000000
FFFF800000000000
FFFF800000000000
FFFF800000000000
FFFF800000000000
FFFF800000000000
FFFF800000000000
ENDCHAR
STARTCHAR 0051
ENCODING 81
SWIDTH 775 0
DWIDTH 76 0
BBX 72 79 2 -8
BITMAP
00000007FFE0000000
0000007FFFFE000000
000003FFFFFFC00000
00001FFFFFFFF80000
00007FFFFFFFFE0000
0000FFFFFFFFFF0000
0003FFFFFFFFFFC000
0007FFFFFFFFFFE000
000FFFFFFFFFFFF000
001FFFFFFFFFFFF800
003FFFFFFFFFFFFC00
007FFFFFFFFFFFFE00
00FFFFFFFFFFFFFF00
01FFFFFFFFFFFFFF80
03FFFFFFE7FFFFFFC0
03FFFFFC001FFFFFC0
07FFFFE00007FFFFE0
07FFFFC00001FFFFE0
0FFFFF000000FFFFF0
0FFFFE0000007FFFF0
1FFFFE0000003FFFF8
1FFFFC0000001FFFF8
1FFFF80000001FFFFC
3FFFF80000000FFFFC
3FFFF00000000FFFFC
3FFFF000000007FFFE
7FFFE000000007FFFE
7FFFE000000007FFFE
7FFFE000000003FFFE
7FFFC000000003FFFE
7FFFC000000003FFFE
7FFFC000000003FFFF
FFFFC000000003FFFF
FFFFC000000001FFFF
FFFFC000000001FFFF
FFFFC000000001FFFF
FFFFC000000001FFFF
FFFFC000000001FFFF
FFFFC000000001FFFF
FFFFC000000001FFFF
FFFFC000000001FFFF
7FFFC000000003FFFF
7FFFC000001003FFFF
7FFFC000003803FFFE
7FFFC000007C03FFFE
7FFFE00000FE03FFFE
7FFFE00001FF07FFFE
3FFFE00003FF87FFFE
3FFFF00007FFCFFFFC
3FFFF0000FFFEFFFFC
3FFFF8000FFFFFFFFC
1FFFFC0007FFFFFFF8
1FFFFC0003FFFFFFF8
0FFFFE0001FFFFFFF0
0FFFFF0000FFFFFFF0
07FFFFC0007FFFFFF0
07FFFFE0003FFFFFE0
03FFFFF8001FFFFFC0
03FFFFFFE7FFFFFFC0
01FFFFFFFFFFFFFF80
00FFFFFFFFFFFFFF00
007FFFFFFFFFFFFE00
003FFFFFFFFFFFFE00
001FFFFFFFFFFFFE00
000FFFFFFFFFFFFF00
0007FFFFFFFFFFFF80
0003FFFFFFFFFFFFC0
0000FFFFFFFFFFFFE0
00007FFFFFFFFFFFF0
00001FFFFFFFFBFFF8
000003FFFFFFE1FFFC
0000007FFFFE00FFFC
00000003FFE000FFF8
000000000000007FF0
000000000000003FE0
000000000000001FC0
000000000000000F80
000000000000000700
000000000000000200
ENDCHAR
STARTCHAR 0052
ENCODING 82
SWIDTH 673 0
DWIDTH 66 0
BBX 59 70 5 0
BITMAP
FFFFFFFFFF000000
FFFFFFFFFFF00000
FFFFFFFFFFFE0000
FFFFFFFFFFFF8000
FFFFFFFFFFFFE000
FFFFFFFFFFFFF000
FFFFFFFFFFFFF800
FFFFFFFFFFFFFC00
FFFFFFFFFFFFFE00
FFFFFFFFFFFFFF00
FFFFFFFFFFFFFF00
FFFFFFFFFFFFFF80
FFFFFFFFFFFFFF80
FFFF80003FFFFFC0
FFFF800007FFFFC0
FFFF800001FFFFC0
FFFF800000FFFFC0
FFFF800000FFFFC0
FFFF8000007FFFE0
FFFF8000007FFFE0
FFFF8000007FFFE0
FFFF8000003FFFE0
FFFF8000003FFFC0
FFFF8000007FFFC0
FFFF8000007FFFC0
FFFF8000007FFFC0
FFFF8000007FFFC0
FFFF800000FFFF80
FFFF800000FFFF80
FFFF800003FFFF00
FFFF800007FFFE00
FFFF8000FFFFFE00
FFFFFFFFFFFFFC00
FFFFFFFFFFFFF800
FFFFFFFFFFFFE000
FFFFFFFFFFFFC000
FFFFFFFFFFFF0000
FFFFFFFFFFFF8000
FFFFFFFFFFFFE000
FFFFFFFFFFFFF800
FFFFFFFFFFFFFC00
FFFFFFFFFFFFFC00
FFFFFFFFFFFFFE00
FFFFFFFFFFFFFF00
FFFF80001FFFFF00
FFFF800007FFFF00
FFFF800003FFFF80
FFFF800001FFFF80
FFFF800000FFFF80
FFFF800000FFFF80
FFFF800000FFFF80
FFFF800000FFFF80
FFFF800000FFFF80
FFFF8000007FFF80
FFFF8000007FFF80
FFFF8000007FFF80
FFFF8000007FFF80
FFFF8000007FFF80
FFFF8000007FFFC0
FFFF8000007FFFC0
FFFF8000007FFFC0
FFFF8000007FFFC0
FFFF8000007FFFC0
FFFF8000007FFFC0
FFFF8000007FFFC0
FFFF8000007FFFC0
FFFF8000007FFFC0
FFFF8000003FFFE0
FFFF8000003FFFE0
FFFF8000003FFFE0
ENDCHAR
STARTCHAR 0053
ENCODING 83
SWIDTH 653 0
DWIDTH 64 0
BBX 60 73 2 -2
BITMAP
000003FFF0000000
00007FFFFF800000
0003FFFFFFF00000
000FFFFFFFFC0000
003FFFFFFFFF0000
007FFFFFFFFF8000
01FFFFFFFFFFE000
03FFFFFFFFFFF000
07FFFFFFFFFFF800
07FFFFFFFFFFF800
0FFFFFFFFFFFFC00
1FFFFFFFFFFFFE00
1FFFFFFFFFFFFE00
1FFFFF003FFFFF00
3FFFF80007FFFF00
3FFFF00001FFFF00
3FFFE00000FFFF80
3FFFE000007FFF80
7FFFC000007FFF80
7FFFC000007FFF80
7FFFC000003FFF80
7FFFC000003FFFC0
7FFFE000003FFFC0
7FFFE00000000000
3FFFF00000000000
3FFFF80000000000
3FFFFE0000000000
3FFFFF8000000000
1FFFFFFC00000000
1FFFFFFFE0000000
0FFFFFFFFF000000
0FFFFFFFFFF00000
07FFFFFFFFFE0000
03FFFFFFFFFF8000
03FFFFFFFFFFE000
00FFFFFFFFFFF000
007FFFFFFFFFFC00
003FFFFFFFFFFE00
000FFFFFFFFFFF00
0003FFFFFFFFFF80
0000FFFFFFFFFF80
00000FFFFFFFFFC0
000000FFFFFFFFC0
00000007FFFFFFE0
000000003FFFFFE0
0000000003FFFFE0
0000000000FFFFF0
00000000007FFFF0
FFFF0000003FFFF0
FFFF0000003FFFF0
FFFF0000001FFFF0
FFFF0000001FFFF0
FFFF0000001FFFF0
FFFF8000001FFFF0
FFFF8000003FFFF0
7FFFC000003FFFF0
7FFFE000007FFFE0
7FFFF00000FFFFE0
3FFFF80001FFFFE0
3FFFFF800FFFFFC0
1FFFFFFFFFFFFFC0
1FFFFFFFFFFFFF80
0FFFFFFFFFFFFF80
07FFFFFFFFFFFF00
03FFFFFFFFFFFE00
01FFFFFFFFFFFC00
00FFFFFFFFFFF800
007FFFFFFFFFF000
001FFFFFFFFFC000
000FFFFFFFFF8000
0001FFFFFFFC0000
00003FFFFFE00000
000001FFFC000000
ENDCHAR
STARTCHAR 0054
ENCODING 84
SWIDTH 632 0
DWIDTH 62 0
BBX 60 70 1 0
BITMAP
FFFFFFFFFFFFFFF0
FFFFFFFFFFFFFFF0
FFFFFFFFFFFFFFF0
FFFFFFFFFFFFFFF0
FFFFFFFFFFFFFFF0
FFFFFFFFFFFFFFF0
FFFFFFFFFFFFFFF0
FFFFFFFFFFFFFFF0
FFFFFFFFFFFFFFF0
FFFFFFFFFFFFFFF0
FFFFFFFFFFFFFFF0
FFFFFFFFFFFFFFF0
FFFFFFFFFFFFFFF0
FFFFFFFFFFFFFFF0
FFFFFFFFFFFFFFF0
000003FFFC000000
000003FFFC000000
000003FFFC000000
000003FFFC000000
000003FFFC000000
000003FFFC000000
000003FFFC000000
000003FFFC000000
000003FFFC000000
000003FFFC000000
000003FFFC000000
000003FFFC000000
000003FFFC000000
000003FFFC000000
000003FFFC000000
000003FFFC000000
000003FFFC000000
000003FFFC000000
000003FFFC000000
000003FFFC000000
000003FFFC000000
000003FFFC000000
000003FFFC000000
000003FFFC000000
000003FFFC000000
000003FFFC000000
000003FFFC000000
000003FFFC000000
000003FFFC000000
000003FFFC000000
000003FFFC000000
000003FFFC000000
000003FFFC000000
000003FFFC000000
000003FFFC000000
000003FFFC000000
000003FFFC000000
000003FFFC000000
000003FFFC000000
000003FFFC000000
000003FFFC000000
000003FFFC000000
000003FFFC000000
000003FFFC000000
000003FFFC000000
000003FFFC000000
000003FFFC000000
000003FFFC000000
000003FFFC000000
000003FFFC000000
000003FFFC000000
000003FFFC000000
000003FFFC000000
000003FFFC000000
000003FFFC000000
ENDCHAR
STARTCHAR 0055
ENCODING 85
SWIDTH 704 0
DWIDTH 69 0
BBX 61 72 4 -2
BITMAP
FFFF8000000FFFF8
FFFF8000000FFFF8
FFFF8000000FFFF8
FFFF8000000FFFF8
FFFF8000000FFFF8
FFFF8000000FFFF8
FFFF8000000FFFF8
FFFF8000000FFFF8
FFFF8000000FFFF8
FFFF8000000FFFF8
FFFF8000000FFFF8
FFFF8000000FFFF8
FFFF8000000FFFF8
FFFF8000000FFFF8
FFFF8000000FFFF8
FFFF8000000FFFF8
FFFF8000000FFFF8
FFFF8000000FFFF8
FFFF8000000FFFF8
FFFF8000000FFFF8
FFFF8000000FFFF8
FFFF8000000FFFF8
FFFF8000000FFFF8
FFFF8000000FFFF8
FFFF8000000FFFF8
FFFF8000000FFFF8
FFFF8000000FFFF8
FFFF8000000FFFF8
FFFF8000000FFFF8
FFFF8000000FFFF8
FFFF8000000FFFF8
FFFF8000000FFFF8
FFFF8000000FFFF8
FFFF8000000FFFF8
FFFF8000000FFFF8
FFFF8000000FFFF8
FFFF8000000FFFF8
FFFF8000000FFFF8
FFFF8000000FFFF8
FFFF8000000FFFF8
FFFF8000000FFFF8
FFFF8000000FFFF8
FFFF8000000FFFF8
FFFF8000000FFFF8
FFFF8000000FFFF8
FFFF8000000FFFF8
FFFF8000000FFFF8
FFFF8000000FFFF8
7FFF8000000FFFF8
7FFFC000000FFFF8
7FFFC000001FFFF0
7FFFC000001FFFF0
7FFFE000003FFFF0
3FFFF000007FFFF0
3FFFF80000FFFFE0
3FFFFC0001FFFFE0
1FFFFF0007FFFFE0
1FFFFFF07FFFFFC0
0FFFFFFFFFFFFFC0
0FFFFFFFFFFFFF80
07FFFFFFFFFFFF00
03FFFFFFFFFFFF00
01FFFFFFFFFFFE00
01FFFFFFFFFFFC00
00FFFFFFFFFFF800
003FFFFFFFFFF000
001FFFFFFFFFE000
000FFFFFFFFF8000
0003FFFFFFFE0000
00007FFFFFF80000
00001FFFFFC00000
000000FFFC000000
ENDCHAR
STARTCHAR 0056
ENCODING 86
SWIDTH 704 0
DWIDTH 69 0
BBX 69 70 0 0
BITMAP
FFFFC00000000FFFF8
7FFFC00000000FFFF8
7FFFE00000001FFFF0
7FFFE00000001FFFF0
3FFFE00000001FFFF0
3FFFF00000003FFFE0
3FFFF00000003FFFE0
1FFFF00000003FFFE0
1FFFF80000007FFFC0
1FFFF80000007FFFC0
0FFFF80000007FFFC0
0FFFFC000000FFFF80
0FFFFC000000FFFF80
07FFFC000000FFFF00
07FFFE000001FFFF00
03FFFE000001FFFF00
03FFFE000001FFFE00
03FFFF000003FFFE00
01FFFF000003FFFE00
01FFFF000003FFFC00
01FFFF800007FFFC00
00FFFF800007FFFC00
00FFFF800007FFF800
00FFFFC0000FFFF800
007FFFC0000FFFF800
007FFFC0000FFFF000
003FFFE0001FFFF000
003FFFE0001FFFF000
003FFFE0001FFFE000
001FFFF0003FFFE000
001FFFF0003FFFE000
001FFFF0003FFFC000
000FFFF0007FFFC000
000FFFF8007FFFC000
000FFFF8007FFF8000
0007FFF8007FFF8000
0007FFFC00FFFF0000
0007FFFC00FFFF0000
0003FFFC00FFFF0000
0003FFFE01FFFE0000
0001FFFE01FFFE0000
0001FFFE01FFFE0000
0001FFFF03FFFC0000
0000FFFF03FFFC0000
0000FFFF03FFFC0000
0000FFFF03FFF80000
00007FFF87FFF80000
00007FFF87FFF80000
00007FFF87FFF00000
00003FFFC7FFF00000
00003FFFCFFFF00000
00001FFFCFFFE00000
00001FFFCFFFE00000
00001FFFEFFFE00000
00000FFFFFFFC00000
00000FFFFFFFC00000
00000FFFFFFF800000
000007FFFFFF800000
000007FFFFFF800000
000007FFFFFF000000
000003FFFFFF000000
000003FFFFFF000000
000003FFFFFE000000
000001FFFFFE000000
000001FFFFFE000000
000000FFFFFC000000
000000FFFFFC000000
000000FFFFFC000000
0000007FFFF8000000
0000007FFFF8000000
ENDCHAR
STARTCHAR 0057
ENCODING 87
SWIDTH 989 0
DWIDTH 97 0
BBX 97 70 0 0
BITMAP
FFFF800000FFFF800000FFFF80
FFFFC00000FFFF800000FFFF80
7FFFC00000FFFFC00001FFFF80
7FFFC00000FFFFC00001FFFF00
7FFFC00001FFFFC00001FFFF00
7FFFE00001FFFFC00001FFFF00
3FFFE00001FFFFC00003FFFF00
3FFFE00001FFFFE00003FFFE00
3FFFE00003FFFFE00003FFFE00
1FFFF00003FFFFE00003FFFE00
1FFFF00003FFFFE00007FFFC00
1FFFF00003FFFFF00007FFFC00
1FFFF00007FFFFF00007FFFC00
0FFFF80007FFFFF00007FFFC00
0FFFF80007FFFFF00007FFF800
0FFFF80007FFFFF8000FFFF800
0FFFF80007FFFFF8000FFFF800
07FFFC000FFFFFF8000FFFF800
07FFFC000FFFFFF8000FFFF000
07FFFC000FFFFFF8001FFFF000
03FFFC000FFFFFFC001FFFF000
03FFFE001FFF7FFC001FFFE000
03FFFE001FFF7FFC001FFFE000
03FFFE001FFF7FFC003FFFE000
01FFFE001FFF7FFE003FFFE000
01FFFE003FFF3FFE003FFFC000
01FFFF003FFE3FFE003FFFC000
01FFFF003FFE3FFE007FFFC000
00FFFF003FFE3FFF007FFFC000
00FFFF003FFE3FFF007FFF8000
00FFFF807FFE1FFF007FFF8000
007FFF807FFC1FFF00FFFF8000
007FFF807FFC1FFF00FFFF0000
007FFF807FFC1FFF80FFFF0000
007FFFC07FFC1FFF80FFFF0000
003FFFC0FFFC0FFF80FFFF0000
003FFFC0FFF80FFF81FFFE0000
003FFFC0FFF80FFF81FFFE0000
003FFFE0FFF80FFFC1FFFE0000
001FFFE0FFF807FFC1FFFE0000
001FFFE1FFF807FFC3FFFC0000
001FFFE1FFF007FFC3FFFC0000
000FFFE1FFF007FFC3FFFC0000
000FFFF1FFF007FFE3FFF80000
000FFFF1FFF003FFE3FFF80000
000FFFF3FFE003FFE7FFF80000
0007FFF3FFE003FFE7FFF80000
0007FFF3FFE003FFE7FFF00000
0007FFFBFFE001FFE7FFF00000
0003FFFBFFC001FFFFFFF00000
0003FFFFFFC001FFFFFFF00000
0003FFFFFFC001FFFFFFE00000
0003FFFFFFC000FFFFFFE00000
0001FFFFFFC000FFFFFFE00000
0001FFFFFF8000FFFFFFC00000
0001FFFFFF8000FFFFFFC00000
0001FFFFFF80007FFFFFC00000
0000FFFFFF80007FFFFFC00000
0000FFFFFF00007FFFFF800000
0000FFFFFF00007FFFFF800000
00007FFFFF00007FFFFF800000
00007FFFFF00003FFFFF800000
00007FFFFE00003FFFFF000000
00007FFFFE00003FFFFF000000
00003FFFFE00003FFFFF000000
00003FFFFE00001FFFFE000000
00003FFFFC00001FFFFE000000
00003FFFFC00001FFFFE000000
00001FFFFC00001FFFFE000000
00001FFFFC00000FFFFC000000
ENDCHAR
STARTCHAR 0058
ENCODING 88
SWIDTH 693 0
DWIDTH 68 0
BBX 67 70 0 0
BITMAP
3FFFF8000001FFFFC0
3FFFFC000001FFFF80
1FFFFC000003FFFF00
0FFFFE000007FFFF00
0FFFFE000007FFFE00
07FFFF00000FFFFC00
03FFFF80001FFFFC00
03FFFF80001FFFF800
01FFFFC0003FFFF000
00FFFFE0007FFFF000
00FFFFE0007FFFE000
007FFFF000FFFFC000
003FFFF801FFFFC000
003FFFF801FFFF8000
001FFFFC03FFFF0000
000FFFFC07FFFF0000
000FFFFE07FFFE0000
0007FFFF0FFFFC0000
0003FFFF0FFFFC0000
0003FFFF9FFFF80000
0001FFFFFFFFF00000
0000FFFFFFFFF00000
0000FFFFFFFFE00000
00007FFFFFFFC00000
00003FFFFFFFC00000
00003FFFFFFF800000
00001FFFFFFF000000
00000FFFFFFF000000
00000FFFFFFE000000
000007FFFFFC000000
000003FFFFFC000000
000003FFFFF8000000
000001FFFFF0000000
000000FFFFF0000000
000000FFFFF0000000
000001FFFFF0000000
000001FFFFF8000000
000003FFFFFC000000
000007FFFFFC000000
000007FFFFFE000000
00000FFFFFFF000000
00001FFFFFFF000000
00001FFFFFFF800000
00003FFFFFFFC00000
00007FFFFFFFC00000
00007FFFFFFFE00000
0000FFFFFFFFF00000
0001FFFFBFFFF00000
0001FFFFBFFFF80000
0003FFFF1FFFFC0000
0007FFFF0FFFFC0000
0007FFFE0FFFFE0000
000FFFFC07FFFF0000
001FFFFC07FFFF0000
001FFFF803FFFF8000
003FFFF001FFFFC000
007FFFF001FFFFC000
00FFFFE000FFFFE000
00FFFFC0007FFFF000
01FFFFC0007FFFF000
03FFFF80003FFFF800
03FFFF00001FFFFC00
07FFFF00001FFFFC00
0FFFFE00000FFFFE00
0FFFFC000007FFFF00
1FFFFC000007FFFF00
3FFFF8000003FFFF80
3FFFF0000001FFFFC0
7FFFF0000001FFFFE0
FFFFE0000000FFFFE0
ENDCHAR
STARTCHAR 0059
ENCODING 89
SWIDTH 704 0
DWIDTH 69 0
BBX 68 70 0 0
BITMAP
FFFFE00000003FFFF0
7FFFF00000007FFFF0
3FFFF00000007FFFE0
3FFFF8000000FFFFC0
1FFFF8000000FFFFC0
1FFFFC000001FFFF80
0FFFFE000001FFFF80
07FFFE000003FFFF00
07FFFF000007FFFE00
03FFFF000007FFFE00
03FFFF80000FFFFC00
01FFFFC0000FFFFC00
00FFFFC0001FFFF800
00FFFFE0003FFFF000
007FFFE0003FFFF000
007FFFF0007FFFE000
003FFFF0007FFFE000
001FFFF800FFFFC000
001FFFFC00FFFF8000
000FFFFC01FFFF8000
0007FFFE01FFFF0000
0007FFFE03FFFF0000
0003FFFF07FFFE0000
0003FFFF07FFFC0000
0001FFFF8FFFFC0000
0000FFFFCFFFF80000
0000FFFFDFFFF80000
00007FFFFFFFF00000
00007FFFFFFFE00000
00003FFFFFFFE00000
00001FFFFFFFC00000
00001FFFFFFFC00000
00000FFFFFFF800000
00000FFFFFFF000000
000007FFFFFF000000
000003FFFFFE000000
000003FFFFFE000000
000001FFFFFC000000
000000FFFFF8000000
000000FFFFF8000000
0000007FFFF0000000
0000007FFFE0000000
0000003FFFE0000000
0000003FFFE0000000
0000003FFFE0000000
0000003FFFE0000000
0000003FFFE0000000
0000003FFFE0000000
0000003FFFE0000000
0000003FFFE0000000
0000003FFFE0000000
0000003FFFE0000000
0000003FFFE0000000
0000003FFFE0000000
0000003FFFE0000000
0000003FFFE0000000
0000003FFFE0000000
0000003FFFE0000000
0000003FFFE0000000
0000003FFFE0000000
0000003FFFE0000000
0000003FFFE0000000
0000003FFFE0000000
0000003FFFE0000000
0000003FFFE0000000
0000003FFFE0000000
0000003FFFE0000000
0000003FFFE0000000
0000003FFFE0000000
0000003FFFE0000000
ENDCHAR
STARTCHAR 005A
ENCODING 90
SWIDTH 642 0
DWIDTH 63 0
BBX 59 70 2 0
BITMAP
3FFFFFFFFFFFFFC0
3FFFFFFFFFFFFFC0
3FFFFFFFFFFFFFC0
3FFFFFFFFFFFFFC0
3FFFFFFFFFFFFFC0
3FFFFFFFFFFFFFC0
3FFFFFFFFFFFFFC0
3FFFFFFFFFFFFFC0
3FFFFFFFFFFFFFC0
3FFFFFFFFFFFFFC0
3FFFFFFFFFFFFFC0
3FFFFFFFFFFFFFC0
3FFFFFFFFFFFFFC0
3FFFFFFFFFFFFFC0
3FFFFFFFFFFFFF80
000000000FFFFF00
000000001FFFFE00
000000003FFFFC00
000000007FFFF800
00000000FFFFF800
00000001FFFFF000
00000001FFFFE000
00000003FFFFC000
00000007FFFF8000
0000000FFFFF0000
0000001FFFFF0000
0000003FFFFE0000
0000007FFFFC0000
0000007FFFF80000
000000FFFFF00000
000001FFFFE00000
000003FFFFC00000
000007FFFFC00000
00000FFFFF800000
00001FFFFF000000
00001FFFFE000000
00003FFFFC000000
00007FFFF8000000
0000FFFFF8000000
0001FFFFF0000000
0003FFFFE0000000
0003FFFFC0000000
0007FFFF80000000
000FFFFF00000000
001FFFFE00000000
003FFFFE00000000
007FFFFC00000000
00FFFFF800000000
00FFFFF000000000
01FFFFE000000000
03FFFFC000000000
07FFFF8000000000
0FFFFF0000000000
1FFFFF0000000000
1FFFFE0000000000
3FFFFFFFFFFFFFE0
7FFFFFFFFFFFFFE0
FFFFFFFFFFFFFFE0
FFFFFFFFFFFFFFE0
FFFFFFFFFFFFFFE0
FFFFFFFFFFFFFFE0
FFFFFFFFFFFFFFE0
FFFFFFFFFFFFFFE0
FFFFFFFFFFFFFFE0
FFFFFFFFFFFFFFE0
FFFFFFFFFFFFFFE0
FFFFFFFFFFFFFFE0
FFFFFFFFFFFFFFE0
FFFFFFFFFFFFFFE0
FFFFFFFFFFFFFFE0
ENDCHAR
STARTCHAR 005B
ENCODING 91
SWIDTH 367 0
DWIDTH 36 0
BBX 30 96 5 -19
BITMAP
FFFFFFFC
FFFFFFFC
FFFFFFFC
FFFFFFFC
FFFFFFFC
FFFFFFFC
FFFFFFFC
FFFFFFFC
FFFFFFFC
FFFFFFFC
FFFFFFFC
FFFFFFFC
FFFFFFFC
FFFE0000
FFFE0000
FFFE0000
FFFE0000
FFFE0000
FFFE0000
FFFE0000
FFFE0000
FFFE0000
FFFE0000
FFFE0000
FFFE0000
FFFE0000
FFFE0000
FFFE0000
FFFE0000
FFFE0000
FFFE0000
FFFE0000
FFFE0000
FFFE0000
FFFE0000
FFFE0000
FFFE0000
FFFE0000
FFFE0000
FFFE0000
FFFE0000
FFFE0000
FFFE0000
FFFE0000
FFFE0000
FFFE0000
FFFE0000
FFFE0000
FFFE0000
FFFE0000
FFFE0000
FFFE0000
FFFE0000
FFFE0000
FFFE0000
FFFE0000
FFFE0000
FFFE0000
FFFE0000
FFFE0000
FFFE0000
FFFE0000
FFFE0000
FFFE0000
FFFE0000
FFFE0000
FFFE0000
FFFE0000
FFFE0000
FFFE0000
FFFE0000
FFFE0000
FFFE0000
FFFE0000
FFFE0000
FFFE0000
FFFE0000
FFFE0000
FFFE0000
FFFE0000
FFFE0000
FFFE0000
FFFE0000
FFFFFFFC
FFFFFFFC
FFFFFFFC
FFFFFFFC
FFFFFFFC
FFFFFFFC
FFFFFFFC
FFFFFFFC
FFFFFFFC
FFFFFFFC
FFFFFFFC
FFFFFFFC
FFFFFFFC
ENDCHAR
STARTCHAR 005C
ENCODING 92
SWIDTH 408 0
DWIDTH 40 0
BBX 40 70 0 0
BITMAP
FFFE000000
7FFE000000
7FFF000000
7FFF000000
3FFF000000
3FFF800000
3FFF800000
1FFF800000
1FFFC00000
1FFFC00000
0FFFE00000
0FFFE00000
0FFFE00000
07FFF00000
07FFF00000
03FFF00000
03FFF80000
03FFF80000
01FFF80000
01FFFC0000
01FFFC0000
00FFFC0000
00FFFE0000
00FFFE0000
007FFF0000
007FFF0000
007FFF0000
003FFF8000
003FFF8000
001FFF8000
001FFFC000
001FFFC000
000FFFC000
000FFFE000
000FFFE000
0007FFE000
0007FFF000
0007FFF000
0003FFF800
0003FFF800
0003FFF800
0001FFFC00
0001FFFC00
0000FFFC00
0000FFFE00
0000FFFE00
00007FFE00
00007FFF00
00007FFF00
00003FFF00
00003FFF80
00003FFF80
00001FFFC0
00001FFFC0
00001FFFC0
00000FFFE0
00000FFFE0
000007FFE0
000007FFF0
000007FFF0
000003FFF0
000003FFF8
000003FFF8
000001FFF8
000001FFFC
000001FFFC
000000FFFE
000000FFFE
000000FFFE
0000007FFF
ENDCHAR
STARTCHAR 005D
ENCODING 93
SWIDTH 367 0
DWIDTH 36 0
BBX 30 96 1 -19
BITMAP
FFFFFFFC
FFFFFFFC
FFFFFFFC
FFFFFFFC
FFFFFFFC
FFFFFFFC
FFFFFFFC
FFFFFFFC
FFFFFFFC
FFFFFFFC
FFFFFFFC
FFFFFFFC
FFFFFFFC
0001FFFC
0001FFFC
0001FFFC
0001FFFC
0001FFFC
0001FFFC
0001FFFC
0001FFFC
0001FFFC
0001FFFC
0001FFFC
0001FFFC
0001FFFC
0001FFFC
0001FFFC
0001FFFC
0001FFFC
0001FFFC
0001FFFC
0001FFFC
0001FFFC
0001FFFC
0001FFFC
0001FFFC
0001FFFC
0001FFFC
0001FFFC
0001FFFC
0001FFFC
0001FFFC
0001FFFC
0001FFFC
0001FFFC
0001FFFC
0001FFFC
0001FFFC
0001FFFC
0001FFFC
0001FFFC
0001FFFC
0001FFFC
0001FFFC
0001FFFC
0001FFFC
0001FFFC
0001FFFC
0001FFFC
0001FFFC
0001FFFC
0001FFFC
0001FFFC
0001FFFC
0001FFFC
0001FFFC
0001FFFC
0001FFFC
0001FFFC
0001FFFC
0001FFFC
0001FFFC
0001FFFC
0001FFFC
0001FFFC
0001FFFC
0001FFFC
0001FFFC
0001FFFC
0001FFFC
0001FFFC
0001FFFC
FFFFFFFC
FFFFFFFC
FFFFFFFC
FFFFFFFC
FFFFFFFC
FFFFFFFC
FFFFFFFC
FFFFFFFC
FFFFFFFC
FFFFFFFC
FFFFFFFC
FFFFFFFC
FFFFFFFC
ENDCHAR
STARTCHAR 005E
ENCODING 94
SWIDTH 428 0
DWIDTH 42 0
BBX 42 28 0 42
BITMAP
0003FFF00000
0007FFF80000
0007FFF80000
000FFFFC0000
000FFFFC0000
001FFFFE0000
001FFFFE0000
003FFFFF0000
003FFFFF0000
007FFFFF8000
007FFFFF8000
00FFFFFFC000
00FFF7FFC000
01FFF3FFE000
01FFF3FFE000
03FFE1FFF000
03FFE1FFF000
07FFC0FFF800
07FFC0FFF800
0FFF807FFC00
0FFF807FFC00
1FFF807FFE00
1FFF003FFE00
3FFF003FFF00
3FFE001FFF00
7FFE001FFF80
7FFC000FFF80
FFFC000FFFC0
ENDCHAR
STARTCHAR 005F
ENCODING 95
SWIDTH 489 0
DWIDTH 48 0
BBX 48 11 0 -17
BITMAP
FFFFFFFFFFFF
FFFFFFFFFFFF
FFFFFFFFFFFF
FFFFFFFFFFFF
FFFFFFFFFFFF
FFFFFFFFFFFF
FFFFFFFFFFFF
FFFFFFFFFFFF
FFFFFFFFFFFF
FFFFFFFFFFFF
FFFFFFFFFFFF
ENDCHAR
STARTCHAR 0060
ENCODING 96
SWIDTH 397 0
DWIDTH 39 0
BBX 25 14 7 57
BITMAP
FFFF8000
7FFFC000
3FFFC000
1FFFE000
0FFFE000
07FFF000
03FFF800
01FFF800
00FFFC00
007FFC00
003FFE00
001FFF00
000FFF00
000FFF80
ENDCHAR
STARTCHAR 0061
ENCODING 97
SWIDTH 561 0
DWIDTH 55 0
BBX 51 53 2 -1
BITMAP
00001FFFC00000
0001FFFFFC0000
000FFFFFFF8000
003FFFFFFFE000
007FFFFFFFF000
01FFFFFFFFF800
03FFFFFFFFFC00
03FFFFFFFFFE00
07FFFFFFFFFE00
0FFFFFFFFFFF00
0FFFFFFFFFFF00
1FFFFC01FFFF80
1FFFF0007FFF80
1FFFE0003FFF80
1FFFC0003FFF80
1FFFC0003FFF80
3FFFC0003FFF80
3FFFC0003FFF80
000000007FFF80
000000007FFF80
00000003FFFF80
000003FFFFFF80
0003FFFFFFFF80
003FFFFFFFFF80
00FFFFFFFFFF80
03FFFFFFFFFF80
07FFFFFFFFFF80
0FFFFFFFFFFF80
1FFFFFFFFFFF80
3FFFFFFF3FFF80
7FFFFFC03FFF80
7FFFF0003FFF80
7FFFC0003FFF80
FFFF00003FFF80
FFFF00003FFF80
FFFF00003FFF80
FFFE00007FFF80
FFFF00007FFF80
FFFF0000FFFF80
FFFF0000FFFF80
FFFF8003FFFF80
FFFFC007FFFF80
7FFFF87FFFFF80
7FFFFFFFFFFF80
7FFFFFFFFFFF80
3FFFFFFFFFFF80
1FFFFFFFFFFF80
1FFFFFFF9FFF80
0FFFFFFF1FFFC0
03FFFFFE1FFFC0
01FFFFF81FFFC0
007FFFE01FFFE0
0007FF00000000
ENDCHAR
STARTCHAR 0062
ENCODING 98
SWIDTH 602 0
DWIDTH 59 0
BBX 53 71 4 -1
BITMAP
FFFF0000000000
FFFF0000000000
FFFF0000000000
FFFF0000000000
FFFF0000000000
FFFF0000000000
FFFF0000000000
FFFF0000000000
FFFF0000000000
FFFF0000000000
FFFF0000000000
FFFF0000000000
FFFF0000000000
FFFF0000000000
FFFF0000000000
FFFF0000000000
FFFF0000000000
FFFF0000000000
FFFF003FF00000
FFFF01FFFE0000
FFFF07FFFF8000
FFFF1FFFFFE000
FFFF3FFFFFF000
FFFF7FFFFFF800
FFFFFFFFFFFC00
FFFFFFFFFFFE00
FFFFFFFFFFFF00
FFFFFFFFFFFF00
FFFFFFFFFFFF80
FFFFFFFFFFFF80
FFFFFF07FFFFC0
FFFFF800FFFFC0
FFFFF0007FFFE0
FFFFE0003FFFE0
FFFFC0001FFFE0
FFFF80000FFFF0
FFFF80000FFFF0
FFFF00000FFFF0
FFFF000007FFF0
FFFF000007FFF0
FFFF000007FFF0
FFFF000007FFF8
FFFF000007FFF8
FFFF000007FFF8
FFFF000007FFF8
FFFF000007FFF8
FFFF000007FFF8
FFFF000007FFF8
FFFF000007FFF0
FFFF000007FFF0
FFFF00000FFFF0
FFFF00000FFFF0
FFFF80000FFFF0
FFFF80001FFFF0
FFFFC0001FFFE0
FFFFE0003FFFE0
FFFFF0007FFFE0
FFFFF801FFFFC0
FFFFFF07FFFFC0
FFFFFFFFFFFF80
FFFFFFFFFFFF80
FFFFFFFFFFFF00
FFFFFFFFFFFF00
FFFFFFFFFFFE00
FFFEFFFFFFFC00
FFFE7FFFFFF800
FFFE3FFFFFF000
FFFE1FFFFFE000
FFFE07FFFF8000
FFFE01FFFE0000
0000003FF00000
ENDCHAR
STARTCHAR 0063
ENCODING 99
SWIDTH 561 0
DWIDTH 55 0
BBX 51 53 2 -1
BITMAP
00000FFF000000
00007FFFF00000
0003FFFFFE0000
000FFFFFFF8000
001FFFFFFFC000
007FFFFFFFE000
00FFFFFFFFF800
01FFFFFFFFFC00
03FFFFFFFFFC00
07FFFFFFFFFE00
07FFFFFFFFFF00
0FFFFFFFFFFF00
1FFFFFDFFFFF80
1FFFFC01FFFF80
1FFFF0007FFFC0
3FFFE0003FFFC0
3FFFC0003FFFC0
7FFFC0001FFFE0
7FFF80001FFFE0
7FFF80000FFFE0
7FFF0000000000
7FFF0000000000
7FFF0000000000
FFFF0000000000
FFFF0000000000
FFFF0000000000
FFFF0000000000
FFFF0000000000
FFFF0000000000
FFFF0000000000
7FFF0000000000
7FFF0000000000
7FFF00000FFFE0
7FFF80000FFFE0
7FFF80000FFFE0
3FFFC0001FFFE0
3FFFC0001FFFE0
3FFFE0003FFFC0
1FFFF0007FFFC0
1FFFFC01FFFF80
0FFFFFFFFFFF80
0FFFFFFFFFFF00
07FFFFFFFFFF00
07FFFFFFFFFE00
03FFFFFFFFFC00
01FFFFFFFFFC00
00FFFFFFFFF800
007FFFFFFFF000
001FFFFFFFC000
000FFFFFFF8000
0003FFFFFE0000
00007FFFF00000
00000FFF000000
ENDCHAR
STARTCHAR 0064
ENCODING 100
SWIDTH 602 0
DWIDTH 59 0
BBX 52 71 2 -1
BITMAP
0000000007FFF0
0000000007FFF0
0000000007FFF0
0000000007FFF0
0000000007FFF0
0000000007FFF0
0000000007FFF0
0000000007FFF0
0000000007FFF0
0000000007FFF0
0000000007FFF0
0000000007FFF0
0000000007FFF0
0000000007FFF0
0000000007FFF0
0000000007FFF0
0000000007FFF0
0000000007FFF0
00007FE007FFF0
0003FFFC07FFF0
000FFFFF07FFF0
003FFFFFC7FFF0
007FFFFFE7FFF0
00FFFFFFF7FFF0
01FFFFFFFFFFF0
03FFFFFFFFFFF0
07FFFFFFFFFFF0
07FFFFFFFFFFF0
0FFFFFFFFFFFF0
1FFFFFFFFFFFF0
1FFFFF07FFFFF0
1FFFFC00FFFFF0
3FFFF0007FFFF0
3FFFE0003FFFF0
3FFFC0001FFFF0
7FFFC0000FFFF0
7FFF80000FFFF0
7FFF800007FFF0
7FFF800007FFF0
7FFF000007FFF0
FFFF000007FFF0
FFFF000007FFF0
FFFF000007FFF0
FFFF000007FFF0
FFFF000007FFF0
FFFF000007FFF0
FFFF000007FFF0
FFFF000007FFF0
FFFF000007FFF0
7FFF000007FFF0
7FFF000007FFF0
7FFF800007FFF0
7FFF80000FFFF0
7FFF80000FFFF0
3FFFC0001FFFF0
3FFFE0003FFFF0
3FFFF0007FFFF0
1FFFF800FFFFF0
1FFFFF07FFFFF0
1FFFFFFFFFFFF0
0FFFFFFFFFFFF0
07FFFFFFFFFFF0
07FFFFFFFFFFF0
03FFFFFFFBFFF0
01FFFFFFFBFFF0
00FFFFFFF3FFF0
007FFFFFE3FFF0
003FFFFFC3FFF0
000FFFFF03FFF0
0003FFFC03FFF0
00007FE0000000
ENDCHAR
STARTCHAR 0065
ENCODING 101
SWIDTH 581 0
DWIDTH 57 0
BBX 52 53 2 -1
BITMAP
000007FF000000
00007FFFF00000
0003FFFFFC0000
000FFFFFFF0000
001FFFFFFFC000
007FFFFFFFE000
00FFFFFFFFF000
01FFFFFFFFF800
03FFFFFFFFFC00
07FFFFFFFFFE00
07FFFFFFFFFF00
0FFFFF07FFFF00
0FFFF800FFFF80
1FFFE0007FFF80
1FFFC0003FFFC0
3FFF80001FFFC0
3FFF80000FFFE0
3FFF00000FFFE0
7FFF000007FFE0
7FFF000007FFF0
7FFE000007FFF0
7FFFFFFFFFFFF0
7FFFFFFFFFFFF0
FFFFFFFFFFFFF0
FFFFFFFFFFFFF0
FFFFFFFFFFFFF0
FFFFFFFFFFFFF0
FFFFFFFFFFFFF0
FFFFFFFFFFFFF0
FFFFFFFFFFFFF0
7FFFFFFFFFFFF0
7FFE0000000000
7FFE0000000000
7FFF0000000000
7FFF0000000000
3FFF0000000000
3FFF800007FFE0
3FFF80000FFFE0
1FFFC0001FFFE0
1FFFE0003FFFC0
0FFFF800FFFFC0
0FFFFF07FFFF80
07FFFFFFFFFF00
03FFFFFFFFFF00
03FFFFFFFFFE00
01FFFFFFFFFC00
00FFFFFFFFF800
007FFFFFFFF000
001FFFFFFFE000
000FFFFFFF8000
0003FFFFFE0000
00007FFFF00000
000007FF000000
ENDCHAR
STARTCHAR 0066
ENCODING 102
SWIDTH 367 0
DWIDTH 36 0
BBX 33 70 1 0
BITMAP
00000FFF80
00007FFF80
0001FFFF80
0007FFFF80
000FFFFF80
001FFFFF80
003FFFFF80
003FFFFF80
007FFFFF80
007FFFFF80
00FFFFFF80
00FFFFFF80
00FFFF8000
00FFFF0000
00FFFE0000
00FFFE0000
00FFFE0000
00FFFE0000
00FFFE0000
FFFFFFFF80
FFFFFFFF80
FFFFFFFF80
FFFFFFFF80
FFFFFFFF80
FFFFFFFF80
FFFFFFFF80
FFFFFFFF80
FFFFFFFF80
FFFFFFFF80
FFFFFFFF80
00FFFE0000
00FFFE0000
00FFFE0000
00FFFE0000
00FFFE0000
00FFFE0000
00FFFE0000
00FFFE0000
00FFFE0000
00FFFE0000
00FFFE0000
00FFFE0000
00FFFE0000
00FFFE0000
00FFFE0000
00FFFE0000
00FFFE0000
00FFFE0000
00FFFE0000
00FFFE0000
00FFFE0000
00FFFE0000
00FFFE0000
00FFFE0000
00FFFE0000
00FFFE0000
00FFFE0000
00FFFE0000
00FFFE0000
00FFFE0000
00FFFE0000
00FFFE0000
00FFFE0000
00FFFE0000
00FFFE0000
00FFFE0000
00FFFE0000
00FFFE0000
00FFFE0000
00FFFE0000
ENDCHAR
STARTCHAR 0067
ENCODING 103
SWIDTH 602 0
DWIDTH 59 0
BBX 52 72 2 -20
BITMAP
00007FE0000000
0003FFFC03FFF0
000FFFFF03FFF0
003FFFFFC3FFF0
007FFFFFE3FFF0
00FFFFFFF3FFF0
01FFFFFFFBFFF0
03FFFFFFFFFFF0
07FFFFFFFFFFF0
0FFFFFFFFFFFF0
0FFFFFFFFFFFF0
1FFFFFFFFFFFF0
1FFFFF07FFFFF0
3FFFF800FFFFF0
3FFFF0003FFFF0
3FFFE0001FFFF0
7FFFC0001FFFF0
7FFF80000FFFF0
7FFF80000FFFF0
7FFF800007FFF0
7FFF000007FFF0
FFFF000007FFF0
FFFF000007FFF0
FFFF000007FFF0
FFFF000007FFF0
FFFF000007FFF0
FFFF000007FFF0
FFFF000007FFF0
FFFF000007FFF0
7FFF000007FFF0
7FFF000007FFF0
7FFF80000FFFF0
7FFF80000FFFF0
7FFFC0001FFFF0
3FFFE0001FFFF0
3FFFE0003FFFF0
3FFFF800FFFFF0
1FFFFE03FFFFF0
1FFFFFFFFFFFF0
0FFFFFFFFFFFF0
0FFFFFFFFFFFF0
07FFFFFFFFFFF0
03FFFFFFFFFFF0
01FFFFFFFFFFF0
00FFFFFFF7FFF0
007FFFFFE7FFF0
003FFFFFC7FFF0
000FFFFF87FFF0
0003FFFE07FFF0
00007FF807FFF0
0000000007FFF0
0000000007FFF0
0000000007FFF0
3FFF800007FFF0
3FFF800007FFF0
3FFFC0000FFFF0
3FFFC0000FFFF0
1FFFE0001FFFE0
1FFFF0003FFFE0
1FFFF800FFFFE0
0FFFFFCFFFFFC0
0FFFFFFFFFFFC0
07FFFFFFFFFF80
07FFFFFFFFFF00
03FFFFFFFFFE00
01FFFFFFFFFC00
00FFFFFFFFF800
003FFFFFFFF000
001FFFFFFFC000
0007FFFFFF0000
0000FFFFFC0000
00000FFF800000
ENDCHAR
STARTCHAR 0068
ENCODING 104
SWIDTH 581 0
DWIDTH 57 0
BBX 49 70 4 0
BITMAP
FFFF0000000000
FFFF0000000000
FFFF0000000000
FFFF0000000000
FFFF0000000000
FFFF0000000000
FFFF0000000000
FFFF0000000000
FFFF0000000000
FFFF0000000000
FFFF0000000000
FFFF0000000000
FFFF0000000000
FFFF0000000000
FFFF0000000000
FFFF0000000000
FFFF0000000000
FFFF0000000000
FFFF001FF00000
FFFF00FFFE0000
FFFF03FFFF8000
FFFF0FFFFFC000
FFFF1FFFFFF000
FFFF3FFFFFF000
FFFF7FFFFFF800
FFFFFFFFFFFC00
FFFFFFFFFFFC00
FFFFFFFFFFFE00
FFFFFFFFFFFE00
FFFFFFFFFFFF00
FFFFFFFFFFFF00
FFFFFC07FFFF00
FFFFF001FFFF00
FFFFE000FFFF80
FFFFC000FFFF80
FFFF80007FFF80
FFFF80007FFF80
FFFF00007FFF80
FFFF00007FFF80
FFFF00007FFF80
FFFF00007FFF80
FFFF00007FFF80
FFFF00007FFF80
FFFF00007FFF80
FFFF00007FFF80
FFFF00007FFF80
FFFF00007FFF80
FFFF00007FFF80
FFFF00007FFF80
FFFF00007FFF80
FFFF00007FFF80
FFFF00007FFF80
FFFF00007FFF80
FFFF00007FFF80
FFFF00007FFF80
FFFF00007FFF80
FFFF00007FFF80
FFFF00007FFF80
FFFF00007FFF80
FFFF00007FFF80
FFFF00007FFF80
FFFF00007FFF80
FFFF00007FFF80
FFFF00007FFF80
FFFF00007FFF80
FFFF00007FFF80
FFFF00007FFF80
FFFF00007FFF80
FFFF00007FFF80
FFFF00007FFF80
ENDCHAR
STARTCHAR 0069
ENCODING 105
SWIDTH 244 0
DWIDTH 24 0
BBX 16 70 4 0
BITMAP
7FFE
7FFE
7FFE
7FFE
7FFE
7FFE
7FFE
7FFE
7FFE
7FFE
7FFE
7FFE
7FFE
0000
0000
0000
0000
0000
0000
FFFF
FFFF
FFFF
FFFF
FFFF
FFFF
FFFF
FFFF
FFFF
FFFF
FFFF
FFFF
FFFF
FFFF
FFFF
FFFF
FFFF
FFFF
FFFF
FFFF
FFFF
FFFF
FFFF
FFFF
FFFF
FFFF
FFFF
FFFF
FFFF
FFFF
FFFF
FFFF
FFFF
FFFF
FFFF
FFFF
FFFF
FFFF
FFFF
FFFF
FFFF
FFFF
FFFF
FFFF
FFFF
FFFF
FFFF
FFFF
FFFF
FFFF
FFFF
ENDCHAR
STARTCHAR 006A
ENCODING 106
SWIDTH 244 0
DWIDTH 24 0
BBX 22 90 -2 -20
BITMAP
01FFF8
01FFF8
01FFF8
01FFF8
01FFF8
01FFF8
01FFF8
01FFF8
01FFF8
01FFF8
01FFF8
01FFF8
01FFF8
000000
000000
000000
000000
000000
000000
03FFFC
03FFFC
03FFFC
03FFFC
03FFFC
03FFFC
03FFFC
03FFFC
03FFFC
03FFFC
03FFFC
03FFFC
03FFFC
03FFFC
03FFFC
03FFFC
03FFFC
03FFFC
03FFFC
03FFFC
03FFFC
03FFFC
03FFFC
03FFFC
03FFFC
03FFFC
03FFFC
03FFFC
03FFFC
03FFFC
03FFFC
03FFFC
03FFFC
03FFFC
03FFFC
03FFFC
03FFFC
03FFFC
03FFFC
03FFFC
03FFFC
03FFFC
03FFFC
03FFFC
03FFFC
03FFFC
03FFFC
03FFFC
03FFFC
03FFFC
03FFFC
03FFFC
03FFFC
03FFFC
03FFFC
03FFFC
03FFFC
03FFFC
07FFFC
FFFFF8
FFFFF8
FFFFF8
FFFFF8
FFFFF0
FFFFF0
FFFFE0
FFFFE0
FFFFC0
FFFF00
FFFC00
FF8000
ENDCHAR
STARTCHAR 006B
ENCODING 107
SWIDTH 581 0
DWIDTH 57 0
BBX 52 70 4 0
BITMAP
FFFE0000000000
FFFE0000000000
FFFE0000000000
FFFE0000000000
FFFE0000000000
FFFE0000000000
FFFE0000000000
FFFE0000000000
FFFE0000000000
FFFE0000000000
FFFE0000000000
FFFE0000000000
FFFE0000000000
FFFE0000000000
FFFE0000000000
FFFE0000000000
FFFE0000000000
FFFE0000000000
FFFE0000000000
FFFE00003FFFE0
FFFE00007FFFC0
FFFE0000FFFF80
FFFE0001FFFF00
FFFE0003FFFE00
FFFE0007FFFC00
FFFE000FFFF800
FFFE001FFFF000
FFFE003FFFF000
FFFE007FFFE000
FFFE00FFFFC000
FFFE01FFFF8000
FFFE03FFFF0000
FFFE03FFFE0000
FFFE07FFFC0000
FFFE0FFFF80000
FFFE1FFFF00000
FFFE3FFFE00000
FFFE7FFFC00000
FFFEFFFF800000
FFFFFFFF800000
FFFFFFFFC00000
FFFFFFFFC00000
FFFFFFFFE00000
FFFFFFFFF00000
FFFFFFFFF00000
FFFFFFFFF80000
FFFFFFFFFC0000
FFFFFFFFFC0000
FFFFFFFFFE0000
FFFFFDFFFF0000
FFFFF9FFFF0000
FFFFF0FFFF8000
FFFFE0FFFF8000
FFFFC07FFFC000
FFFF803FFFE000
FFFF003FFFE000
FFFE001FFFF000
FFFE000FFFF800
FFFE000FFFF800
FFFE0007FFFC00
FFFE0007FFFE00
FFFE0003FFFE00
FFFE0001FFFF00
FFFE0001FFFF80
FFFE0000FFFF80
FFFE00007FFFC0
FFFE00007FFFC0
FFFE00003FFFE0
FFFE00003FFFF0
FFFE00001FFFF0
ENDCHAR
STARTCHAR 006C
ENCODING 108
SWIDTH 244 0
DWIDTH 24 0
BBX 16 70 4 0
BITMAP
FFFF
FFFF
FFFF
FFFF
FFFF
FFFF
FFFF
FFFF
FFFF
FFFF
FFFF
FFFF
FFFF
FFFF
FFFF
FFFF
FFFF
FFFF
FFFF
FFFF
FFFF
FFFF
FFFF
FFFF
FFFF
FFFF
FFFF
FFFF
FFFF
FFFF
FFFF
FFFF
FFFF
FFFF
FFFF
FFFF
FFFF
FFFF
FFFF
FFFF
FFFF
FFFF
FFFF
FFFF
FFFF
FFFF
FFFF
FFFF
FFFF
FFFF
FFFF
FFFF
FFFF
FFFF
FFFF
FFFF
FFFF
FFFF
FFFF
FFFF
FFFF
FFFF
FFFF
FFFF
FFFF
FFFF
FFFF
FFFF
FFFF
FFFF
ENDCHAR
STARTCHAR 006D
ENCODING 109
SWIDTH 887 0
DWIDTH 87 0
BBX 79 52 4 0
BITMAP
0000003FC000007FC000
FFFE01FFFC0003FFF800
FFFE07FFFF000FFFFE00
FFFE0FFFFF801FFFFF80
FFFE3FFFFFC07FFFFFC0
FFFE7FFFFFE0FFFFFFE0
FFFE7FFFFFF1FFFFFFE0
FFFEFFFFFFF9FFFFFFF0
FFFFFFFFFFFBFFFFFFF8
FFFFFFFFFFFFFFFFFFF8
FFFFFFFFFFFFFFFFFFFC
FFFFFFFFFFFFFFFFFFFC
FFFFFFFFFFFFFFFFFFFC
FFFFFC0FFFFFF81FFFFC
FFFFF003FFFFE007FFFE
FFFFC003FFFFC003FFFE
FFFFC001FFFF8001FFFE
FFFF8001FFFF8001FFFE
FFFF8000FFFF0001FFFE
FFFF0000FFFF0001FFFE
FFFF0000FFFF0000FFFE
FFFF0000FFFE0000FFFE
FFFF0000FFFE0000FFFE
FFFF0000FFFE0000FFFE
FFFF0000FFFE0000FFFE
FFFF0000FFFE0000FFFE
FFFF0000FFFE0000FFFE
FFFF0000FFFE0000FFFE
FFFF0000FFFE0000FFFE
FFFF0000FFFE0000FFFE
FFFF0000FFFE0000FFFE
FFFF0000FFFE0000FFFE
FFFF0000FFFE0000FFFE
FFFF0000FFFE0000FFFE
FFFF0000FFFE0000FFFE
FFFF0000FFFE0000FFFE
FFFF0000FFFE0000FFFE
FFFF0000FFFE0000FFFE
FFFF0000FFFE0000FFFE
FFFF0000FFFE0000FFFE
FFFF0000FFFE0000FFFE
FFFF0000FFFE0000FFFE
FFFF0000FFFE0000FFFE
FFFF0000FFFE0000FFFE
FFFF0000FFFE0000FFFE
FFFF0000FFFE0000FFFE
FFFF0000FFFE0000FFFE
FFFF0000FFFE0000FFFE
FFFF0000FFFE0000FFFE
FFFF0000FFFE0000FFFE
FFFF0000FFFE0000FFFE
FFFF0000FFFE0000FFFE
ENDCHAR
STARTCHAR 006E
ENCODING 110
SWIDTH 581 0
DWIDTH 57 0
BBX 49 52 4 0
BITMAP
0000001FF00000
FFFE00FFFE0000
FFFE03FFFF8000
FFFE0FFFFFC000
FFFE1FFFFFF000
FFFE3FFFFFF000
FFFE7FFFFFF800
FFFEFFFFFFFC00
FFFFFFFFFFFC00
FFFFFFFFFFFE00
FFFFFFFFFFFE00
FFFFFFFFFFFF00
FFFFFFFFFFFF00
FFFFFC07FFFF00
FFFFF001FFFF00
FFFFE000FFFF80
FFFFC000FFFF80
FFFF80007FFF80
FFFF80007FFF80
FFFF00007FFF80
FFFF00007FFF80
FFFF00007FFF80
FFFF00007FFF80
FFFF00007FFF80
FFFF00007FFF80
FFFF00007FFF80
FFFF00007FFF80
FFFF00007FFF80
FFFF00007FFF80
FFFF00007FFF80
FFFF00007FFF80
FFFF00007FFF80
FFFF00007FFF80
FFFF00007FFF80
FFFF00007FFF80
FFFF00007FFF80
FFFF00007FFF80
FFFF00007FFF80
FFFF00007FFF80
FFFF00007FFF80
FFFF00007FFF80
FFFF00007FFF80
FFFF00007FFF80
FFFF00007FFF80
FFFF00007FFF80
FFFF00007FFF80
FFFF00007FFF80
FFFF00007FFF80
FFFF00007FFF80
FFFF00007FFF80
FFFF00007FFF80
FFFF00007FFF80
ENDCHAR
STARTCHAR 006F
ENCODING 111
SWIDTH 591 0
DWIDTH 58 0
BBX 53 53 2 -1
BITMAP
000007FF800000
00007FFFF80000
0003FFFFFE0000
000FFFFFFF8000
001FFFFFFFE000
007FFFFFFFF000
00FFFFFFFFF800
01FFFFFFFFFC00
03FFFFFFFFFE00
03FFFFFFFFFF00
07FFFFFFFFFF80
0FFFFFFFFFFFC0
0FFFFF87FFFFC0
1FFFFC00FFFFE0
1FFFF0003FFFE0
3FFFE0001FFFE0
3FFFC0001FFFF0
3FFFC0000FFFF0
7FFF80000FFFF0
7FFF800007FFF8
7FFF800007FFF8
7FFF000007FFF8
7FFF000003FFF8
FFFF000003FFF8
FFFF000003FFF8
FFFF000003FFF8
FFFF000003FFF8
FFFF000003FFF8
FFFF000003FFF8
FFFF000003FFF8
7FFF000003FFF8
7FFF000007FFF8
7FFF800007FFF8
7FFF800007FFF8
7FFF80000FFFF0
3FFFC0000FFFF0
3FFFC0001FFFF0
3FFFE0001FFFE0
1FFFF0003FFFE0
1FFFF800FFFFE0
0FFFFF07FFFFC0
0FFFFFFFFFFFC0
07FFFFFFFFFF80
07FFFFFFFFFF00
03FFFFFFFFFE00
01FFFFFFFFFC00
00FFFFFFFFF800
007FFFFFFFF000
001FFFFFFFE000
000FFFFFFF8000
0003FFFFFE0000
00007FFFF80000
000007FF800000
ENDCHAR
STARTCHAR 0070
ENCODING 112
SWIDTH 602 0
DWIDTH 59 0
BBX 53 71 4 -19
BITMAP
0000003FF00000
FFFE01FFFE0000
FFFE07FFFF8000
FFFE1FFFFFE000
FFFE3FFFFFF000
FFFE7FFFFFF800
FFFEFFFFFFFC00
FFFEFFFFFFFE00
FFFFFFFFFFFF00
FFFFFFFFFFFF00
FFFFFFFFFFFF80
FFFFFFFFFFFF80
FFFFFF07FFFFC0
FFFFF800FFFFC0
FFFFF0007FFFE0
FFFFE0003FFFE0
FFFFC0001FFFE0
FFFF80000FFFF0
FFFF80000FFFF0
FFFF00000FFFF0
FFFF000007FFF0
FFFF000007FFF0
FFFF000007FFF0
FFFF000007FFF8
FFFF000007FFF8
FFFF000007FFF8
FFFF000007FFF8
FFFF000007FFF8
FFFF000007FFF8
FFFF000007FFF8
FFFF000007FFF0
FFFF000007FFF0
FFFF00000FFFF0
FFFF00000FFFF0
FFFF80000FFFF0
FFFF80001FFFF0
FFFFC0001FFFE0
FFFFE0003FFFE0
FFFFF0007FFFE0
FFFFF801FFFFC0
FFFFFF07FFFFC0
FFFFFFFFFFFF80
FFFFFFFFFFFF80
FFFFFFFFFFFF00
FFFFFFFFFFFF00
FFFFFFFFFFFE00
FFFFFFFFFFFC00
FFFF7FFFFFF800
FFFF3FFFFFF000
FFFF1FFFFFE000
FFFF07FFFF8000
FFFF01FFFE0000
FFFF003FF00000
FFFF0000000000
FFFF0000000000
FFFF0000000000
FFFF0000000000
FFFF0000000000
FFFF0000000000
FFFF0000000000
FFFF0000000000
FFFF0000000000
FFFF0000000000
FFFF0000000000
FFFF0000000000
FFFF0000000000
FFFF0000000000
FFFF0000000000
FFFF0000000000
FFFF0000000000
FFFF0000000000
ENDCHAR
STARTCHAR 0071
ENCODING 113
SWIDTH 602 0
DWIDTH 59 0
BBX 52 71 2 -19
BITMAP
00007FE0000000
0003FFFC03FFF0
000FFFFF03FFF0
003FFFFFC3FFF0
007FFFFFE3FFF0
00FFFFFFF3FFF0
01FFFFFFFBFFF0
03FFFFFFFFFFF0
07FFFFFFFFFFF0
07FFFFFFFFFFF0
0FFFFFFFFFFFF0
1FFFFFFFFFFFF0
1FFFFF07FFFFF0
1FFFFC00FFFFF0
3FFFF0007FFFF0
3FFFE0003FFFF0
3FFFC0001FFFF0
7FFFC0000FFFF0
7FFF80000FFFF0
7FFF800007FFF0
7FFF800007FFF0
7FFF000007FFF0
FFFF000007FFF0
FFFF000007FFF0
FFFF000007FFF0
FFFF000007FFF0
FFFF000007FFF0
FFFF000007FFF0
FFFF000007FFF0
FFFF000007FFF0
FFFF000007FFF0
7FFF000007FFF0
7FFF000007FFF0
7FFF800007FFF0
7FFF80000FFFF0
7FFF80000FFFF0
3FFFC0001FFFF0
3FFFE0003FFFF0
3FFFF0007FFFF0
1FFFF800FFFFF0
1FFFFF07FFFFF0
1FFFFFFFFFFFF0
0FFFFFFFFFFFF0
07FFFFFFFFFFF0
07FFFFFFFFFFF0
03FFFFFFFFFFF0
01FFFFFFFFFFF0
00FFFFFFF7FFF0
007FFFFFE7FFF0
003FFFFFC7FFF0
000FFFFF07FFF0
0003FFFC07FFF0
00007FE007FFF0
0000000007FFF0
0000000007FFF0
0000000007FFF0
0000000007FFF0
0000000007FFF0
0000000007FFF0
0000000007FFF0
0000000007FFF0
0000000007FFF0
0000000007FFF0
0000000007FFF0
0000000007FFF0
0000000007FFF0
0000000007FFF0
0000000007FFF0
0000000007FFF0
0000000007FFF0
0000000007FFF0
ENDCHAR
STARTCHAR 0072
ENCODING 114
SWIDTH 397 0
DWIDTH 39 0
BBX 33 52 4 0
BITMAP
0000007F80
FFFE03FF80
FFFE07FF80
FFFE0FFF80
FFFE3FFF80
FFFE3FFF80
FFFE7FFF80
FFFEFFFF80
FFFEFFFF80
FFFEFFFF80
FFFFFFFF80
FFFFFFFF80
FFFFFFFF80
FFFFFFFF80
FFFFFF8000
FFFFFC0000
FFFFF00000
FFFFE00000
FFFFC00000
FFFFC00000
FFFF800000
FFFF800000
FFFF000000
FFFF000000
FFFF000000
FFFF000000
FFFF000000
FFFF000000
FFFF000000
FFFF000000
FFFF000000
FFFF000000
FFFF000000
FFFF000000
FFFF000000
FFFF000000
FFFF000000
FFFF000000
FFFF000000
FFFF000000
FFFF000000
FFFF000000
FFFF000000
FFFF000000
FFFF000000
FFFF000000
FFFF000000
FFFF000000
FFFF000000
FFFF000000
FFFF000000
FFFF000000
ENDCHAR
STARTCHAR 0073
ENCODING 115
SWIDTH 520 0
DWIDTH 51 0
BBX 49 53 1 -1
BITMAP
00007FFE000000
0007FFFFE00000
003FFFFFFC0000
00FFFFFFFF0000
01FFFFFFFF8000
07FFFFFFFFC000
0FFFFFFFFFE000
0FFFFFFFFFF000
1FFFFFFFFFF800
3FFFFFFFFFF800
3FFFF81FFFFC00
3FFFC003FFFC00
7FFF8001FFFE00
7FFF0000FFFE00
7FFF00007FFE00
7FFF00007FFE00
7FFF00007FFE00
7FFF8000000000
7FFFC000000000
7FFFF800000000
3FFFFFE0000000
3FFFFFFF800000
1FFFFFFFF80000
1FFFFFFFFF0000
0FFFFFFFFFC000
07FFFFFFFFE000
03FFFFFFFFF800
01FFFFFFFFFC00
007FFFFFFFFC00
001FFFFFFFFE00
0003FFFFFFFF00
00001FFFFFFF00
0000007FFFFF00
00000003FFFF80
00000000FFFF80
000000007FFF80
FFFE00007FFF80
7FFF00007FFF80
7FFF00007FFF80
7FFF00007FFF80
7FFF80007FFF00
7FFFC000FFFF00
3FFFF807FFFF00
3FFFFFFFFFFE00
1FFFFFFFFFFE00
0FFFFFFFFFFC00
0FFFFFFFFFF800
07FFFFFFFFF000
03FFFFFFFFE000
00FFFFFFFF8000
003FFFFFFE0000
000FFFFFF80000
00007FFF000000
ENDCHAR
STARTCHAR 0074
ENCODING 116
SWIDTH 367 0
DWIDTH 36 0
BBX 33 66 1 0
BITMAP
00FFFE0000
00FFFE0000
00FFFE0000
00FFFE0000
00FFFE0000
00FFFE0000
00FFFE0000
00FFFE0000
00FFFE0000
00FFFE0000
00FFFE0000
00FFFE0000
00FFFE0000
00FFFE0000
00FFFE0000
FFFFFFFF80
FFFFFFFF80
FFFFFFFF80
FFFFFFFF80
FFFFFFFF80
FFFFFFFF80
FFFFFFFF80
FFFFFFFF80
FFFFFFFF80
FFFFFFFF80
FFFFFFFF80
00FFFE0000
00FFFE0000
00FFFE0000
00FFFE0000
00FFFE0000
00FFFE0000
00FFFE0000
00FFFE0000
00FFFE0000
00FFFE0000
00FFFE0000
00FFFE0000
00FFFE0000
00FFFE0000
00FFFE0000
00FFFE0000
00FFFE0000
00FFFE0000
00FFFE0000
00FFFE0000
00FFFE0000
00FFFE0000
00FFFE0000
00FFFE0000
00FFFE0000
00FFFE0000
00FFFE0000
00FFFF0000
00FFFFFF80
00FFFFFF80
00FFFFFF80
00FFFFFF80
007FFFFF80
007FFFFF80
003FFFFF80
001FFFFF80
000FFFFF80
0007FFFF80
0001FFFF80
00001FFF80
ENDCHAR
STARTCHAR 0075
ENCODING 117
SWIDTH 581 0
DWIDTH 57 0
BBX 49 52 4 -1
BITMAP
FFFF00007FFF80
FFFF00007FFF80
FFFF00007FFF80
FFFF00007FFF80
FFFF00007FFF80
FFFF00007FFF80
FFFF00007FFF80
FFFF00007FFF80
FFFF00007FFF80
FFFF00007FFF80
FFFF00007FFF80
FFFF00007FFF80
FFFF00007FFF80
FFFF00007FFF80
FFFF00007FFF80
FFFF00007FFF80
FFFF00007FFF80
FFFF00007FFF80
FFFF00007FFF80
FFFF00007FFF80
FFFF00007FFF80
FFFF00007FFF80
FFFF00007FFF80
FFFF00007FFF80
FFFF00007FFF80
FFFF00007FFF80
FFFF00007FFF80
FFFF00007FFF80
FFFF00007FFF80
FFFF00007FFF80
FFFF00007FFF80
FFFF00007FFF80
FFFF00007FFF80
FFFF0000FFFF80
FFFF0000FFFF80
FFFF8001FFFF80
7FFF8003FFFF80
7FFFC007FFFF80
7FFFF01FFFFF80
7FFFFFFFFFFF80
7FFFFFFFFFFF80
3FFFFFFFFFFF80
3FFFFFFFFFFF80
1FFFFFFFFFFF80
1FFFFFFFBFFF80
0FFFFFFF3FFF80
07FFFFFE3FFF80
03FFFFFC3FFF80
01FFFFF83FFF80
00FFFFF03FFF80
003FFFC03FFF80
0007FC00000000
ENDCHAR
STARTCHAR 0076
ENCODING 118
SWIDTH 561 0
DWIDTH 55 0
BBX 54 51 0 0
BITMAP
FFFF800001FFFC
7FFF800003FFFC
7FFF800003FFFC
7FFFC00003FFF8
3FFFC00007FFF8
3FFFC00007FFF0
3FFFE0000FFFF0
1FFFE0000FFFF0
1FFFE0000FFFE0
1FFFF0000FFFE0
0FFFF0001FFFE0
0FFFF0001FFFC0
0FFFF8001FFFC0
07FFF8003FFFC0
07FFF8003FFF80
03FFF8003FFF80
03FFFC003FFF80
03FFFC007FFF00
01FFFC007FFF00
01FFFE007FFF00
01FFFE00FFFE00
00FFFE00FFFE00
00FFFE00FFFC00
00FFFF00FFFC00
007FFF01FFFC00
007FFF01FFF800
007FFF01FFF800
003FFF83FFF800
003FFF83FFF000
001FFF83FFF000
001FFFC3FFF000
001FFFC7FFE000
000FFFC7FFE000
000FFFC7FFE000
000FFFE7FFC000
0007FFEFFFC000
0007FFEFFF8000
0007FFFFFF8000
0003FFFFFF8000
0003FFFFFF0000
0003FFFFFF0000
0001FFFFFF0000
0001FFFFFE0000
0001FFFFFE0000
0000FFFFFE0000
0000FFFFFC0000
00007FFFFC0000
00007FFFFC0000
00007FFFF80000
00003FFFF80000
00003FFFF80000
ENDCHAR
STARTCHAR 0077
ENCODING 119
SWIDTH 857 0
DWIDTH 84 0
BBX 84 51 0 0
BITMAP
FFFF80001FFF80001FFFF0
7FFF80001FFFC0001FFFE0
7FFF80003FFFC0001FFFE0
7FFFC0003FFFC0001FFFE0
3FFFC0003FFFC0003FFFC0
3FFFC0007FFFE0003FFFC0
3FFFC0007FFFE0003FFFC0
1FFFE0007FFFE0007FFF80
1FFFE0007FFFF0007FFF80
1FFFE000FFFFF0007FFF80
1FFFF000FFFFF0007FFF00
0FFFF000FFFFF000FFFF00
0FFFF001FFFFF800FFFF00
0FFFF001FFFFF800FFFF00
07FFF801FFFFF801FFFE00
07FFF801FFFFF801FFFE00
07FFF803FFFFFC01FFFE00
03FFFC03FFFFFC03FFFC00
03FFFC03FFFFFC03FFFC00
03FFFC03FFFFFE03FFFC00
01FFFC07FF9FFE03FFF800
01FFFE07FF9FFE07FFF800
01FFFE07FF9FFE07FFF800
00FFFE0FFF9FFF07FFF000
00FFFF0FFF0FFF07FFF000
00FFFF0FFF0FFF0FFFF000
007FFF0FFF0FFF0FFFE000
007FFF1FFF0FFF8FFFE000
007FFF9FFE07FF9FFFE000
003FFF9FFE07FF9FFFC000
003FFF9FFE07FF9FFFC000
003FFFBFFC03FFDFFFC000
001FFFFFFC03FFFFFF8000
001FFFFFFC03FFFFFF8000
001FFFFFFC01FFFFFF8000
000FFFFFF801FFFFFF0000
000FFFFFF801FFFFFF0000
000FFFFFF801FFFFFF0000
0007FFFFF000FFFFFE0000
0007FFFFF000FFFFFE0000
0007FFFFF000FFFFFE0000
0003FFFFE0007FFFFC0000
0003FFFFE0007FFFFC0000
0003FFFFE0007FFFFC0000
0001FFFFE0007FFFFC0000
0001FFFFC0003FFFF80000
0001FFFFC0003FFFF80000
0001FFFFC0003FFFF80000
0000FFFF80001FFFF00000
0000FFFF80001FFFF00000
0000FFFF80001FFFF00000
ENDCHAR
STARTCHAR 0078
ENCODING 120
SWIDTH 551 0
DWIDTH 54 0
BBX 54 51 0 0
BITMAP
7FFFE0000FFFF8
3FFFF0001FFFF0
1FFFF0003FFFE0
0FFFF8003FFFE0
0FFFFC007FFFC0
07FFFC00FFFF80
03FFFE00FFFF00
03FFFF01FFFF00
01FFFF03FFFE00
00FFFF83FFFC00
00FFFF87FFFC00
007FFFCFFFF800
003FFFEFFFF000
001FFFFFFFE000
001FFFFFFFE000
000FFFFFFFC000
0007FFFFFF8000
0007FFFFFF8000
0003FFFFFF0000
0001FFFFFE0000
0000FFFFFE0000
0000FFFFFC0000
00007FFFF80000
00003FFFF00000
00003FFFF00000
00003FFFF00000
00003FFFF80000
00007FFFFC0000
0000FFFFFC0000
0001FFFFFE0000
0001FFFFFF0000
0003FFFFFF0000
0007FFFFFF8000
0007FFFFFFC000
000FFFFFFFC000
001FFFFFFFE000
003FFFFFFFF000
003FFFCFFFF800
007FFFCFFFF800
00FFFF87FFFC00
00FFFF03FFFE00
01FFFF03FFFE00
03FFFE01FFFF00
07FFFC00FFFF80
07FFFC00FFFF80
0FFFF8007FFFC0
1FFFF0003FFFE0
1FFFF0003FFFF0
3FFFE0001FFFF0
7FFFC0000FFFF8
FFFF80000FFFFC
ENDCHAR
STARTCHAR 0079
ENCODING 121
SWIDTH 551 0
DWIDTH 54 0
BBX 54 70 0 -19
BITMAP
FFFF800003FFFC
7FFF800003FFF8
7FFF800007FFF8
7FFFC00007FFF8
3FFFC00007FFF0
3FFFC0000FFFF0
3FFFE0000FFFF0
1FFFE0000FFFE0
1FFFE0001FFFE0
1FFFE0001FFFE0
0FFFF0001FFFC0
0FFFF0001FFFC0
0FFFF0003FFFC0
07FFF8003FFF80
07FFF8003FFF80
03FFF8007FFF80
03FFFC007FFF00
03FFFC007FFF00
01FFFC007FFE00
01FFFC00FFFE00
01FFFE00FFFE00
00FFFE00FFFC00
00FFFE00FFFC00
00FFFE01FFFC00
007FFF01FFF800
007FFF01FFF800
007FFF01FFF800
003FFF83FFF000
003FFF83FFF000
003FFF83FFF000
001FFF87FFE000
001FFFC7FFE000
000FFFC7FFE000
000FFFC7FFC000
000FFFCFFFC000
0007FFEFFFC000
0007FFEFFF8000
0007FFEFFF8000
0003FFEFFF0000
0003FFFFFF0000
0003FFFFFF0000
0001FFFFFE0000
0001FFFFFE0000
0001FFFFFE0000
0000FFFFFC0000
0000FFFFFC0000
0000FFFFFC0000
0000FFFFF80000
00007FFFF80000
00007FFFF80000
00007FFFF00000
00007FFFF00000
00007FFFF00000
00007FFFE00000
0000FFFFE00000
0000FFFFC00000
0001FFFFC00000
0007FFFFC00000
0FFFFFFF800000
0FFFFFFF800000
0FFFFFFF000000
0FFFFFFE000000
0FFFFFFE000000
0FFFFFFC000000
0FFFFFF8000000
0FFFFFF0000000
0FFFFFC0000000
0FFFFF80000000
0FFFFC00000000
0FFFC000000000
ENDCHAR
STARTCHAR 007A
ENCODING 122
SWIDTH 510 0
DWIDTH 50 0
BBX 44 51 3 0
BITMAP
FFFFFFFFFFE0
FFFFFFFFFFE0
FFFFFFFFFFE0
FFFFFFFFFFE0
FFFFFFFFFFE0
FFFFFFFFFFE0
FFFFFFFFFFE0
FFFFFFFFFFE0
FFFFFFFFFFE0
FFFFFFFFFFE0
FFFFFFFFFFC0
000000FFFFC0
000001FFFF80
000003FFFF00
000007FFFE00
00000FFFFC00
00000FFFFC00
00001FFFF800
00003FFFF000
00007FFFE000
0000FFFFC000
0000FFFFC000
0001FFFF8000
0003FFFF0000
0007FFFE0000
000FFFFC0000
000FFFFC0000
001FFFF80000
003FFFF00000
007FFFE00000
00FFFFC00000
00FFFFC00000
01FFFF800000
03FFFF000000
07FFFE000000
0FFFFC000000
0FFFFC000000
1FFFF8000000
3FFFF0000000
7FFFE0000000
FFFFFFFFFFF0
FFFFFFFFFFF0
FFFFFFFFFFF0
FFFFFFFFFFF0
FFFFFFFFFFF0
FFFFFFFFFFF0
FFFFFFFFFFF0
FFFFFFFFFFF0
FFFFFFFFFFF0
FFFFFFFFFFF0
FFFFFFFFFFF0
ENDCHAR
STARTCHAR 007B
ENCODING 123
SWIDTH 377 0
DWIDTH 37 0
BBX 33 96 3 -19
BITMAP
000007FF80
00007FFF80
0001FFFF80
0007FFFF80
000FFFFF80
001FFFFF80
001FFFFF80
003FFFFF80
003FFFFF80
007FFFFF80
007FFFFF80
00FFFFFF80
00FFFFF000
00FFFF0000
00FFFE0000
00FFFC0000
00FFFC0000
00FFFC0000
00FFFC0000
00FFFC0000
00FFFC0000
00FFFC0000
00FFFC0000
00FFFC0000
00FFFC0000
00FFFC0000
00FFFC0000
00FFFC0000
00FFFC0000
00FFFC0000
00FFFC0000
00FFFC0000
00FFFC0000
00FFFC0000
00FFFC0000
00FFFC0000
00FFFC0000
00FFFC0000
01FFFC0000
01FFFC0000
03FFFC0000
1FFFFC0000
FFFFF80000
FFFFF80000
FFFFF80000
FFFFF00000
FFFFC00000
FFFF000000
FFF0000000
FFFF800000
FFFFE00000
FFFFF00000
FFFFF80000
FFFFF80000
FFFFFC0000
0FFFFC0000
03FFFC0000
01FFFC0000
00FFFC0000
00FFFC0000
00FFFC0000
00FFFC0000
00FFFC0000
00FFFC0000
00FFFC0000
00FFFC0000
00FFFC0000
00FFFC0000
00FFFC0000
00FFFC0000
00FFFC0000
00FFFC0000
00FFFC0000
00FFFC0000
00FFFC0000
00FFFC0000
00FFFC0000
00FFFC0000
00FFFC0000
00FFFC0000
00FFFC0000
00FFFE0000
00FFFF0000
00FFFFF000
00FFFFFF80
007FFFFF80
007FFFFF80
003FFFFF80
003FFFFF80
001FFFFF80
001FFFFF80
000FFFFF80
0007FFFF80
0001FFFF80
00007FFF80
00000FFF80
ENDCHAR
STARTCHAR 007C
ENCODING 124
SWIDTH 234 0
DWIDTH 23 0
BBX 13 98 5 -20
BITMAP
FFF8
FFF8
FFF8
FFF8
FFF8
FFF8
FFF8
FFF8
FFF8
FFF8
FFF8
FFF8
FFF8
FFF8
FFF8
FFF8
FFF8
FFF8
FFF8
FFF8
FFF8
FFF8
FFF8
FFF8
FFF8
FFF8
FFF8
FFF8
FFF8
FFF8
FFF8
FFF8
FFF8
FFF8
FFF8
FFF8
FFF8
FFF8
FFF8
FFF8
FFF8
FFF8
FFF8
FFF8
FFF8
FFF8
FFF8
FFF8
FFF8
FFF8
FFF8
FFF8
FFF8
FFF8
FFF8
FFF8
FFF8
FFF8
FFF8
FFF8
FFF8
FFF8
FFF8
FFF8
FFF8
FFF8
FFF8
FFF8
FFF8
FFF8
FFF8
FFF8
FFF8
FFF8
FFF8
FFF8
FFF8
FFF8
FFF8
FFF8
FFF8
FFF8
FFF8
FFF8
FFF8
FFF8
FFF8
FFF8
FFF8
FFF8
FFF8
FFF8
FFF8
FFF8
FFF8
FFF8
FFF8
FFF8
ENDCHAR
STARTCHAR 007D
ENCODING 125
SWIDTH 377 0
DWIDTH 37 0
BBX 33 96 1 -19
BITMAP
FFF0000000
FFFF000000
FFFFC00000
FFFFE00000
FFFFF00000
FFFFF80000
FFFFFC0000
FFFFFE0000
FFFFFE0000
FFFFFF0000
FFFFFF0000
FFFFFF0000
07FFFF8000
007FFF8000
003FFF8000
003FFF8000
001FFF8000
001FFF8000
001FFF8000
001FFF8000
001FFF8000
001FFF8000
001FFF8000
001FFF8000
001FFF8000
001FFF8000
001FFF8000
001FFF8000
001FFF8000
001FFF8000
001FFF8000
001FFF8000
001FFF8000
001FFF8000
001FFF8000
001FFF8000
001FFF8000
001FFF8000
001FFF8000
001FFFC000
001FFFE000
001FFFF800
001FFFFF80
000FFFFF80
000FFFFF80
0007FFFF80
0003FFFF80
0000FFFF80
000007FF80
0000FFFF80
0003FFFF80
0007FFFF80
000FFFFF80
001FFFFF80
001FFFFF80
001FFFF000
001FFFE000
001FFFC000
001FFF8000
001FFF8000
001FFF8000
001FFF8000
001FFF8000
001FFF8000
001FFF8000
001FFF8000
001FFF8000
001FFF8000
001FFF8000
001FFF8000
001FFF8000
001FFF8000
001FFF8000
001FFF8000
001FFF8000
001FFF8000
001FFF8000
001FFF8000
001FFF8000
001FFF8000
003FFF8000
003FFF8000
007FFF8000
07FFFF8000
FFFFFF0000
FFFFFF0000
FFFFFF0000
FFFFFE0000
FFFFFE0000
FFFFFC0000
FFFFF80000
FFFFF00000
FFFFE00000
FFFFC00000
FFFF000000
FFF0000000
ENDCHAR
STARTCHAR 007E
ENCODING 126
SWIDTH 530 0
DWIDTH 52 0
BBX 46 18 3 26
BITMAP
003FC0001FFC
01FFF8001FFC
03FFFE001FFC
07FFFF803FFC
0FFFFFE03FFC
1FFFFFFFFFF8
3FFFFFFFFFF8
3FFFFFFFFFF8
7FFFFFFFFFF8
7FFFFFFFFFF0
7FFFFFFFFFF0
7FFFFFFFFFE0
FFFC7FFFFFE0
FFF01FFFFFC0
FFE007FFFF80
FFE001FFFF00
FFC0003FFC00
FFC000038000
ENDCHAR
STARTCHAR 00A0
ENCODING 160
SWIDTH 234 0
DWIDTH 23 0
BBX 0 0 0 0
BITMAP
ENDCHAR
STARTCHAR 00A1
ENCODING 161
SWIDTH 244 0
DWIDTH 24 0
BBX 18 70 3 -12
BITMAP
FFFFC0
FFFFC0
FFFFC0
FFFFC0
FFFFC0
FFFFC0
FFFFC0
FFFFC0
FFFFC0
FFFFC0
FFFFC0
FFFFC0
FFFFC0
FFFFC0
FFFFC0
FFFFC0
FFFFC0
000000
000000
000000
000000
000000
000000
000000
07F800
07F800
0FF800
0FFC00
0FFC00
0FFC00
0FFC00
0FFC00
0FFC00
1FFC00
1FFE00
1FFE00
1FFE00
1FFE00
1FFE00
1FFE00
3FFE00
3FFF00
3FFF00
3FFF00
3FFF00
3FFF00
3FFF00
3FFF00
7FFF80
7FFF80
7FFF80
7FFF80
7FFF80
7FFF80
7FFF80
7FFF80
7FFF80
7FFF80
7FFF80
7FFF80
7FFF80
7FFF80
7FFF80
7FFF80
7FFF80
7FFF80
7FFF80
7FFF80
7FFF80
7FFF80
ENDCHAR
STARTCHAR 00A2
ENCODING 162
SWIDTH 561 0
DWIDTH 55 0
BBX 51 73 2 -11
BITMAP
000001FC000000
000001FC000000
000001FC000000
000001FC000000
000001FC000000
000001FC000000
000001FC000000
000001FC000000
000001FC000000
000001FC000000
00000FFF800000
0000FFFFF80000
0003FFFFFE0000
000FFFFFFF8000
003FFFFFFFC000
007FFFFFFFF000
00FFFFFFFFF800
01FFFFFFFFFC00
03FFFFFFFFFC00
07FFFFFFFFFE00
07FFFFFFFFFF00
0FFFFFFFFFFF00
1FFFFFFFFFFF80
1FFFF9FCFFFF80
1FFFF1FC7FFFC0
3FFFE1FC3FFFC0
3FFFC1FC1FFFC0
7FFF81FC1FFFE0
7FFF81FC1FFFE0
7FFF81FC0FFFE0
7FFF01FC000000
7FFF01FC000000
7FFF01FC000000
FFFF01FC000000
FFFF01FC000000
FFFF01FC000000
FFFF01FC000000
FFFF01FC000000
FFFF01FC000000
FFFF01FC000000
7FFF01FC000000
7FFF01FC000000
7FFF01FC0FFFE0
7FFF81FC0FFFE0
7FFF81FC0FFFE0
3FFFC1FC1FFFE0
3FFFC1FC1FFFE0
3FFFE1FC3FFFC0
1FFFF1FC7FFFC0
1FFFF9FDFFFFC0
1FFFFFFFFFFF80
0FFFFFFFFFFF80
07FFFFFFFFFF00
07FFFFFFFFFE00
03FFFFFFFFFE00
01FFFFFFFFFC00
00FFFFFFFFF800
007FFFFFFFF000
003FFFFFFFC000
000FFFFFFF8000
0003FFFFFE0000
0000FFFFF80000
00001FFF800000
000001FC000000
000001FC000000
000001FC000000
000001FC000000
000001FC000000
000001FC000000
000001FC000000
000001FC000000
000001FC000000
000001FC000000
ENDCHAR
STARTCHAR 00A3
ENCODING 163
SWIDTH 571 0
DWIDTH 56 0
BBX 54 71 1 0
BITMAP
000001FFE00000
00003FFFFE0000
0000FFFFFFC000
0003FFFFFFF000
000FFFFFFFF800
001FFFFFFFFE00
003FFFFFFFFF00
007FFFFFFFFF00
00FFFFFFFFFF80
01FFFFFFFFFFC0
03FFFFFFFFFFC0
03FFFFFFFFFFE0
07FFFFFFFFFFE0
07FFFFC0FFFFF0
07FFFF003FFFF0
07FFFC000FFFF0
0FFFFC000FFFF8
0FFFF80007FFF8
0FFFF80007FFF8
0FFFF80003FFF8
0FFFF80003FFF8
0FFFF80003FFF8
0FFFF80003FFFC
0FFFF800000000
07FFFC00000000
07FFFC00000000
07FFFC00000000
07FFFE00000000
03FFFE00000000
03FFFF00000000
03FFFF00000000
01FFFF00000000
01FFFF80000000
00FFFF80000000
00FFFFC0000000
FFFFFFFFFFF800
FFFFFFFFFFF800
FFFFFFFFFFF800
FFFFFFFFFFF800
FFFFFFFFFFF800
FFFFFFFFFFF800
FFFFFFFFFFF800
001FFFF0000000
000FFFF0000000
000FFFF0000000
000FFFF0000000
000FFFF0000000
000FFFF0000000
000FFFF0000000
000FFFF0000000
001FFFE0000000
001FFFE0000000
003FFFE0000000
003FFFC0000000
007FFF80000000
01FFFF00000000
03FFFFFFFFFFFC
1FFFFFFFFFFFFC
3FFFFFFFFFFFFC
3FFFFFFFFFFFFC
3FFFFFFFFFFFFC
3FFFFFFFFFFFFC
3FFFFFFFFFFFFC
3FFFFFFFFFFFFC
3FFFFFFFFFFFFC
3FFFFFFFFFFFFC
3FFFFFFFFFFFFC
3FFFFFFFFFFFFC
3FFFFFFFFFFFFC
3FFFFFFFFFFFFC
3FFFFFFFFFFFFC
ENDCHAR
STARTCHAR 00A4
ENCODING 164
SWIDTH 581 0
DWIDTH 57 0
BBX 53 54 2 8
BITMAP
04000000000100
0E000000000380
1F0000000007C0
3F800000000FE0
7FC007FF801FF0
FFE03FFFF03FF8
7FF1FFFFFC7FF0
3FFBFFFFFFFFE0
1FFFFFFFFFFFC0
0FFFFFFFFFFF80
07FFFFFFFFFF00
03FFFFFFFFFE00
01FFFFFFFFFC00
01FFFFFFFFFE00
01FFFFFFFFFE00
03FFFFFFFFFF00
07FFFF03FFFF00
07FFF8007FFF80
07FFF0003FFF80
0FFFE0001FFFC0
0FFFC0000FFFC0
0FFF800007FFC0
1FFF800007FFC0
1FFF000003FFE0
1FFF000003FFE0
1FFF000003FFE0
1FFF000003FFE0
1FFF000003FFE0
1FFF000003FFE0
1FFF000003FFE0
1FFF000003FFE0
1FFF800007FFC0
0FFF800007FFC0
0FFFC0000FFFC0
0FFFE0001FFFC0
07FFF0003FFF80
07FFF8007FFF80
07FFFE03FFFF00
03FFFFFFFFFF00
01FFFFFFFFFE00
01FFFFFFFFFE00
01FFFFFFFFFC00
03FFFFFFFFFE00
07FFFFFFFFFF00
0FFFFFFFFFFF80
1FFFFFFFFFFFC0
3FFBFFFFFFFFE0
7FF0FFFFFC7FF0
FFE03FFFF03FF8
7FC007FF801FF0
3F800000000FE0
1F0000000007C0
0E000000000380
04000000000100
ENDCHAR
STARTCHAR 00A5
ENCODING 165
SWIDTH 704 0
DWIDTH 69 0
BBX 68 70 0 0
BITMAP
FFFFE00000003FFFF0
7FFFF00000007FFFF0
7FFFF00000007FFFE0
3FFFF8000000FFFFC0
1FFFF8000000FFFFC0
1FFFFC000001FFFF80
0FFFFE000001FFFF80
07FFFE000003FFFF00
07FFFF000007FFFE00
03FFFF000007FFFE00
03FFFF80000FFFFC00
01FFFFC0000FFFFC00
00FFFFC0001FFFF800
00FFFFE0003FFFF000
007FFFE0003FFFF000
007FFFF0007FFFE000
003FFFF0007FFFE000
001FFFF800FFFFC000
001FFFFC00FFFF8000
000FFFFC01FFFF8000
000FFFFE01FFFF0000
0007FFFE03FFFF0000
0003FFFF03FFFE0000
0003FFFF07FFFC0000
0001FFFF8FFFFC0000
0001FFFFCFFFF80000
0000FFFFDFFFF80000
00007FFFFFFFF00000
00007FFFFFFFE00000
00003FFFFFFFE00000
00001FFFFFFFC00000
00001FFFFFFFC00000
00000FFFFFFF800000
00000FFFFFFF000000
000007FFFFFF000000
000003FFFFFE000000
000003FFFFFE000000
000001FFFFFC000000
001FFFFFFFFFFFC000
001FFFFFFFFFFFC000
001FFFFFFFFFFFC000
001FFFFFFFFFFFC000
001FFFFFFFFFFFC000
001FFFFFFFFFFFC000
001FFFFFFFFFFFC000
0000003FFFE0000000
0000003FFFE0000000
0000003FFFE0000000
0000003FFFE0000000
0000003FFFE0000000
0000003FFFE0000000
0000003FFFE0000000
0000003FFFE0000000
001FFFFFFFFFFFC000
001FFFFFFFFFFFC000
001FFFFFFFFFFFC000
001FFFFFFFFFFFC000
001FFFFFFFFFFFC000
001FFFFFFFFFFFC000
001FFFFFFFFFFFC000
0000003FFFE0000000
0000003FFFE0000000
0000003FFFE0000000
0000003FFFE0000000
0000003FFFE0000000
0000003FFFE0000000
0000003FFFE0000000
0000003FFFE0000000
0000003FFFE0000000
0000003FFFE0000000
ENDCHAR
STARTCHAR 00A6
ENCODING 166
SWIDTH 234 0
DWIDTH 23 0
BBX 13 98 5 -20
BITMAP
FFF8
FFF8
FFF8
FFF8
FFF8
FFF8
FFF8
FFF8
FFF8
FFF8
FFF8
FFF8
FFF8
FFF8
FFF8
FFF8
FFF8
FFF8
FFF8
FFF8
FFF8
FFF8
FFF8
FFF8
FFF8
FFF8
FFF8
FFF8
FFF8
FFF8
FFF8
FFF8
FFF8
FFF8
FFF8
FFF8
FFF8
FFF8
FFF8
0000
0000
0000
0000
0000
0000
0000
0000
0000
0000
0000
0000
0000
0000
0000
0000
0000
0000
0000
0000
FFF8
FFF8
FFF8
FFF8
FFF8
FFF8
FFF8
FFF8
FFF8
FFF8
FFF8
FFF8
FFF8
FFF8
FFF8
FFF8
FFF8
FFF8
FFF8
FFF8
FFF8
FFF8
FFF8
FFF8
FFF8
FFF8
FFF8
FFF8
FFF8
FFF8
FFF8
FFF8
FFF8
FFF8
FFF8
FFF8
FFF8
FFF8
FFF8
ENDCHAR
STARTCHAR 00A7
ENCODING 167
SWIDTH 602 0
DWIDTH 59 0
BBX 56 91 2 -20
BITMAP
000007FFC00000
00007FFFFC0000
0003FFFFFF8000
0007FFFFFFE000
001FFFFFFFF000
003FFFFFFFF800
007FFFFFFFFC00
00FFFFFFFFFE00
00FFFFFFFFFF00
01FFFFFFFFFF00
01FFFF83FFFF80
03FFFE007FFF80
03FFFC003FFF80
03FFF8001FFF80
03FFF8001FFFC0
03FFF8001FFFC0
03FFF8000FFFC0
03FFF800000000
03FFFC00000000
03FFFC00000000
03FFFF00000000
01FFFF80000000
01FFFFE0000000
00FFFFF0000000
00FFFFFC000000
007FFFFF000000
003FFFFFC00000
001FFFFFE00000
007FFFFFF80000
01FFFFFFFE0000
03FFFFFFFF8000
07FFFFFFFFC000
0FFFFFFFFFF000
1FFFFFFFFFF800
3FFFFBFFFFFE00
7FFFE0FFFFFF00
7FFFC07FFFFF80
7FFF001FFFFFC0
FFFF0007FFFFE0
FFFE0003FFFFF0
FFFE0000FFFFF8
FFFE00003FFFFC
FFFE00000FFFFC
FFFE000007FFFE
FFFF000003FFFE
FFFF000001FFFE
7FFF800000FFFF
7FFFE00000FFFF
7FFFF000007FFF
3FFFFC00007FFF
1FFFFE00007FFF
1FFFFF8000FFFF
0FFFFFE000FFFE
07FFFFF801FFFE
03FFFFFC03FFFE
01FFFFFF07FFFC
007FFFFFDFFFFC
003FFFFFFFFFF8
000FFFFFFFFFF0
0007FFFFFFFFE0
0001FFFFFFFFC0
00007FFFFFFF00
00003FFFFFFC00
00000FFFFFF000
000003FFFFFC00
000000FFFFFC00
0000007FFFFE00
0000001FFFFF00
00000007FFFF80
00000003FFFF80
00000000FFFF80
000000007FFFC0
000000003FFFC0
000000003FFFC0
03FFF0001FFFC0
03FFF0001FFFC0
03FFF0001FFFC0
03FFF8003FFFC0
03FFF8003FFF80
01FFFE007FFF80
01FFFF83FFFF80
01FFFFFFFFFF00
00FFFFFFFFFF00
007FFFFFFFFE00
007FFFFFFFFE00
003FFFFFFFFC00
001FFFFFFFF000
0007FFFFFFE000
0001FFFFFF8000
00007FFFFE0000
000007FFC00000
ENDCHAR
STARTCHAR 00A8
ENCODING 168
SWIDTH 397 0
DWIDTH 39 0
BBX 35 13 2 56
BITMAP
FFFE07FFE0
FFFE07FFE0
FFFE07FFE0
FFFE07FFE0
FFFE07FFE0
FFFE07FFE0
FFFE07FFE0
FFFE07FFE0
FFFE07FFE0
FFFE07FFE0
FFFE07FFE0
FFFE07FFE0
FFFE07FFE0
ENDCHAR
STARTCHAR 00A9
ENCODING 169
SWIDTH 806 0
DWIDTH 79 0
BBX 75 73 2 -2
BITMAP
00000001FFF000000000
0000001FFFFF80000000
000001FFFFFFF0000000
000007FFFFFFFC000000
00001FFFFFFFFF000000
00007FFFFFFFFFC00000
0000FFFFFFFFFFE00000
0003FFFFFFFFFFF80000
0007FFFFFFFFFFFC0000
000FFFFFFFFFFFFE0000
001FFFFFC07FFFFF0000
003FFFF80003FFFF8000
007FFFE000007FFFC000
00FFFF8000001FFFE000
01FFFE0000000FFFF000
01FFF800000003FFF000
03FFF000000001FFF800
07FFE001FFF800FFFC00
07FFC007FFFE007FFC00
0FFF801FFFFF803FFE00
0FFF003FFFFFC01FFE00
1FFF00FFFFFFE01FFF00
1FFE01FFFFFFF00FFF00
1FFE01FFFFFFF807FF80
3FFC03FFFFFFFC07FF80
3FFC07FFFFFFFC03FF80
3FF807FFE07FFE03FFC0
7FF80FFF803FFE03FFC0
7FF80FFF001FFE01FFC0
7FF00FFF000FFF01FFC0
7FF00FFE000FFF01FFC0
7FF01FFE000FFF01FFE0
7FF01FFE00000000FFE0
FFF01FFE00000000FFE0
FFE01FFC00000000FFE0
FFE01FFC00000000FFE0
FFE01FFC00000000FFE0
FFE01FFC00000000FFE0
FFE01FFE00000000FFE0
FFF01FFE00000000FFE0
7FF01FFE0007FF00FFE0
7FF01FFE0007FF01FFE0
7FF00FFE000FFF01FFC0
7FF00FFF000FFF01FFC0
7FF80FFF001FFE01FFC0
7FF80FFF803FFE03FFC0
3FF807FFE07FFE03FFC0
3FFC07FFFFFFFC03FF80
3FFC03FFFFFFFC07FF80
1FFE01FFFFFFF807FF80
1FFE01FFFFFFF00FFF00
1FFF00FFFFFFE01FFF00
0FFF003FFFFFC01FFE00
0FFF801FFFFF803FFE00
07FFC007FFFE007FFC00
07FFE001FFF800FFFC00
03FFF000000001FFF800
01FFF800000003FFF000
00FFFE0000000FFFF000
00FFFF0000001FFFE000
007FFFE000007FFFC000
003FFFF80003FFFF8000
001FFFFFC07FFFFF0000
000FFFFFFFFFFFFE0000
0007FFFFFFFFFFFC0000
0003FFFFFFFFFFF80000
0000FFFFFFFFFFE00000
00007FFFFFFFFFC00000
00001FFFFFFFFF000000
000007FFFFFFFC000000
000000FFFFFFF0000000
0000003FFFFF80000000
00000001FFF000000000
ENDCHAR
STARTCHAR 00AA
ENCODING 170
SWIDTH 489 0
DWIDTH 48 0
BBX 44 46 1 25
BITMAP
0000FFFC0000
000FFFFFC000
003FFFFFF000
00FFFFFFFC00
01FFFFFFFE00
03FFFFFFFF00
07FFFFFFFF80
0FFFFFFFFF80
0FFFFFFFFFC0
1FFFFFFFFFC0
1FFFC00FFFC0
1FFF8007FFE0
3FFF0007FFE0
3FFF0007FFE0
3FFF0007FFE0
3FFE0007FFE0
00000007FFE0
0000001FFFE0
00001FFFFFE0
000FFFFFFFE0
00FFFFFFFFE0
03FFFFFFFFE0
07FFFFFFFFE0
1FFFFFFFFFE0
3FFFFFFFFFE0
3FFFFFF7FFE0
7FFFF807FFE0
7FFF0007FFE0
FFFE0007FFE0
FFFC0007FFE0
FFFC0007FFE0
FFFC0007FFE0
FFFC000FFFE0
FFFC000FFFE0
FFFE001FFFE0
FFFF007FFFE0
FFFFE3FFFFE0
7FFFFFFFFFE0
7FFFFFFFFFE0
3FFFFFFFFFE0
3FFFFFFFFFE0
1FFFFFFBFFE0
0FFFFFF3FFE0
03FFFFC3FFF0
00FFFF01FFF0
001FF8000000
ENDCHAR
STARTCHAR 00AB
ENCODING 171
SWIDTH 479 0
DWIDTH 47 0
BBX 37 42 5 5
BITMAP
0000800008
0001800018
0003800038
0007800078
001F8001F8
003F8003F8
007F8007F8
00FF800FF8
03FF801FF8
07FF807FF8
0FFF80FFF8
1FFF81FFF8
7FFF83FFF8
FFFF8FFFF8
FFFF0FFFF8
FFFE0FFFE0
FFFC0FFFC0
FFF80FFF80
FFE00FFE00
FFC00FFC00
FF800FF800
FF800FF800
FFC00FFC00
FFE00FFF00
FFF80FFF80
FFFC0FFFC0
FFFE0FFFE0
FFFF0FFFF8
FFFF8FFFF8
7FFF83FFF8
1FFF81FFF8
0FFF80FFF8
07FF807FF8
03FF801FF8
00FF800FF8
007F8007F8
003F8003F8
001F8001F8
0007800078
0003800038
0001800018
0000800008
ENDCHAR
STARTCHAR 00AC
ENCODING 172
SWIDTH 530 0
DWIDTH 52 0
BBX 46 29 3 15
BITMAP
FFFFFFFFFFFC
FFFFFFFFFFFC
FFFFFFFFFFFC
FFFFFFFFFFFC
FFFFFFFFFFFC
FFFFFFFFFFFC
FFFFFFFFFFFC
FFFFFFFFFFFC
FFFFFFFFFFFC
FFFFFFFFFFFC
FFFFFFFFFFFC
FFFFFFFFFFFC
FFFFFFFFFFFC
00000000FFFC
00000000FFFC
00000000FFFC
00000000FFFC
00000000FFFC
00000000FFFC
00000000FFFC
00000000FFFC
00000000FFFC
00000000FFFC
00000000FFFC
00000000FFFC
00000000FFFC
00000000FFFC
00000000FFFC
00000000FFFC
ENDCHAR
STARTCHAR 00AD
ENCODING 173
SWIDTH 357 0
DWIDTH 35 0
BBX 29 13 3 21
BITMAP
FFFFFFF8
FFFFFFF8
FFFFFFF8
FFFFFFF8
FFFFFFF8
FFFFFFF8
FFFFFFF8
FFFFFFF8
FFFFFFF8
FFFFFFF8
FFFFFFF8
FFFFFFF8
FFFFFFF8
ENDCHAR
STARTCHAR 00AE
ENCODING 174
SWIDTH 561 0
DWIDTH 55 0
BBX 51 50 2 21
BITMAP
00000FFE000000
0000FFFFC00000
0003FFFFF80000
000FFFFFFE0000
003FFFFFFF0000
007FFFFFFFC000
00FFE000FFE000
01FF80003FF000
03FE00000FF800
07F8000003FC00
0FF0000001FE00
0FE0000000FE00
1FC1FFFE007F00
3F81FFFF803F00
3F81FFFFE03F80
3F01FFFFF01F80
7F01FFFFF01FC0
7E01FFFFF00FC0
7E01FC07F80FC0
FE01FC03F80FE0
FC01FC03F807E0
FC01FC07F007E0
FC01FC07F007E0
FC01FFFFE007E0
FC01FFFFC007E0
FC01FFFFC007E0
FC01FFFFE007E0
FC01FFFFF007E0
FC01FC0FF007E0
FC01FC07F007E0
FE01FC07F00FC0
7E01FC07F00FC0
7E01FC07F00FC0
7F01FC03F01FC0
3F01FC03F01F80
3F81FC03F83F80
1FC1FC03F87F00
1FE0000000FF00
0FF0000001FE00
07F8000003FC00
07FC000007F800
03FF00001FF800
01FFC0007FF000
00FFF803FFE000
003FFFFFFF8000
001FFFFFFF0000
0007FFFFFC0000
0001FFFFF00000
00003FFF800000
000000F0000000
ENDCHAR
STARTCHAR 00AF
ENCODING 175
SWIDTH 397 0
DWIDTH 39 0
BBX 33 10 3 56
BITMAP
FFFFFFFF80
FFFFFFFF80
FFFFFFFF80
FFFFFFFF80
FFFFFFFF80
FFFFFFFF80
FFFFFFFF80
FFFFFFFF80
FFFFFFFF80
FFFFFFFF80
ENDCHAR
STARTCHAR 00B0
ENCODING 176
SWIDTH 357 0
DWIDTH 35 0
BBX 31 30 2 41
BITMAP
001FE000
00FFFC00
03FFFF00
07FFFFC0
0FFFFFE0
1FFFFFF0
3FFFFFF0
3FFFFFF8
7FFFFFF8
7FF03FFC
FFE00FFC
FFC007FE
FFC007FE
FF8007FE
FF8007FE
FF8007FE
FFC007FE
FFC007FE
FFC00FFC
FFE01FFC
7FF83FFC
7FFFFFF8
3FFFFFF8
1FFFFFF0
1FFFFFE0
0FFFFFC0
03FFFF80
01FFFF00
007FF800
00038000
ENDCHAR
STARTCHAR 00B1
ENCODING 177
SWIDTH 530 0
DWIDTH 52 0
BBX 46 58 3 0
BITMAP
0000FFFC0000
0000FFFC0000
0000FFFC0000
0000FFFC0000
0000FFFC0000
0000FFFC0000
0000FFFC0000
0000FFFC0000
0000FFFC0000
0000FFFC0000
0000FFFC0000
0000FFFC0000
0000FFFC0000
FFFFFFFFFFFC
FFFFFFFFFFFC
FFFFFFFFFFFC
FFFFFFFFFFFC
FFFFFFFFFFFC
FFFFFFFFFFFC
FFFFFFFFFFFC
FFFFFFFFFFFC
FFFFFFFFFFFC
FFFFFFFFFFFC
FFFFFFFFFFFC
FFFFFFFFFFFC
FFFFFFFFFFFC
0000FFFC0000
0000FFFC0000
0000FFFC0000
0000FFFC0000
0000FFFC0000
0000FFFC0000
0000FFFC0000
0000FFFC0000
0000FFFC0000
0000FFFC0000
0000FFFC0000
0000FFFC0000
0000FFFC0000
000000000000
000000000000
000000000000
000000000000
000000000000
000000000000
FFFFFFFFFFFC
FFFFFFFFFFFC
FFFFFFFFFFFC
FFFFFFFFFFFC
FFFFFFFFFFFC
FFFFFFFFFFFC
FFFFFFFFFFFC
FFFFFFFFFFFC
FFFFFFFFFFFC
FFFFFFFFFFFC
FFFFFFFFFFFC
FFFFFFFFFFFC
FFFFFFFFFFFC
ENDCHAR
STARTCHAR 00B2
ENCODING 178
SWIDTH 357 0
DWIDTH 35 0
BBX 32 41 1 52
BITMAP
000FFC00
007FFF80
01FFFFE0
03FFFFF0
07FFFFF8
0FFFFFFC
0FFFFFFE
1FFFFFFE
1FFFFFFF
3FFC0FFF
3FF807FF
3FF007FF
7FF003FF
7FF003FF
7FF007FF
000007FF
00000FFF
00003FFE
0000FFFE
0003FFFC
000FFFF8
003FFFF8
007FFFE0
01FFFFC0
03FFFF00
07FFFC00
0FFFF000
0FFFC000
1FFF0000
3FFE0000
3FFC0000
3FF80000
7FFFFFFF
7FFFFFFF
7FFFFFFF
7FFFFFFF
7FFFFFFF
7FFFFFFF
FFFFFFFF
FFFFFFFF
FFFFFFFF
ENDCHAR
STARTCHAR 00B3
ENCODING 179
SWIDTH 367 0
DWIDTH 36 0
BBX 34 42 1 51
BITMAP
000FFE0000
007FFFC000
01FFFFF000
03FFFFF800
07FFFFFC00
0FFFFFFE00
1FFFFFFF00
1FFFFFFF00
3FFFBFFF00
3FF807FF80
3FF803FF80
3FF003FF80
7FF003FF80
000003FF00
000003FF00
000007FF00
0003FFFE00
0003FFFC00
0003FFF800
0003FFF000
0003FFF800
0003FFFE00
0003FFFE00
0003FFFF00
00000FFF80
000003FF80
FFE003FF80
FFE001FFC0
FFE001FFC0
7FE001FFC0
7FE001FFC0
7FF003FFC0
7FFC07FF80
3FFFFFFF80
3FFFFFFF80
1FFFFFFF00
1FFFFFFE00
0FFFFFFC00
07FFFFF800
01FFFFF000
007FFFC000
000FFE0000
ENDCHAR
STARTCHAR 00B4
ENCODING 180
SWIDTH 397 0
DWIDTH 39 0
BBX 24 14 8 57
BITMAP
00FFFF
01FFFE
03FFFC
03FFF8
07FFF0
07FFF0
0FFFE0
1FFFC0
1FFF80
3FFF00
3FFE00
7FFC00
FFF800
FFF000
ENDCHAR
STARTCHAR 00B5
ENCODING 181
SWIDTH 581 0
DWIDTH 57 0
BBX 49 70 4 -19
BITMAP
FFFF00007FFF80
FFFF00007FFF80
FFFF00007FFF80
FFFF00007FFF80
FFFF00007FFF80
FFFF00007FFF80
FFFF00007FFF80
FFFF00007FFF80
FFFF00007FFF80
FFFF00007FFF80
FFFF00007FFF80
FFFF00007FFF80
FFFF00007FFF80
FFFF00007FFF80
FFFF00007FFF80
FFFF00007FFF80
FFFF00007FFF80
FFFF00007FFF80
FFFF00007FFF80
FFFF00007FFF80
FFFF00007FFF80
FFFF00007FFF80
FFFF00007FFF80
FFFF00007FFF80
FFFF00007FFF80
FFFF00007FFF80
FFFF00007FFF80
FFFF00007FFF80
FFFF00007FFF80
FFFF00007FFF80
FFFF00007FFF80
FFFF00007FFF80
FFFF00007FFF80
FFFF0000FFFF80
FFFF0000FFFF80
FFFF8001FFFF80
FFFF8003FFFF80
FFFFE007FFFF80
FFFFF81FFFFF80
FFFFFFFFFFFF80
FFFFFFFFFFFF80
FFFFFFFFFFFF80
FFFFFFFFFFFF80
FFFFFFFFFFFF80
FFFFFFFFBFFF80
FFFFFFFFBFFF80
FFFFFFFF3FFF80
FFFFFFFE3FFF80
FFFFFFF83FFF80
FFFFFFF03FFF80
FFFFFFC03FFF80
FFFFFE00000000
FFFF0000000000
FFFF0000000000
FFFF0000000000
FFFF0000000000
FFFF0000000000
FFFF0000000000
FFFF0000000000
FFFF0000000000
FFFF0000000000
FFFF0000000000
FFFF0000000000
FFFF0000000000
FFFF0000000000
FFFF0000000000
FFFF0000000000
FFFF0000000000
FFFF0000000000
FFFF0000000000
ENDCHAR
STARTCHAR 00B6
ENCODING 182
SWIDTH 591 0
DWIDTH 58 0
BBX 51 70 2 0
BITMAP
0000FFFFFFFFE0
000FFFFFFFFFE0
007FFFFFFFFFE0
01FFFFFFFFFFE0
03FFFFFFFFFFE0
07FFFFFFFFFFE0
0FFFFFFFFFFFE0
1FFFFFFFFFFFE0
3FFFFFFFFFFFE0
3FFFFFFFFFFFE0
7FFFFFFFFFFFE0
7FFFFFFF80FFE0
7FFFFFFF80FFE0
7FFFFFFF80FFE0
FFFFFFFF80FFE0
FFFFFFFF80FFE0
FFFFFFFF80FFE0
FFFFFFFF80FFE0
FFFFFFFF80FFE0
FFFFFFFF80FFE0
7FFFFFFF80FFE0
7FFFFFFF80FFE0
7FFFFFFF80FFE0
7FFFFFFF80FFE0
3FFFFFFF80FFE0
3FFFFFFF80FFE0
1FFFFFFF80FFE0
0FFFFFFF80FFE0
07FFFFFF80FFE0
03FFFFFF80FFE0
01FFFFFF80FFE0
007FFFFF80FFE0
001FFFFF80FFE0
0003FFFF80FFE0
000003FF80FFE0
000003FF80FFE0
000003FF80FFE0
000003FF80FFE0
000003FF80FFE0
000003FF80FFE0
000003FF80FFE0
000003FF80FFE0
000003FF80FFE0
000003FF80FFE0
000003FF80FFE0
000003FF80FFE0
000003FF80FFE0
000003FF80FFE0
000003FF80FFE0
000003FF80FFE0
000003FF80FFE0
000003FF80FFE0
000003FF80FFE0
000003FF80FFE0
000003FF80FFE0
000003FF80FFE0
000003FF80FFE0
000003FF80FFE0
000003FF80FFE0
000003FF80FFE0
000003FF80FFE0
000003FF80FFE0
000003FF80FFE0
000003FF80FFE0
000003FF80FFE0
000003FF80FFE0
000003FF80FFE0
000003FF80FFE0
000003FF80FFE0
000003FF80FFE0
ENDCHAR
STARTCHAR 00B7
ENCODING 183
SWIDTH 244 0
DWIDTH 24 0
BBX 18 17 3 26
BITMAP
FFFFC0
FFFFC0
FFFFC0
FFFFC0
FFFFC0
FFFFC0
FFFFC0
FFFFC0
FFFFC0
FFFFC0
FFFFC0
FFFFC0
FFFFC0
FFFFC0
FFFFC0
FFFFC0
FFFFC0
ENDCHAR
STARTCHAR 00B8
ENCODING 184
SWIDTH 397 0
DWIDTH 39 0
BBX 22 22 9 -21
BITMAP
01FC00
03F800
07F000
07E000
0FC000
1FFE00
1FFFC0
1FFFE0
1FFFF0
007FF8
003FF8
001FF8
001FFC
001FFC
003FF8
007FF8
FFFFF8
FFFFF0
FFFFE0
FFFFC0
FFFF00
7FF800
ENDCHAR
STARTCHAR 00B9
ENCODING 185
SWIDTH 244 0
DWIDTH 24 0
BBX 20 40 1 52
BITMAP
001FF0
001FF0
003FF0
003FF0
007FF0
01FFF0
07FFF0
FFFFF0
FFFFF0
FFFFF0
FFFFF0
FFFFF0
FFFFF0
FFFFF0
007FF0
007FF0
007FF0
007FF0
007FF0
007FF0
007FF0
007FF0
007FF0
007FF0
007FF0
007FF0
007FF0
007FF0
007FF0
007FF0
007FF0
007FF0
007FF0
007FF0
007FF0
007FF0
007FF0
007FF0
007FF0
007FF0
ENDCHAR
STARTCHAR 00BA
ENCODING 186
SWIDTH 510 0
DWIDTH 50 0
BBX 46 46 2 25
BITMAP
00007FF00000
0003FFFF0000
001FFFFFC000
003FFFFFF000
00FFFFFFFC00
01FFFFFFFE00
03FFFFFFFF00
07FFFFFFFF80
0FFFFFFFFFC0
1FFFFFFFFFC0
1FFFFFFFFFE0
3FFFE01FFFF0
3FFF800FFFF0
7FFF0003FFF0
7FFF0003FFF8
7FFE0001FFF8
FFFE0001FFF8
FFFC0000FFFC
FFFC0000FFFC
FFFC0000FFFC
FFFC0000FFFC
FFFC0000FFFC
FFF80000FFFC
FFF80000FFFC
FFFC0000FFFC
FFFC0000FFFC
FFFC0000FFFC
FFFC0000FFFC
FFFC0000FFFC
FFFC0001FFF8
7FFE0001FFF8
7FFE0003FFF8
7FFF0003FFF0
3FFF800FFFF0
3FFFE01FFFF0
1FFFFFFFFFE0
1FFFFFFFFFC0
0FFFFFFFFFC0
07FFFFFFFF80
03FFFFFFFF00
01FFFFFFFE00
00FFFFFFFC00
007FFFFFF000
001FFFFFE000
0003FFFF0000
00007FF80000
ENDCHAR
STARTCHAR 00BB
ENCODING 187
SWIDTH 479 0
DWIDTH 47 0
BBX 37 42 5 5
BITMAP
8000080000
C0000C0000
E0000E0000
F8000F8000
FC000FC000
FE000FE000
FF000FF000
FFC00FFC00
FFE00FFE00
FFF00FFF00
FFF80FFF80
FFFE0FFFE0
FFFF0FFFF0
FFFF8FFFF8
7FFF87FFF8
3FFF83FFF8
1FFF81FFF8
07FF807FF8
03FF803FF8
01FF801FF8
00FF800FF8
00FF800FF8
01FF801FF8
03FF803FF8
07FF807FF8
1FFF81FFF8
3FFF83FFF8
7FFF87FFF8
FFFF8FFFF8
FFFF0FFFF0
FFFE0FFFE0
FFF80FFF80
FFF00FFF00
FFE00FFE00
FFC00FFC00
FF000FF000
FE000FE000
FC000FC000
F8000F8000
E0000E0000
C0000C0000
8000080000
ENDCHAR
STARTCHAR 00BC
ENCODING 188
SWIDTH 724 0
DWIDTH 71 0
BBX 68 70 1 0
BITMAP
001FF0000003FF0000
001FF0000007FE0000
001FF0000007FE0000
003FF000000FFC0000
007FF000000FF80000
00FFF000001FF80000
01FFF000001FF00000
1FFFF000003FF00000
FFFFF000003FE00000
FFFFF000007FE00000
FFFFF000007FC00000
FFFFF00000FFC00000
FFFFF00001FF800000
FFFFF00001FF800000
FFFFF00003FF000000
007FF00003FF000000
007FF00007FE000000
007FF00007FE000000
007FF0000FFC000000
007FF0000FF8000000
007FF0001FF8000000
007FF0001FF0000000
007FF0003FF0000000
007FF0003FE0000000
007FF0007FE0000000
007FF0007FC0000000
007FF000FFC0000000
007FF001FF80000000
007FF001FF80000000
007FF003FF00000000
007FF003FF000FFE00
007FF007FE001FFE00
007FF007FE003FFE00
007FF00FFC007FFE00
007FF00FF8007FFE00
007FF01FF800FFFE00
007FF01FF001FFFE00
007FF03FF003FFFE00
007FF03FE007FFFE00
007FF07FE00FFFFE00
007FF07FC00FFFFE00
000000FFC01FF7FE00
000000FF803FE7FE00
000001FF807FE7FE00
000003FF00FFC7FE00
000003FF01FF87FE00
000007FE03FF07FE00
000007FE03FE07FE00
00000FFC07FC07FE00
00000FFC0FF807FE00
00001FF81FF807FE00
00001FF03FF007FE00
00003FF03FE007FE00
00003FE03FFFFFFFF0
00007FE03FFFFFFFF0
00007FC03FFFFFFFF0
0000FFC03FFFFFFFF0
0000FF803FFFFFFFF0
0001FF803FFFFFFFF0
0003FF003FFFFFFFF0
0003FF003FFFFFFFF0
0007FE003FFFFFFFF0
0007FE00000007FE00
000FFC00000007FE00
000FFC00000007FE00
001FF800000007FE00
001FF000000007FE00
003FF000000007FE00
003FE000000007FE00
007FE000000007FE00
ENDCHAR
STARTCHAR 00BD
ENCODING 189
SWIDTH 765 0
DWIDTH 75 0
BBX 73 70 1 0
BITMAP
001FF0000001FF800000
001FF0000003FF000000
001FF0000003FE000000
003FF0000007FE000000
007FF0000007FC000000
00FFF000000FFC000000
01FFF000000FF8000000
1FFFF000001FF8000000
FFFFF000001FF0000000
FFFFF000003FF0000000
FFFFF000003FE0000000
FFFFF000007FE0000000
FFFFF00000FFC0000000
FFFFF00000FFC0000000
FFFFF00001FF80000000
007FF00001FF80000000
007FF00003FF00000000
007FF00003FF00000000
007FF00007FE00000000
007FF00007FC00000000
007FF0000FFC00000000
007FF0000FF800000000
007FF0001FF800000000
007FF0001FF000000000
007FF0003FF000000000
007FF0003FE000000000
007FF0007FE000000000
007FF000FFC000000000
007FF000FFC000000000
007FF001FF8007FC0000
007FF001FF803FFFC000
007FF003FF00FFFFE000
007FF003FF01FFFFF800
007FF007FE03FFFFFC00
007FF007FC07FFFFFE00
007FF00FFC0FFFFFFE00
007FF00FF81FFFFFFF00
007FF01FF81FFFFFFF00
007FF01FF01FFE0FFF80
007FF03FF03FF803FF80
007FF03FE03FF803FF80
0000007FE03FF003FF80
000000FFC03FF003FF80
000000FFC03FF003FF80
000001FF80000007FF80
000001FF8000000FFF00
000003FF0000001FFF00
000003FF0000007FFE00
000007FE000001FFFE00
000007FC000007FFFC00
00000FFC00001FFFF800
00000FF800007FFFF000
00001FF80000FFFFC000
00001FF00001FFFF8000
00003FF00003FFFE0000
00003FE00007FFF80000
00007FE0000FFFC00000
00007FC0001FFF000000
0000FFC0001FFE000000
0001FF80003FFC000000
0001FF80003FFC000000
0003FF00003FFFFFFF80
0003FF00003FFFFFFF80
0007FE00007FFFFFFF80
0007FE00007FFFFFFF80
000FFC00007FFFFFFF80
000FF800007FFFFFFF80
001FF800007FFFFFFF80
001FF000007FFFFFFF80
003FF000007FFFFFFF80
ENDCHAR
STARTCHAR 00BE
ENCODING 190
SWIDTH 836 0
DWIDTH 82 0
BBX 80 71 1 0
BITMAP
000FFE00000000000000
007FFFC00000007FE000
01FFFFF0000000FFC000
03FFFFF8000000FF8000
07FFFFFC000001FF8000
0FFFFFFE000001FF0000
1FFFFFFF000003FF0000
1FFFFFFF000003FE0000
3FFFBFFF000007FE0000
3FFC07FF800007FC0000
3FF803FF80000FFC0000
3FF003FF80000FF80000
7FF003FF80001FF80000
7FF003FF00003FF00000
000003FF00003FF00000
000003FF00007FE00000
00000FFE00007FE00000
0003FFFE0000FFC00000
0003FFFC0000FFC00000
0003FFF80001FF800000
0003FFF00001FF000000
0003FFFC0003FF000000
0003FFFE0003FE000000
0003FFFF0007FE000000
0003FFFF0007FC000000
000007FF800FFC000000
000003FF800FF8000000
FFE003FFC01FF8000000
FFE001FFC03FF0000000
FFE001FFC03FF0000000
7FE001FFC07FE0000000
7FE001FFC07FE001FFE0
7FF003FFC0FFC001FFE0
7FFC07FF80FFC003FFE0
3FFFFFFF81FF8007FFE0
3FFFFFFF81FF000FFFE0
1FFFFFFF03FF001FFFE0
1FFFFFFE03FE003FFFE0
0FFFFFFC07FE003FFFE0
07FFFFF807FC007FFFE0
01FFFFF00FFC00FFFFE0
007FFFC00FF801FFFFE0
000FFE001FF803FFFFE0
000000003FF007FEFFE0
000000003FF007FCFFE0
000000007FE00FF8FFE0
000000007FE01FF8FFE0
00000000FFC03FF0FFE0
00000000FFC07FE0FFE0
00000001FF80FFC0FFE0
00000001FF00FF80FFE0
00000003FF01FF00FFE0
00000003FE03FF00FFE0
00000007FE03FE00FFE0
00000007FC03FFFFFFFF
0000000FFC03FFFFFFFF
0000000FF803FFFFFFFF
0000001FF803FFFFFFFF
0000001FF003FFFFFFFF
0000003FF003FFFFFFFF
0000007FE003FFFFFFFF
0000007FE003FFFFFFFF
000000FFC003FFFFFFFF
000000FFC0000000FFE0
000001FF80000000FFE0
000001FF80000000FFE0
000003FF00000000FFE0
000003FE00000000FFE0
000007FE00000000FFE0
000007FC00000000FFE0
00000FFC00000000FFE0
ENDCHAR
STARTCHAR 00BF
ENCODING 191
SWIDTH 551 0
DWIDTH 54 0
BBX 50 72 2 -14
BITMAP
00007FFFC00000
00007FFFC00000
00007FFFC00000
00007FFFC00000
00007FFFC00000
00007FFFC00000
00007FFFC00000
00007FFFC00000
00007FFFC00000
00007FFFC00000
00007FFFC00000
00007FFFC00000
00007FFFC00000
00007FFFC00000
00007FFFC00000
00007FFFC00000
00007FFFC00000
00000000000000
00000000000000
00000000000000
00000000000000
00000000000000
00000000000000
00000000000000
00003FFF800000
00003FFF800000
00003FFF800000
00003FFF800000
00003FFF800000
00003FFF800000
00007FFF800000
0000FFFF800000
0001FFFF000000
0003FFFF000000
0007FFFF000000
000FFFFE000000
003FFFFE000000
007FFFFC000000
00FFFFF8000000
03FFFFF0000000
07FFFFE0000000
0FFFFFC0000000
0FFFFF00000000
1FFFFE00000000
3FFFF800000000
3FFFF000000000
7FFFE000000000
7FFFC000000000
7FFF8000000000
FFFF80003FFFC0
FFFF00003FFFC0
FFFF00003FFFC0
FFFF00003FFFC0
FFFF00003FFFC0
FFFF80003FFF80
FFFF80007FFF80
FFFFC000FFFF80
FFFFE001FFFF80
FFFFF003FFFF00
7FFFFFFFFFFF00
7FFFFFFFFFFF00
3FFFFFFFFFFE00
3FFFFFFFFFFE00
1FFFFFFFFFFC00
0FFFFFFFFFF800
07FFFFFFFFF000
03FFFFFFFFE000
01FFFFFFFFC000
007FFFFFFF0000
001FFFFFFC0000
0007FFFFF00000
00007FFE000000
ENDCHAR
STARTCHAR 00C0
ENCODING 192
SWIDTH 734 0
DWIDTH 72 0
BBX 71 88 0 0
BITMAP
00007FFF8000000000
00003FFFC000000000
00001FFFC000000000
00001FFFE000000000
00000FFFF000000000
000007FFF000000000
000003FFF800000000
000001FFF800000000
000000FFFC00000000
0000007FFE00000000
0000003FFE00000000
0000001FFF00000000
0000000FFF80000000
00000007FF80000000
000000000000000000
000000000000000000
000000000000000000
000000000000000000
0000007FFFFC000000
0000007FFFFC000000
0000007FFFFC000000
000000FFFFFE000000
000000FFFFFE000000
000000FFFFFE000000
000001FFFFFF000000
000001FFFFFF000000
000001FFFFFF800000
000003FFFFFF800000
000003FFFFFF800000
000007FFFFFFC00000
000007FFFFFFC00000
000007FFFFFFC00000
00000FFFFFFFE00000
00000FFFEFFFE00000
00000FFFEFFFF00000
00001FFFCFFFF00000
00001FFFC7FFF00000
00001FFFC7FFF80000
00003FFF87FFF80000
00003FFF83FFF80000
00007FFF83FFFC0000
00007FFF03FFFC0000
00007FFF01FFFE0000
0000FFFF01FFFE0000
0000FFFE01FFFE0000
0000FFFE00FFFF0000
0001FFFE00FFFF0000
0001FFFC00FFFF0000
0003FFFC007FFF8000
0003FFFC007FFF8000
0003FFF8007FFFC000
0007FFF8003FFFC000
0007FFF8003FFFC000
0007FFF0003FFFE000
000FFFF0001FFFE000
000FFFF0001FFFE000
000FFFE0001FFFF000
001FFFE0000FFFF000
001FFFE0000FFFF800
003FFFC0000FFFF800
003FFFC00007FFF800
003FFFC00007FFFC00
007FFFFFFFFFFFFC00
007FFFFFFFFFFFFC00
007FFFFFFFFFFFFE00
00FFFFFFFFFFFFFE00
00FFFFFFFFFFFFFF00
00FFFFFFFFFFFFFF00
01FFFFFFFFFFFFFF00
01FFFFFFFFFFFFFF80
03FFFFFFFFFFFFFF80
03FFFFFFFFFFFFFF80
03FFFFFFFFFFFFFFC0
07FFFFFFFFFFFFFFC0
07FFFFFFFFFFFFFFE0
07FFFFFFFFFFFFFFE0
0FFFF80000003FFFE0
0FFFF00000001FFFF0
1FFFF00000001FFFF0
1FFFF00000001FFFF0
1FFFE00000000FFFF8
3FFFE00000000FFFF8
3FFFE00000000FFFFC
3FFFC000000007FFFC
7FFFC000000007FFFC
7FFFC000000007FFFE
7FFF8000000003FFFE
FFFF8000000003FFFE
ENDCHAR
STARTCHAR 00C1
ENCODING 193
SWIDTH 734 0
DWIDTH 72 0
BBX 71 88 0 0
BITMAP
0000000003FFFC0000
0000000007FFF80000
0000000007FFF00000
000000000FFFE00000
000000001FFFE00000
000000001FFFC00000
000000003FFF800000
000000007FFF000000
000000007FFE000000
00000000FFFC000000
00000000FFF8000000
00000001FFF0000000
00000003FFE0000000
00000003FFC0000000
000000000000000000
000000000000000000
000000000000000000
000000000000000000
0000007FFFFC000000
0000007FFFFC000000
0000007FFFFC000000
000000FFFFFE000000
000000FFFFFE000000
000000FFFFFE000000
000001FFFFFF000000
000001FFFFFF000000
000001FFFFFF800000
000003FFFFFF800000
000003FFFFFF800000
000007FFFFFFC00000
000007FFFFFFC00000
000007FFFFFFC00000
00000FFFFFFFE00000
00000FFFEFFFE00000
00000FFFEFFFF00000
00001FFFCFFFF00000
00001FFFC7FFF00000
00001FFFC7FFF80000
00003FFF87FFF80000
00003FFF83FFF80000
00007FFF83FFFC0000
00007FFF03FFFC0000
00007FFF01FFFE0000
0000FFFF01FFFE0000
0000FFFE01FFFE0000
0000FFFE00FFFF0000
0001FFFE00FFFF0000
0001FFFC00FFFF0000
0003FFFC007FFF8000
0003FFFC007FFF8000
0003FFF8007FFFC000
0007FFF8003FFFC000
0007FFF8003FFFC000
0007FFF0003FFFE000
000FFFF0001FFFE000
000FFFF0001FFFE000
000FFFE0001FFFF000
001FFFE0000FFFF000
001FFFE0000FFFF800
003FFFC0000FFFF800
003FFFC00007FFF800
003FFFC00007FFFC00
007FFFFFFFFFFFFC00
007FFFFFFFFFFFFC00
007FFFFFFFFFFFFE00
00FFFFFFFFFFFFFE00
00FFFFFFFFFFFFFF00
00FFFFFFFFFFFFFF00
01FFFFFFFFFFFFFF00
01FFFFFFFFFFFFFF80
03FFFFFFFFFFFFFF80
03FFFFFFFFFFFFFF80
03FFFFFFFFFFFFFFC0
07FFFFFFFFFFFFFFC0
07FFFFFFFFFFFFFFE0
07FFFFFFFFFFFFFFE0
0FFFF80000003FFFE0
0FFFF00000001FFFF0
1FFFF00000001FFFF0
1FFFF00000001FFFF0
1FFFE00000000FFFF8
3FFFE00000000FFFF8
3FFFE00000000FFFFC
3FFFC000000007FFFC
7FFFC000000007FFFC
7FFFC000000007FFFE
7FFF8000000003FFFE
FFFF8000000003FFFE
ENDCHAR
STARTCHAR 00C2
ENCODING 194
SWIDTH 734 0
DWIDTH 72 0
BBX 71 88 0 0
BITMAP
0000003FFFF0000000
0000003FFFF8000000
0000007FFFFC000000
000000FFFFFE000000
000001FFFFFF000000
000003FFFFFF000000
000007FFFFFF800000
000007FFEFFFC00000
00000FFFC7FFE00000
00001FFF83FFF00000
00003FFF01FFF80000
00007FFE01FFF80000
0000FFFC00FFFC0000
0000FFF8007FFE0000
000000000000000000
000000000000000000
000000000000000000
000000000000000000
0000007FFFFC000000
0000007FFFFC000000
0000007FFFFC000000
000000FFFFFE000000
000000FFFFFE000000
000000FFFFFE000000
000001FFFFFF000000
000001FFFFFF000000
000001FFFFFF800000
000003FFFFFF800000
000003FFFFFF800000
000007FFFFFFC00000
000007FFFFFFC00000
000007FFFFFFC00000
00000FFFFFFFE00000
00000FFFEFFFE00000
00000FFFEFFFF00000
00001FFFCFFFF00000
00001FFFC7FFF00000
00001FFFC7FFF80000
00003FFF87FFF80000
00003FFF83FFF80000
00007FFF83FFFC0000
00007FFF03FFFC0000
00007FFF01FFFE0000
0000FFFF01FFFE0000
0000FFFE01FFFE0000
0000FFFE00FFFF0000
0001FFFE00FFFF0000
0001FFFC00FFFF0000
0003FFFC007FFF8000
0003FFFC007FFF8000
0003FFF8007FFFC000
0007FFF8003FFFC000
0007FFF8003FFFC000
0007FFF0003FFFE000
000FFFF0001FFFE000
000FFFF0001FFFE000
000FFFE0001FFFF000
001FFFE0000FFFF000
001FFFE0000FFFF800
003FFFC0000FFFF800
003FFFC00007FFF800
003FFFC00007FFFC00
007FFFFFFFFFFFFC00
007FFFFFFFFFFFFC00
007FFFFFFFFFFFFE00
00FFFFFFFFFFFFFE00
00FFFFFFFFFFFFFF00
00FFFFFFFFFFFFFF00
01FFFFFFFFFFFFFF00
01FFFFFFFFFFFFFF80
03FFFFFFFFFFFFFF80
03FFFFFFFFFFFFFF80
03FFFFFFFFFFFFFFC0
07FFFFFFFFFFFFFFC0
07FFFFFFFFFFFFFFE0
07FFFFFFFFFFFFFFE0
0FFFF80000003FFFE0
0FFFF00000001FFFF0
1FFFF00000001FFFF0
1FFFF00000001FFFF0
1FFFE00000000FFFF8
3FFFE00000000FFFF8
3FFFE00000000FFFFC
3FFFC000000007FFFC
7FFFC000000007FFFC
7FFFC000000007FFFE
7FFF8000000003FFFE
FFFF8000000003FFFE
ENDCHAR
STARTCHAR 00C3
ENCODING 195
SWIDTH 734 0
DWIDTH 72 0
BBX 71 88 0 0
BITMAP
000000FE0007FC0000
000003FFC00FFC0000
000007FFF80FFC0000
00000FFFFF9FFC0000
00001FFFFFFFF80000
00001FFFFFFFF80000
00003FFFFFFFF80000
00003FFFFFFFF80000
00003FFFFFFFF00000
00007FFFFFFFF00000
00007FF0FFFFE00000
00007FE01FFFC00000
00007FC007FF000000
00007FC0007C000000
000000000000000000
000000000000000000
000000000000000000
000000000000000000
0000007FFFFC000000
0000007FFFFC000000
0000007FFFFC000000
000000FFFFFE000000
000000FFFFFE000000
000000FFFFFE000000
000001FFFFFF000000
000001FFFFFF000000
000001FFFFFF800000
000003FFFFFF800000
000003FFFFFF800000
000007FFFFFFC00000
000007FFFFFFC00000
000007FFFFFFC00000
00000FFFFFFFE00000
00000FFFEFFFE00000
00000FFFEFFFF00000
00001FFFCFFFF00000
00001FFFC7FFF00000
00001FFFC7FFF80000
00003FFF87FFF80000
00003FFF83FFF80000
00007FFF83FFFC0000
00007FFF03FFFC0000
00007FFF01FFFE0000
0000FFFF01FFFE0000
0000FFFE01FFFE0000
0000FFFE00FFFF0000
0001FFFE00FFFF0000
0001FFFC00FFFF0000
0003FFFC007FFF8000
0003FFFC007FFF8000
0003FFF8007FFFC000
0007FFF8003FFFC000
0007FFF8003FFFC000
0007FFF0003FFFE000
000FFFF0001FFFE000
000FFFF0001FFFE000
000FFFE0001FFFF000
001FFFE0000FFFF000
001FFFE0000FFFF800
003FFFC0000FFFF800
003FFFC00007FFF800
003FFFC00007FFFC00
007FFFFFFFFFFFFC00
007FFFFFFFFFFFFC00
007FFFFFFFFFFFFE00
00FFFFFFFFFFFFFE00
00FFFFFFFFFFFFFF00
00FFFFFFFFFFFFFF00
01FFFFFFFFFFFFFF00
01FFFFFFFFFFFFFF80
03FFFFFFFFFFFFFF80
03FFFFFFFFFFFFFF80
03FFFFFFFFFFFFFFC0
07FFFFFFFFFFFFFFC0
07FFFFFFFFFFFFFFE0
07FFFFFFFFFFFFFFE0
0FFFF80000003FFFE0
0FFFF00000001FFFF0
1FFFF00000001FFFF0
1FFFF00000001FFFF0
1FFFE00000000FFFF8
3FFFE00000000FFFF8
3FFFE00000000FFFFC
3FFFC000000007FFFC
7FFFC000000007FFFC
7FFFC000000007FFFE
7FFF8000000003FFFE
FFFF8000000003FFFE
ENDCHAR
STARTCHAR 00C4
ENCODING 196
SWIDTH 734 0
DWIDTH 72 0
BBX 71 87 0 0
BITMAP
00003FFF83FFF80000
00003FFF83FFF80000
00003FFF83FFF80000
00003FFF83FFF80000
00003FFF83FFF80000
00003FFF83FFF80000
00003FFF83FFF80000
00003FFF83FFF80000
00003FFF83FFF80000
00003FFF83FFF80000
00003FFF83FFF80000
00003FFF83FFF80000
00003FFF83FFF80000
000000000000000000
000000000000000000
000000000000000000
000000000000000000
0000007FFFFC000000
0000007FFFFC000000
0000007FFFFC000000
000000FFFFFE000000
000000FFFFFE000000
000000FFFFFE000000
000001FFFFFF000000
000001FFFFFF000000
000001FFFFFF800000
000003FFFFFF800000
000003FFFFFF800000
000007FFFFFFC00000
000007FFFFFFC00000
000007FFFFFFC00000
00000FFFFFFFE00000
00000FFFEFFFE00000
00000FFFEFFFF00000
00001FFFCFFFF00000
00001FFFC7FFF00000
00001FFFC7FFF80000
00003FFF87FFF80000
00003FFF83FFF80000
00007FFF83FFFC0000
00007FFF03FFFC0000
00007FFF01FFFE0000
0000FFFF01FFFE0000
0000FFFE01FFFE0000
0000FFFE00FFFF0000
0001FFFE00FFFF0000
0001FFFC00FFFF0000
0003FFFC007FFF8000
0003FFFC007FFF8000
0003FFF8007FFFC000
0007FFF8003FFFC000
0007FFF8003FFFC000
0007FFF0003FFFE000
000FFFF0001FFFE000
000FFFF0001FFFE000
000FFFE0001FFFF000
001FFFE0000FFFF000
001FFFE0000FFFF800
003FFFC0000FFFF800
003FFFC00007FFF800
003FFFC00007FFFC00
007FFFFFFFFFFFFC00
007FFFFFFFFFFFFC00
007FFFFFFFFFFFFE00
00FFFFFFFFFFFFFE00
00FFFFFFFFFFFFFF00
00FFFFFFFFFFFFFF00
01FFFFFFFFFFFFFF00
01FFFFFFFFFFFFFF80
03FFFFFFFFFFFFFF80
03FFFFFFFFFFFFFF80
03FFFFFFFFFFFFFFC0
07FFFFFFFFFFFFFFC0
07FFFFFFFFFFFFFFE0
07FFFFFFFFFFFFFFE0
0FFFF80000003FFFE0
0FFFF00000001FFFF0
1FFFF00000001FFFF0
1FFFF00000001FFFF0
1FFFE00000000FFFF8
3FFFE00000000FFFF8
3FFFE00000000FFFFC
3FFFC000000007FFFC
7FFFC000000007FFFC
7FFFC000000007FFFE
7FFF8000000003FFFE
FFFF8000000003FFFE
ENDCHAR
STARTCHAR 00C5
ENCODING 197
SWIDTH 734 0
DWIDTH 72 0
BBX 71 90 0 0
BITMAP
00000001FF00000000
0000000FFFC0000000
0000001FFFF0000000
0000007FFFFC000000
000000FFFFFE000000
000001FFFFFF000000
000001FFFFFF000000
000003FFFFFF800000
000003FFFFFF800000
000007FF01FFC00000
000007FE00FFC00000
000007FC007FC00000
00000FFC007FC00000
00000FFC007FE00000
00000FFC007FE00000
00000FFC007FC00000
00000FFC007FC00000
000007FE00FFC00000
000007FF01FFC00000
000007FF83FFC00000
000003FFFFFF800000
000003FFFFFF800000
000001FFFFFF000000
000000FFFFFE000000
000000FFFFFE000000
000000FFFFFE000000
000001FFFFFF000000
000001FFFFFF000000
000001FFFFFF800000
000003FFFFFF800000
000003FFFFFF800000
000007FFFFFFC00000
000007FFFFFFC00000
000007FFFFFFC00000
00000FFFFFFFE00000
00000FFFEFFFE00000
00000FFFEFFFF00000
00001FFFCFFFF00000
00001FFFC7FFF00000
00001FFFC7FFF80000
00003FFF87FFF80000
00003FFF83FFF80000
00007FFF83FFFC0000
00007FFF03FFFC0000
00007FFF01FFFE0000
0000FFFF01FFFE0000
0000FFFE01FFFE0000
0000FFFE00FFFF0000
0001FFFE00FFFF0000
0001FFFC00FFFF0000
0003FFFC007FFF8000
0003FFFC007FFF8000
0003FFF8007FFFC000
0007FFF8003FFFC000
0007FFF8003FFFC000
0007FFF0003FFFE000
000FFFF0001FFFE000
000FFFF0001FFFE000
000FFFE0001FFFF000
001FFFE0000FFFF000
001FFFE0000FFFF800
003FFFC0000FFFF800
003FFFC00007FFF800
003FFFC00007FFFC00
007FFFFFFFFFFFFC00
007FFFFFFFFFFFFC00
007FFFFFFFFFFFFE00
00FFFFFFFFFFFFFE00
00FFFFFFFFFFFFFF00
00FFFFFFFFFFFFFF00
01FFFFFFFFFFFFFF00
01FFFFFFFFFFFFFF80
03FFFFFFFFFFFFFF80
03FFFFFFFFFFFFFF80
03FFFFFFFFFFFFFFC0
07FFFFFFFFFFFFFFC0
07FFFFFFFFFFFFFFE0
07FFFFFFFFFFFFFFE0
0FFFF80000003FFFE0
0FFFF00000001FFFF0
1FFFF00000001FFFF0
1FFFF00000001FFFF0
1FFFE00000000FFFF8
3FFFE00000000FFFF8
3FFFE00000000FFFFC
3FFFC000000007FFFC
7FFFC000000007FFFC
7FFFC000000007FFFE
7FFF8000000003FFFE
FFFF8000000003FFFE
ENDCHAR
STARTCHAR 00C6
ENCODING 198
SWIDTH 1061 0
DWIDTH 104 0
BBX 101 70 0 0
BITMAP
000000003FFFFFFFFFFFFFFFF8
000000007FFFFFFFFFFFFFFFF8
000000007FFFFFFFFFFFFFFFF8
00000000FFFFFFFFFFFFFFFFF8
00000000FFFFFFFFFFFFFFFFF8
00000000FFFFFFFFFFFFFFFFF8
00000001FFFFFFFFFFFFFFFFF8
00000001FFFFFFFFFFFFFFFFF8
00000003FFFFFFFFFFFFFFFFF8
00000003FFFFFFFFFFFFFFFFF8
00000007FFFFFFFFFFFFFFFFF8
00000007FFFFFFFFFFFFFFFFF8
0000000FFFFFFFFFFFFFFFFFF8
0000000FFFFFFFFFFFFFFFFFF8
0000001FFFF00FFFFFFFFFFFF8
0000001FFFE00FFFF000000000
0000003FFFE00FFFF000000000
0000003FFFC00FFFF000000000
0000007FFFC00FFFF000000000
0000007FFF800FFFF000000000
000000FFFF800FFFF000000000
000000FFFF000FFFF000000000
000001FFFF000FFFF000000000
000001FFFF000FFFF000000000
000003FFFE000FFFF000000000
000003FFFE000FFFF000000000
000007FFFC000FFFF000000000
000007FFFC000FFFF000000000
00000FFFF8000FFFFFFFFFFFC0
00000FFFF8000FFFFFFFFFFFC0
00001FFFF0000FFFFFFFFFFFC0
00001FFFF0000FFFFFFFFFFFC0
00003FFFE0000FFFFFFFFFFFC0
00003FFFE0000FFFFFFFFFFFC0
00007FFFC0000FFFFFFFFFFFC0
00007FFFC0000FFFFFFFFFFFC0
0000FFFF80000FFFFFFFFFFFC0
0000FFFF80000FFFFFFFFFFFC0
0001FFFF00000FFFFFFFFFFFC0
0001FFFF00000FFFFFFFFFFFC0
0003FFFE00000FFFFFFFFFFFC0
0003FFFFFFFFFFFFFFFFFFFFC0
0007FFFFFFFFFFFFF000000000
0007FFFFFFFFFFFFF000000000
000FFFFFFFFFFFFFF000000000
000FFFFFFFFFFFFFF000000000
001FFFFFFFFFFFFFF000000000
001FFFFFFFFFFFFFF000000000
003FFFFFFFFFFFFFF000000000
003FFFFFFFFFFFFFF000000000
003FFFFFFFFFFFFFF000000000
007FFFFFFFFFFFFFF000000000
007FFFFFFFFFFFFFF000000000
00FFFFFFFFFFFFFFF000000000
00FFFFFFFFFFFFFFF000000000
01FFFF0000000FFFFFFFFFFFF8
01FFFF0000000FFFFFFFFFFFF8
03FFFE0000000FFFFFFFFFFFF8
03FFFE0000000FFFFFFFFFFFF8
07FFFC0000000FFFFFFFFFFFF8
07FFFC0000000FFFFFFFFFFFF8
0FFFF80000000FFFFFFFFFFFF8
0FFFF80000000FFFFFFFFFFFF8
1FFFF00000000FFFFFFFFFFFF8
1FFFF00000000FFFFFFFFFFFF8
3FFFE00000000FFFFFFFFFFFF8
3FFFE00000000FFFFFFFFFFFF8
7FFFC00000000FFFFFFFFFFFF8
7FFFC00000000FFFFFFFFFFFF8
FFFF800000000FFFFFFFFFFFF8
ENDCHAR
STARTCHAR 00C7
ENCODING 199
SWIDTH 744 0
DWIDTH 73 0
BBX 68 94 2 -23
BITMAP
00000007FFC0000000
000000FFFFFC000000
000007FFFFFF800000
00003FFFFFFFF00000
00007FFFFFFFF80000
0001FFFFFFFFFE0000
0007FFFFFFFFFF8000
000FFFFFFFFFFFC000
001FFFFFFFFFFFE000
003FFFFFFFFFFFF000
007FFFFFFFFFFFF800
00FFFFFFFFFFFFFC00
01FFFFFFFFFFFFFE00
01FFFFFFFFFFFFFE00
03FFFFFF83FFFFFF00
07FFFFF0003FFFFF00
07FFFFC0000FFFFF80
0FFFFF800003FFFFC0
0FFFFF000001FFFFC0
1FFFFE000000FFFFC0
1FFFFC0000007FFFE0
1FFFF80000007FFFE0
3FFFF80000003FFFE0
3FFFF00000003FFFF0
3FFFF00000001FFFF0
7FFFE00000001FFFF0
7FFFE0000000000000
7FFFE0000000000000
7FFFC0000000000000
7FFFC0000000000000
7FFFC0000000000000
7FFFC0000000000000
FFFFC0000000000000
FFFFC0000000000000
FFFFC0000000000000
FFFFC0000000000000
FFFFC0000000000000
FFFFC0000000000000
FFFFC0000000000000
FFFFC0000000000000
7FFFC0000000000000
7FFFC0000000000000
7FFFC0000000000000
7FFFC0000000000000
7FFFE00000000FFFF0
7FFFE00000001FFFF0
7FFFE00000001FFFF0
3FFFF00000001FFFF0
3FFFF00000003FFFF0
3FFFF00000003FFFE0
1FFFF80000007FFFE0
1FFFFC0000007FFFE0
1FFFFE000000FFFFC0
0FFFFE000001FFFFC0
0FFFFF800003FFFF80
07FFFFC0000FFFFF80
07FFFFF0003FFFFF00
03FFFFFF03FFFFFF00
01FFFFFFFFFFFFFE00
00FFFFFFFFFFFFFE00
00FFFFFFFFFFFFFC00
007FFFFFFFFFFFF800
003FFFFFFFFFFFF000
001FFFFFFFFFFFE000
000FFFFFFFFFFFC000
0003FFFFFFFFFF8000
0001FFFFFFFFFE0000
00007FFFFFFFFC0000
00003FFFFFFFF00000
000007FFFFFFC00000
000000FFFFFE000000
0000000FFFC0000000
00000000FE00000000
00000001FC00000000
00000003F800000000
00000003F000000000
00000007FF00000000
00000007FFE0000000
00000007FFF8000000
00000007FFFC000000
000000001FFC000000
000000000FFE000000
0000000007FE000000
0000000007FE000000
0000000007FE000000
000000000FFE000000
000000000FFE000000
000000003FFE000000
0000007FFFFC000000
0000007FFFF8000000
0000007FFFF0000000
0000007FFFE0000000
0000007FFF80000000
0000000FF800000000
ENDCHAR
STARTCHAR 00C8
ENCODING 200
SWIDTH 622 0
DWIDTH 61 0
BBX 54 88 5 0
BITMAP
00FFFF80000000
007FFF80000000
003FFFC0000000
001FFFE0000000
000FFFE0000000
0007FFF0000000
0003FFF0000000
0001FFF8000000
0000FFFC000000
00007FFC000000
00007FFE000000
00003FFE000000
00001FFF000000
00000FFF800000
00000000000000
00000000000000
00000000000000
00000000000000
FFFFFFFFFFFFFC
FFFFFFFFFFFFFC
FFFFFFFFFFFFFC
FFFFFFFFFFFFFC
FFFFFFFFFFFFFC
FFFFFFFFFFFFFC
FFFFFFFFFFFFFC
FFFFFFFFFFFFFC
FFFFFFFFFFFFFC
FFFFFFFFFFFFFC
FFFFFFFFFFFFFC
FFFFFFFFFFFFFC
FFFFFFFFFFFFFC
FFFFFFFFFFFFFC
FFFFFFFFFFFFFC
FFFF8000000000
FFFF8000000000
FFFF8000000000
FFFF8000000000
FFFF8000000000
FFFF8000000000
FFFF8000000000
FFFF8000000000
FFFF8000000000
FFFF8000000000
FFFF8000000000
FFFF8000000000
FFFF8000000000
FFFFFFFFFFFFC0
FFFFFFFFFFFFC0
FFFFFFFFFFFFC0
FFFFFFFFFFFFC0
FFFFFFFFFFFFC0
FFFFFFFFFFFFC0
FFFFFFFFFFFFC0
FFFFFFFFFFFFC0
FFFFFFFFFFFFC0
FFFFFFFFFFFFC0
FFFFFFFFFFFFC0
FFFFFFFFFFFFC0
FFFFFFFFFFFFC0
FFFFFFFFFFFFC0
FFFF8000000000
FFFF8000000000
FFFF8000000000
FFFF8000000000
FFFF8000000000
FFFF8000000000
FFFF8000000000
FFFF8000000000
FFFF8000000000
FFFF8000000000
FFFF8000000000
FFFF8000000000
FFFF8000000000
FFFFFFFFFFFFFC
FFFFFFFFFFFFFC
FFFFFFFFFFFFFC
FFFFFFFFFFFFFC
FFFFFFFFFFFFFC
FFFFFFFFFFFFFC
FFFFFFFFFFFFFC
FFFFFFFFFFFFFC
FFFFFFFFFFFFFC
FFFFFFFFFFFFFC
FFFFFFFFFFFFFC
FFFFFFFFFFFFFC
FFFFFFFFFFFFFC
FFFFFFFFFFFFFC
FFFFFFFFFFFFFC
ENDCHAR
STARTCHAR 00C9
ENCODING 201
SWIDTH 622 0
DWIDTH 61 0
BBX 54 88 5 0
BITMAP
00000007FFFC00
00000007FFF800
0000000FFFF000
0000001FFFE000
0000001FFFC000
0000003FFF8000
0000003FFF0000
0000007FFE0000
000000FFFC0000
000000FFF80000
000001FFF00000
000003FFE00000
000003FFE00000
000007FFC00000
00000000000000
00000000000000
00000000000000
00000000000000
FFFFFFFFFFFFFC
FFFFFFFFFFFFFC
FFFFFFFFFFFFFC
FFFFFFFFFFFFFC
FFFFFFFFFFFFFC
FFFFFFFFFFFFFC
FFFFFFFFFFFFFC
FFFFFFFFFFFFFC
FFFFFFFFFFFFFC
FFFFFFFFFFFFFC
FFFFFFFFFFFFFC
FFFFFFFFFFFFFC
FFFFFFFFFFFFFC
FFFFFFFFFFFFFC
FFFFFFFFFFFFFC
FFFF8000000000
FFFF8000000000
FFFF8000000000
FFFF8000000000
FFFF8000000000
FFFF8000000000
FFFF8000000000
FFFF8000000000
FFFF8000000000
FFFF8000000000
FFFF8000000000
FFFF8000000000
FFFF8000000000
FFFFFFFFFFFFC0
FFFFFFFFFFFFC0
FFFFFFFFFFFFC0
FFFFFFFFFFFFC0
FFFFFFFFFFFFC0
FFFFFFFFFFFFC0
FFFFFFFFFFFFC0
FFFFFFFFFFFFC0
FFFFFFFFFFFFC0
FFFFFFFFFFFFC0
FFFFFFFFFFFFC0
FFFFFFFFFFFFC0
FFFFFFFFFFFFC0
FFFFFFFFFFFFC0
FFFF8000000000
FFFF8000000000
FFFF8000000000
FFFF8000000000
FFFF8000000000
FFFF8000000000
FFFF8000000000
FFFF8000000000
FFFF8000000000
FFFF8000000000
FFFF8000000000
FFFF8000000000
FFFF8000000000
FFFFFFFFFFFFFC
FFFFFFFFFFFFFC
FFFFFFFFFFFFFC
FFFFFFFFFFFFFC
FFFFFFFFFFFFFC
FFFFFFFFFFFFFC
FFFFFFFFFFFFFC
FFFFFFFFFFFFFC
FFFFFFFFFFFFFC
FFFFFFFFFFFFFC
FFFFFFFFFFFFFC
FFFFFFFFFFFFFC
FFFFFFFFFFFFFC
FFFFFFFFFFFFFC
FFFFFFFFFFFFFC
ENDCHAR
STARTCHAR 00CA
ENCODING 202
SWIDTH 622 0
DWIDTH 61 0
BBX 54 88 5 0
BITMAP
00003FFFF00000
00007FFFF80000
0000FFFFF80000
0001FFFFFC0000
0001FFFFFE0000
0003FFFFFF0000
0007FFFFFF8000
000FFFFFFFC000
001FFFCFFFC000
003FFF87FFE000
003FFF03FFF000
007FFE01FFF800
00FFFC00FFFC00
01FFF8007FFE00
00000000000000
00000000000000
00000000000000
00000000000000
FFFFFFFFFFFFFC
FFFFFFFFFFFFFC
FFFFFFFFFFFFFC
FFFFFFFFFFFFFC
FFFFFFFFFFFFFC
FFFFFFFFFFFFFC
FFFFFFFFFFFFFC
FFFFFFFFFFFFFC
FFFFFFFFFFFFFC
FFFFFFFFFFFFFC
FFFFFFFFFFFFFC
FFFFFFFFFFFFFC
FFFFFFFFFFFFFC
FFFFFFFFFFFFFC
FFFFFFFFFFFFFC
FFFF8000000000
FFFF8000000000
FFFF8000000000
FFFF8000000000
FFFF8000000000
FFFF8000000000
FFFF8000000000
FFFF8000000000
FFFF8000000000
FFFF8000000000
FFFF8000000000
FFFF8000000000
FFFF8000000000
FFFFFFFFFFFFC0
FFFFFFFFFFFFC0
FFFFFFFFFFFFC0
FFFFFFFFFFFFC0
FFFFFFFFFFFFC0
FFFFFFFFFFFFC0
FFFFFFFFFFFFC0
FFFFFFFFFFFFC0
FFFFFFFFFFFFC0
FFFFFFFFFFFFC0
FFFFFFFFFFFFC0
FFFFFFFFFFFFC0
FFFFFFFFFFFFC0
FFFFFFFFFFFFC0
FFFF8000000000
FFFF8000000000
FFFF8000000000
FFFF8000000000
FFFF8000000000
FFFF8000000000
FFFF8000000000
FFFF8000000000
FFFF8000000000
FFFF8000000000
FFFF8000000000
FFFF8000000000
FFFF8000000000
FFFFFFFFFFFFFC
FFFFFFFFFFFFFC
FFFFFFFFFFFFFC
FFFFFFFFFFFFFC
FFFFFFFFFFFFFC
FFFFFFFFFFFFFC
FFFFFFFFFFFFFC
FFFFFFFFFFFFFC
FFFFFFFFFFFFFC
FFFFFFFFFFFFFC
FFFFFFFFFFFFFC
FFFFFFFFFFFFFC
FFFFFFFFFFFFFC
FFFFFFFFFFFFFC
FFFFFFFFFFFFFC
ENDCHAR
STARTCHAR 00CB
ENCODING 203
SWIDTH 622 0
DWIDTH 61 0
BBX 54 87 5 0
BITMAP
007FFF03FFF800
007FFF03FFF800
007FFF03FFF800
007FFF03FFF800
007FFF03FFF800
007FFF03FFF800
007FFF03FFF800
007FFF03FFF800
007FFF03FFF800
007FFF03FFF800
007FFF03FFF800
007FFF03FFF800
007FFF03FFF800
00000000000000
00000000000000
00000000000000
00000000000000
FFFFFFFFFFFFFC
FFFFFFFFFFFFFC
FFFFFFFFFFFFFC
FFFFFFFFFFFFFC
FFFFFFFFFFFFFC
FFFFFFFFFFFFFC
FFFFFFFFFFFFFC
FFFFFFFFFFFFFC
FFFFFFFFFFFFFC
FFFFFFFFFFFFFC
FFFFFFFFFFFFFC
FFFFFFFFFFFFFC
FFFFFFFFFFFFFC
FFFFFFFFFFFFFC
FFFFFFFFFFFFFC
FFFF8000000000
FFFF8000000000
FFFF8000000000
FFFF8000000000
FFFF8000000000
FFFF8000000000
FFFF8000000000
FFFF8000000000
FFFF8000000000
FFFF8000000000
FFFF8000000000
FFFF8000000000
FFFF8000000000
FFFFFFFFFFFFC0
FFFFFFFFFFFFC0
FFFFFFFFFFFFC0
FFFFFFFFFFFFC0
FFFFFFFFFFFFC0
FFFFFFFFFFFFC0
FFFFFFFFFFFFC0
FFFFFFFFFFFFC0
FFFFFFFFFFFFC0
FFFFFFFFFFFFC0
FFFFFFFFFFFFC0
FFFFFFFFFFFFC0
FFFFFFFFFFFFC0
FFFFFFFFFFFFC0
FFFF8000000000
FFFF8000000000
FFFF8000000000
FFFF8000000000
FFFF8000000000
FFFF8000000000
FFFF8000000000
FFFF8000000000
FFFF8000000000
FFFF8000000000
FFFF8000000000
FFFF8000000000
FFFF8000000000
FFFFFFFFFFFFFC
FFFFFFFFFFFFFC
FFFFFFFFFFFFFC
FFFFFFFFFFFFFC
FFFFFFFFFFFFFC
FFFFFFFFFFFFFC
FFFFFFFFFFFFFC
FFFFFFFFFFFFFC
FFFFFFFFFFFFFC
FFFFFFFFFFFFFC
FFFFFFFFFFFFFC
FFFFFFFFFFFFFC
FFFFFFFFFFFFFC
FFFFFFFFFFFFFC
FFFFFFFFFFFFFC
ENDCHAR
STARTCHAR 00CC
ENCODING 204
SWIDTH 275 0
DWIDTH 27 0
BBX 23 88 -1 0
BITMAP
FFFE00
7FFF00
3FFF00
3FFF00
1FFF80
0FFF80
0FFF80
07FFC0
07FFC0
03FFC0
01FFE0
01FFE0
00FFE0
007FF0
000000
000000
000000
000000
03FFFE
03FFFE
03FFFE
03FFFE
03FFFE
03FFFE
03FFFE
03FFFE
03FFFE
03FFFE
03FFFE
03FFFE
03FFFE
03FFFE
03FFFE
03FFFE
03FFFE
03FFFE
03FFFE
03FFFE
03FFFE
03FFFE
03FFFE
03FFFE
03FFFE
03FFFE
03FFFE
03FFFE
03FFFE
03FFFE
03FFFE
03FFFE
03FFFE
03FFFE
03FFFE
03FFFE
03FFFE
03FFFE
03FFFE
03FFFE
03FFFE
03FFFE
03FFFE
03FFFE
03FFFE
03FFFE
03FFFE
03FFFE
03FFFE
03FFFE
03FFFE
03FFFE
03FFFE
03FFFE
03FFFE
03FFFE
03FFFE
03FFFE
03FFFE
03FFFE
03FFFE
03FFFE
03FFFE
03FFFE
03FFFE
03FFFE
03FFFE
03FFFE
03FFFE
03FFFE
ENDCHAR
STARTCHAR 00CD
ENCODING 205
SWIDTH 275 0
DWIDTH 27 0
BBX 23 88 5 0
BITMAP
00FFFE
00FFFC
01FFFC
01FFF8
01FFF0
03FFF0
03FFE0
03FFC0
07FFC0
07FF80
0FFF00
0FFF00
0FFE00
1FFC00
000000
000000
000000
000000
FFFF80
FFFF80
FFFF80
FFFF80
FFFF80
FFFF80
FFFF80
FFFF80
FFFF80
FFFF80
FFFF80
FFFF80
FFFF80
FFFF80
FFFF80
FFFF80
FFFF80
FFFF80
FFFF80
FFFF80
FFFF80
FFFF80
FFFF80
FFFF80
FFFF80
FFFF80
FFFF80
FFFF80
FFFF80
FFFF80
FFFF80
FFFF80
FFFF80
FFFF80
FFFF80
FFFF80
FFFF80
FFFF80
FFFF80
FFFF80
FFFF80
FFFF80
FFFF80
FFFF80
FFFF80
FFFF80
FFFF80
FFFF80
FFFF80
FFFF80
FFFF80
FFFF80
FFFF80
FFFF80
FFFF80
FFFF80
FFFF80
FFFF80
FFFF80
FFFF80
FFFF80
FFFF80
FFFF80
FFFF80
FFFF80
FFFF80
FFFF80
FFFF80
FFFF80
FFFF80
ENDCHAR
STARTCHAR 00CE
ENCODING 206
SWIDTH 275 0
DWIDTH 27 0
BBX 35 88 -4 0
BITMAP
007FFFC000
00FFFFE000
00FFFFE000
01FFFFF000
03FFFFF800
03FFFFF800
07FFFFFC00
0FFFBFFE00
0FFFBFFE00
1FFF1FFF00
3FFE0FFF80
3FFC0FFF80
7FFC07FFC0
FFF803FFE0
0000000000
0000000000
0000000000
0000000000
007FFFC000
007FFFC000
007FFFC000
007FFFC000
007FFFC000
007FFFC000
007FFFC000
007FFFC000
007FFFC000
007FFFC000
007FFFC000
007FFFC000
007FFFC000
007FFFC000
007FFFC000
007FFFC000
007FFFC000
007FFFC000
007FFFC000
007FFFC000
007FFFC000
007FFFC000
007FFFC000
007FFFC000
007FFFC000
007FFFC000
007FFFC000
007FFFC000
007FFFC000
007FFFC000
007FFFC000
007FFFC000
007FFFC000
007FFFC000
007FFFC000
007FFFC000
007FFFC000
007FFFC000
007FFFC000
007FFFC000
007FFFC000
007FFFC000
007FFFC000
007FFFC000
007FFFC000
007FFFC000
007FFFC000
007FFFC000
007FFFC000
007FFFC000
007FFFC000
007FFFC000
007FFFC000
007FFFC000
007FFFC000
007FFFC000
007FFFC000
007FFFC000
007FFFC000
007FFFC000
007FFFC000
007FFFC000
007FFFC000
007FFFC000
007FFFC000
007FFFC000
007FFFC000
007FFFC000
007FFFC000
007FFFC000
ENDCHAR
STARTCHAR 00CF
ENCODING 207
SWIDTH 275 0
DWIDTH 27 0
BBX 31 87 -2 0
BITMAP
FFF83FFE
FFF83FFE
FFF83FFE
FFF83FFE
FFF83FFE
FFF83FFE
FFF83FFE
FFF83FFE
FFF83FFE
FFF83FFE
FFF83FFE
FFF83FFE
FFF83FFE
00000000
00000000
00000000
00000000
01FFFF00
01FFFF00
01FFFF00
01FFFF00
01FFFF00
01FFFF00
01FFFF00
01FFFF00
01FFFF00
01FFFF00
01FFFF00
01FFFF00
01FFFF00
01FFFF00
01FFFF00
01FFFF00
01FFFF00
01FFFF00
01FFFF00
01FFFF00
01FFFF00
01FFFF00
01FFFF00
01FFFF00
01FFFF00
01FFFF00
01FFFF00
01FFFF00
01FFFF00
01FFFF00
01FFFF00
01FFFF00
01FFFF00
01FFFF00
01FFFF00
01FFFF00
01FFFF00
01FFFF00
01FFFF00
01FFFF00
01FFFF00
01FFFF00
01FFFF00
01FFFF00
01FFFF00
01FFFF00
01FFFF00
01FFFF00
01FFFF00
01FFFF00
01FFFF00
01FFFF00
01FFFF00
01FFFF00
01FFFF00
01FFFF00
01FFFF00
01FFFF00
01FFFF00
01FFFF00
01FFFF00
01FFFF00
01FFFF00
01FFFF00
01FFFF00
01FFFF00
01FFFF00
01FFFF00
01FFFF00
01FFFF00
ENDCHAR
STARTCHAR 00D0
ENCODING 208
SWIDTH 755 0
DWIDTH 74 0
BBX 72 70 0 0
BITMAP
01FFFFFFFFE0000000
01FFFFFFFFFF000000
01FFFFFFFFFFF00000
01FFFFFFFFFFFC0000
01FFFFFFFFFFFF0000
01FFFFFFFFFFFFC000
01FFFFFFFFFFFFE000
01FFFFFFFFFFFFF800
01FFFFFFFFFFFFFC00
01FFFFFFFFFFFFFE00
01FFFFFFFFFFFFFF00
01FFFFFFFFFFFFFF00
01FFFFFFFFFFFFFF80
01FFFFFFFFFFFFFFC0
01FFFF00007FFFFFE0
01FFFF00000FFFFFE0
01FFFF000003FFFFF0
01FFFF000000FFFFF0
01FFFF0000007FFFF8
01FFFF0000003FFFF8
01FFFF0000001FFFF8
01FFFF0000001FFFFC
01FFFF0000000FFFFC
01FFFF0000000FFFFC
01FFFF00000007FFFE
01FFFF00000007FFFE
01FFFF00000007FFFE
01FFFF00000003FFFE
01FFFF00000003FFFE
01FFFF00000003FFFE
FFFFFFFFFE0003FFFF
FFFFFFFFFE0003FFFF
FFFFFFFFFE0003FFFF
FFFFFFFFFE0003FFFF
FFFFFFFFFE0003FFFF
FFFFFFFFFE0003FFFF
FFFFFFFFFE0003FFFF
FFFFFFFFFE0003FFFF
FFFFFFFFFE0003FFFF
01FFFF00000003FFFF
01FFFF00000003FFFE
01FFFF00000003FFFE
01FFFF00000003FFFE
01FFFF00000007FFFE
01FFFF00000007FFFE
01FFFF00000007FFFE
01FFFF0000000FFFFC
01FFFF0000000FFFFC
01FFFF0000001FFFFC
01FFFF0000001FFFF8
01FFFF0000003FFFF8
01FFFF0000007FFFF8
01FFFF000000FFFFF0
01FFFF000003FFFFF0
01FFFF00000FFFFFE0
01FFFF00007FFFFFE0
01FFFFFFFFFFFFFFC0
01FFFFFFFFFFFFFF80
01FFFFFFFFFFFFFF80
01FFFFFFFFFFFFFF00
01FFFFFFFFFFFFFE00
01FFFFFFFFFFFFFC00
01FFFFFFFFFFFFF800
01FFFFFFFFFFFFE000
01FFFFFFFFFFFFC000
01FFFFFFFFFFFF0000
01FFFFFFFFFFFC0000
01FFFFFFFFFFF00000
01FFFFFFFFFF800000
01FFFFFFFFE0000000
ENDCHAR
STARTCHAR 00D1
ENCODING 209
SWIDTH 734 0
DWIDTH 72 0
BBX 61 88 5 0
BITMAP
00000FC000FF8000
00007FFC00FF8000
0000FFFF01FF8000
0001FFFFF3FF8000
0001FFFFFFFF8000
0003FFFFFFFF8000
0003FFFFFFFF0000
0007FFFFFFFF0000
0007FFFFFFFF0000
0007FFFFFFFE0000
0007FE1FFFFC0000
000FFC03FFF80000
000FFC007FF00000
000FFC0007800000
0000000000000000
0000000000000000
0000000000000000
0000000000000000
FFFFC0000003FFF8
FFFFE0000003FFF8
FFFFF0000003FFF8
FFFFF0000003FFF8
FFFFF8000003FFF8
FFFFF8000003FFF8
FFFFFC000003FFF8
FFFFFE000003FFF8
FFFFFE000003FFF8
FFFFFF000003FFF8
FFFFFF800003FFF8
FFFFFF800003FFF8
FFFFFFC00003FFF8
FFFFFFC00003FFF8
FFFFFFE00003FFF8
FFFFFFF00003FFF8
FFFFFFF00003FFF8
FFFFFFF80003FFF8
FFFFFFF80003FFF8
FFFFFFFC0003FFF8
FFFFFFFE0003FFF8
FFFFFFFE0003FFF8
FFFFFFFF0003FFF8
FFFFFFFF0003FFF8
FFFFFFFF8003FFF8
FFFF7FFFC003FFF8
FFFF7FFFC003FFF8
FFFF3FFFE003FFF8
FFFF1FFFF003FFF8
FFFF1FFFF003FFF8
FFFF0FFFF803FFF8
FFFF0FFFF803FFF8
FFFF07FFFC03FFF8
FFFF07FFFE03FFF8
FFFF03FFFE03FFF8
FFFF01FFFF03FFF8
FFFF01FFFF03FFF8
FFFF00FFFF83FFF8
FFFF00FFFF83FFF8
FFFF007FFFC3FFF8
FFFF003FFFC3FFF8
FFFF003FFFE3FFF8
FFFF001FFFF3FFF8
FFFF001FFFF3FFF8
FFFF000FFFFBFFF8
FFFF0007FFFBFFF8
FFFF0007FFFFFFF8
FFFF0003FFFFFFF8
FFFF0003FFFFFFF8
FFFF0001FFFFFFF8
FFFF0000FFFFFFF8
FFFF0000FFFFFFF8
FFFF00007FFFFFF8
FFFF00003FFFFFF8
FFFF00003FFFFFF8
FFFF00001FFFFFF8
FFFF00001FFFFFF8
FFFF00000FFFFFF8
FFFF000007FFFFF8
FFFF000007FFFFF8
FFFF000003FFFFF8
FFFF000003FFFFF8
FFFF000001FFFFF8
FFFF000000FFFFF8
FFFF000000FFFFF8
FFFF0000007FFFF8
FFFF0000007FFFF8
FFFF0000003FFFF8
FFFF0000001FFFF8
FFFF0000001FFFF8
ENDCHAR
STARTCHAR 00D2
ENCODING 210
SWIDTH 775 0
DWIDTH 76 0
BBX 72 91 2 -2
BITMAP
00007FFFC000000000
00003FFFC000000000
00001FFFE000000000
00000FFFF000000000
000007FFF000000000
000003FFF800000000
000001FFFC00000000
000000FFFC00000000
0000007FFE00000000
0000003FFE00000000
0000001FFF00000000
0000000FFF80000000
00000007FF80000000
00000007FFC0000000
000000000000000000
000000000000000000
000000000000000000
000000000000000000
00000007FFE0000000
0000007FFFFE000000
000003FFFFFFC00000
00001FFFFFFFF80000
00007FFFFFFFFE0000
0000FFFFFFFFFF0000
0003FFFFFFFFFFC000
0007FFFFFFFFFFE000
000FFFFFFFFFFFF000
001FFFFFFFFFFFFC00
003FFFFFFFFFFFFC00
007FFFFFFFFFFFFE00
00FFFFFFFFFFFFFF00
01FFFFFFFFFFFFFF80
03FFFFFFE7FFFFFFC0
03FFFFFC001FFFFFC0
07FFFFE00007FFFFE0
07FFFFC00001FFFFE0
0FFFFF000000FFFFF0
0FFFFE0000007FFFF0
1FFFFC0000003FFFF8
1FFFFC0000001FFFF8
1FFFF80000001FFFFC
3FFFF00000000FFFFC
3FFFF00000000FFFFC
3FFFF000000007FFFE
7FFFE000000007FFFE
7FFFE000000007FFFE
7FFFE000000003FFFE
7FFFC000000003FFFE
7FFFC000000003FFFF
7FFFC000000003FFFF
FFFFC000000003FFFF
FFFFC000000001FFFF
FFFFC000000001FFFF
FFFFC000000001FFFF
FFFFC000000001FFFF
FFFFC000000001FFFF
FFFFC000000001FFFF
FFFFC000000001FFFF
FFFFC000000003FFFF
7FFFC000000003FFFF
7FFFC000000003FFFF
7FFFC000000003FFFE
7FFFE000000003FFFE
7FFFE000000007FFFE
7FFFE000000007FFFE
3FFFF000000007FFFE
3FFFF00000000FFFFC
3FFFF00000000FFFFC
1FFFF80000001FFFFC
1FFFFC0000001FFFF8
1FFFFC0000003FFFF8
0FFFFE0000007FFFF0
0FFFFF000000FFFFF0
07FFFFC00003FFFFF0
07FFFFE00007FFFFE0
03FFFFF8001FFFFFC0
03FFFFFFE7FFFFFFC0
01FFFFFFFFFFFFFF80
00FFFFFFFFFFFFFF00
007FFFFFFFFFFFFE00
003FFFFFFFFFFFFE00
001FFFFFFFFFFFFC00
000FFFFFFFFFFFF000
0007FFFFFFFFFFE000
0003FFFFFFFFFFC000
0000FFFFFFFFFF0000
00007FFFFFFFFE0000
00001FFFFFFFF80000
000003FFFFFFE00000
0000007FFFFF000000
00000003FFE0000000
ENDCHAR
STARTCHAR 00D3
ENCODING 211
SWIDTH 775 0
DWIDTH 76 0
BBX 72 91 2 -2
BITMAP
0000000003FFFE0000
0000000003FFFC0000
0000000007FFF80000
0000000007FFF00000
000000000FFFE00000
000000001FFFC00000
000000001FFF800000
000000003FFF000000
000000007FFE000000
000000007FFC000000
00000000FFFC000000
00000000FFF8000000
00000001FFF0000000
00000003FFE0000000
000000000000000000
000000000000000000
000000000000000000
000000000000000000
00000007FFE0000000
0000007FFFFE000000
000003FFFFFFC00000
00001FFFFFFFF80000
00007FFFFFFFFE0000
0000FFFFFFFFFF0000
0003FFFFFFFFFFC000
0007FFFFFFFFFFE000
000FFFFFFFFFFFF000
001FFFFFFFFFFFFC00
003FFFFFFFFFFFFC00
007FFFFFFFFFFFFE00
00FFFFFFFFFFFFFF00
01FFFFFFFFFFFFFF80
03FFFFFFE7FFFFFFC0
03FFFFFC001FFFFFC0
07FFFFE00007FFFFE0
07FFFFC00001FFFFE0
0FFFFF000000FFFFF0
0FFFFE0000007FFFF0
1FFFFC0000003FFFF8
1FFFFC0000001FFFF8
1FFFF80000001FFFFC
3FFFF00000000FFFFC
3FFFF00000000FFFFC
3FFFF000000007FFFE
7FFFE000000007FFFE
7FFFE000000007FFFE
7FFFE000000003FFFE
7FFFC000000003FFFE
7FFFC000000003FFFF
7FFFC000000003FFFF
FFFFC000000003FFFF
FFFFC000000001FFFF
FFFFC000000001FFFF
FFFFC000000001FFFF
FFFFC000000001FFFF
FFFFC000000001FFFF
FFFFC000000001FFFF
FFFFC000000001FFFF
FFFFC000000003FFFF
7FFFC000000003FFFF
7FFFC000000003FFFF
7FFFC000000003FFFE
7FFFE000000003FFFE
7FFFE000000007FFFE
7FFFE000000007FFFE
3FFFF000000007FFFE
3FFFF00000000FFFFC
3FFFF00000000FFFFC
1FFFF80000001FFFFC
1FFFFC0000001FFFF8
1FFFFC0000003FFFF8
0FFFFE0000007FFFF0
0FFFFF000000FFFFF0
07FFFFC00003FFFFF0
07FFFFE00007FFFFE0
03FFFFF8001FFFFFC0
03FFFFFFE7FFFFFFC0
01FFFFFFFFFFFFFF80
00FFFFFFFFFFFFFF00
007FFFFFFFFFFFFE00
003FFFFFFFFFFFFE00
001FFFFFFFFFFFFC00
000FFFFFFFFFFFF000
0007FFFFFFFFFFE000
0003FFFFFFFFFFC000
0000FFFFFFFFFF0000
00007FFFFFFFFE0000
00001FFFFFFFF80000
000003FFFFFFE00000
0000007FFFFF000000
00000003FFE0000000
ENDCHAR
STARTCHAR 00D4
ENCODING 212
SWIDTH 775 0
DWIDTH 76 0
BBX 72 91 2 -2
BITMAP
0000001FFFF8000000
0000003FFFFC000000
0000007FFFFE000000
0000007FFFFE000000
000000FFFFFF000000
000001FFFFFF800000
000003FFFFFFC00000
000007FFFFFFE00000
00000FFFE7FFF00000
00000FFFC3FFF00000
00001FFF81FFF80000
00003FFF00FFFC0000
00007FFE007FFE0000
0000FFFC003FFF0000
000000000000000000
000000000000000000
000000000000000000
000000000000000000
00000007FFE0000000
0000007FFFFE000000
000003FFFFFFC00000
00001FFFFFFFF80000
00007FFFFFFFFE0000
0000FFFFFFFFFF0000
0003FFFFFFFFFFC000
0007FFFFFFFFFFE000
000FFFFFFFFFFFF000
001FFFFFFFFFFFFC00
003FFFFFFFFFFFFC00
007FFFFFFFFFFFFE00
00FFFFFFFFFFFFFF00
01FFFFFFFFFFFFFF80
03FFFFFFE7FFFFFFC0
03FFFFFC001FFFFFC0
07FFFFE00007FFFFE0
07FFFFC00001FFFFE0
0FFFFF000000FFFFF0
0FFFFE0000007FFFF0
1FFFFC0000003FFFF8
1FFFFC0000001FFFF8
1FFFF80000001FFFFC
3FFFF00000000FFFFC
3FFFF00000000FFFFC
3FFFF000000007FFFE
7FFFE000000007FFFE
7FFFE000000007FFFE
7FFFE000000003FFFE
7FFFC000000003FFFE
7FFFC000000003FFFF
7FFFC000000003FFFF
FFFFC000000003FFFF
FFFFC000000001FFFF
FFFFC000000001FFFF
FFFFC000000001FFFF
FFFFC000000001FFFF
FFFFC000000001FFFF
FFFFC000000001FFFF
FFFFC000000001FFFF
FFFFC000000003FFFF
7FFFC000000003FFFF
7FFFC000000003FFFF
7FFFC000000003FFFE
7FFFE000000003FFFE
7FFFE000000007FFFE
7FFFE000000007FFFE
3FFFF000000007FFFE
3FFFF00000000FFFFC
3FFFF00000000FFFFC
1FFFF80000001FFFFC
1FFFFC0000001FFFF8
1FFFFC0000003FFFF8
0FFFFE0000007FFFF0
0FFFFF000000FFFFF0
07FFFFC00003FFFFF0
07FFFFE00007FFFFE0
03FFFFF8001FFFFFC0
03FFFFFFE7FFFFFFC0
01FFFFFFFFFFFFFF80
00FFFFFFFFFFFFFF00
007FFFFFFFFFFFFE00
003FFFFFFFFFFFFE00
001FFFFFFFFFFFFC00
000FFFFFFFFFFFF000
0007FFFFFFFFFFE000
0003FFFFFFFFFFC000
0000FFFFFFFFFF0000
00007FFFFFFFFE0000
00001FFFFFFFF80000
000003FFFFFFE00000
0000007FFFFF000000
00000003FFE0000000
ENDCHAR
STARTCHAR 00D5
ENCODING 213
SWIDTH 775 0
DWIDTH 76 0
BBX 72 91 2 -2
BITMAP
0000007F0007FE0000
000001FFE007FC0000
000007FFFC07FC0000
000007FFFFDFFC0000
00000FFFFFFFFC0000
00001FFFFFFFFC0000
00001FFFFFFFFC0000
00003FFFFFFFF80000
00003FFFFFFFF80000
00003FFFFFFFF00000
00003FF0FFFFE00000
00003FE01FFFC00000
00003FE003FF800000
00003FE0003C000000
000000000000000000
000000000000000000
000000000000000000
000000000000000000
00000007FFE0000000
0000007FFFFE000000
000003FFFFFFC00000
00001FFFFFFFF80000
00007FFFFFFFFE0000
0000FFFFFFFFFF0000
0003FFFFFFFFFFC000
0007FFFFFFFFFFE000
000FFFFFFFFFFFF000
001FFFFFFFFFFFFC00
003FFFFFFFFFFFFC00
007FFFFFFFFFFFFE00
00FFFFFFFFFFFFFF00
01FFFFFFFFFFFFFF80
03FFFFFFE7FFFFFFC0
03FFFFFC001FFFFFC0
07FFFFE00007FFFFE0
07FFFFC00001FFFFE0
0FFFFF000000FFFFF0
0FFFFE0000007FFFF0
1FFFFC0000003FFFF8
1FFFFC0000001FFFF8
1FFFF80000001FFFFC
3FFFF00000000FFFFC
3FFFF00000000FFFFC
3FFFF000000007FFFE
7FFFE000000007FFFE
7FFFE000000007FFFE
7FFFE000000003FFFE
7FFFC000000003FFFE
7FFFC000000003FFFF
7FFFC000000003FFFF
FFFFC000000003FFFF
FFFFC000000001FFFF
FFFFC000000001FFFF
FFFFC000000001FFFF
FFFFC000000001FFFF
FFFFC000000001FFFF
FFFFC000000001FFFF
FFFFC000000001FFFF
FFFFC000000003FFFF
7FFFC000000003FFFF
7FFFC000000003FFFF
7FFFC000000003FFFE
7FFFE000000003FFFE
7FFFE000000007FFFE
7FFFE000000007FFFE
3FFFF000000007FFFE
3FFFF00000000FFFFC
3FFFF00000000FFFFC
1FFFF80000001FFFFC
1FFFFC0000001FFFF8
1FFFFC0000003FFFF8
0FFFFE0000007FFFF0
0FFFFF000000FFFFF0
07FFFFC00003FFFFF0
07FFFFE00007FFFFE0
03FFFFF8001FFFFFC0
03FFFFFFE7FFFFFFC0
01FFFFFFFFFFFFFF80
00FFFFFFFFFFFFFF00
007FFFFFFFFFFFFE00
003FFFFFFFFFFFFE00
001FFFFFFFFFFFFC00
000FFFFFFFFFFFF000
0007FFFFFFFFFFE000
0003FFFFFFFFFFC000
0000FFFFFFFFFF0000
00007FFFFFFFFE0000
00001FFFFFFFF80000
000003FFFFFFE00000
0000007FFFFF000000
00000003FFE0000000
ENDCHAR
STARTCHAR 00D6
ENCODING 214
SWIDTH 775 0
DWIDTH 76 0
BBX 72 90 2 -2
BITMAP
00003FFF81FFFC0000
00003FFF81FFFC0000
00003FFF81FFFC0000
00003FFF81FFFC0000
00003FFF81FFFC0000
00003FFF81FFFC0000
00003FFF81FFFC0000
00003FFF81FFFC0000
00003FFF81FFFC0000
00003FFF81FFFC0000
00003FFF81FFFC0000
00003FFF81FFFC0000
00003FFF81FFFC0000
000000000000000000
000000000000000000
000000000000000000
000000000000000000
00000007FFE0000000
0000007FFFFE000000
000003FFFFFFC00000
00001FFFFFFFF80000
00007FFFFFFFFE0000
0000FFFFFFFFFF0000
0003FFFFFFFFFFC000
0007FFFFFFFFFFE000
000FFFFFFFFFFFF000
001FFFFFFFFFFFFC00
003FFFFFFFFFFFFC00
007FFFFFFFFFFFFE00
00FFFFFFFFFFFFFF00
01FFFFFFFFFFFFFF80
03FFFFFFE7FFFFFFC0
03FFFFFC001FFFFFC0
07FFFFE00007FFFFE0
07FFFFC00001FFFFE0
0FFFFF000000FFFFF0
0FFFFE0000007FFFF0
1FFFFC0000003FFFF8
1FFFFC0000001FFFF8
1FFFF80000001FFFFC
3FFFF00000000FFFFC
3FFFF00000000FFFFC
3FFFF000000007FFFE
7FFFE000000007FFFE
7FFFE000000007FFFE
7FFFE000000003FFFE
7FFFC000000003FFFE
7FFFC000000003FFFF
7FFFC000000003FFFF
FFFFC000000003FFFF
FFFFC000000001FFFF
FFFFC000000001FFFF
FFFFC000000001FFFF
FFFFC000000001FFFF
FFFFC000000001FFFF
FFFFC000000001FFFF
FFFFC000000001FFFF
FFFFC000000003FFFF
7FFFC000000003FFFF
7FFFC000000003FFFF
7FFFC000000003FFFE
7FFFE000000003FFFE
7FFFE000000007FFFE
7FFFE000000007FFFE
3FFFF000000007FFFE
3FFFF00000000FFFFC
3FFFF00000000FFFFC
1FFFF80000001FFFFC
1FFFFC0000001FFFF8
1FFFFC0000003FFFF8
0FFFFE0000007FFFF0
0FFFFF000000FFFFF0
07FFFFC00003FFFFF0
07FFFFE00007FFFFE0
03FFFFF8001FFFFFC0
03FFFFFFE7FFFFFFC0
01FFFFFFFFFFFFFF80
00FFFFFFFFFFFFFF00
007FFFFFFFFFFFFE00
003FFFFFFFFFFFFE00
001FFFFFFFFFFFFC00
000FFFFFFFFFFFF000
0007FFFFFFFFFFE000
0003FFFFFFFFFFC000
0000FFFFFFFFFF0000
00007FFFFFFFFE0000
00001FFFFFFFF80000
000003FFFFFFE00000
0000007FFFFF000000
00000003FFE0000000
ENDCHAR
STARTCHAR 00D7
ENCODING 215
SWIDTH 530 0
DWIDTH 52 0
BBX 44 44 4 13
BITMAP
008000002000
01C000007000
03E00000F800
07F00001FC00
0FF80003FE00
1FFC0007FF00
3FFE000FFF80
7FFF001FFFC0
FFFF803FFFE0
FFFFC07FFFF0
7FFFE0FFFFE0
3FFFF1FFFFC0
1FFFFBFFFF80
0FFFFFFFFF00
07FFFFFFFE00
03FFFFFFFC00
01FFFFFFF800
00FFFFFFF000
007FFFFFE000
003FFFFFC000
001FFFFF8000
000FFFFE0000
000FFFFF0000
001FFFFF8000
003FFFFFC000
007FFFFFE000
00FFFFFFF000
01FFFFFFF800
03FFFFFFFC00
07FFFFFFFE00
0FFFFFFFFF00
1FFFFFFFFF80
3FFFF9FFFFC0
7FFFE0FFFFE0
FFFFC07FFFF0
FFFF803FFFE0
7FFF001FFFC0
3FFE000FFF80
1FFC0007FF00
0FF80003FE00
07F00001FC00
03E00000F800
01C000007000
008000002000
ENDCHAR
STARTCHAR 00D8
ENCODING 216
SWIDTH 775 0
DWIDTH 76 0
BBX 72 79 2 -5
BITMAP
000000000000000040
0000000000000000E0
0000000000000001F0
00000007FFE00003FC
0000007FFFFE0007FE
000003FFFFFFC00FFF
00001FFFFFFFF81FFE
00007FFFFFFFFE3FFC
0000FFFFFFFFFF3FF8
0003FFFFFFFFFFFFF8
0007FFFFFFFFFFFFF0
000FFFFFFFFFFFFFE0
001FFFFFFFFFFFFFC0
003FFFFFFFFFFFFF80
007FFFFFFFFFFFFF00
00FFFFFFFFFFFFFF00
01FFFFFFFFFFFFFF80
03FFFFFFE7FFFFFFC0
03FFFFFC001FFFFFC0
07FFFFE00007FFFFE0
07FFFFC00001FFFFE0
0FFFFF000003FFFFF0
0FFFFE000007FFFFF0
1FFFFC00000FFFFFF8
1FFFFC00001FFFFFF8
1FFFF800003FFFFFFC
3FFFF000003FFFFFFC
3FFFF000007FFFFFFC
3FFFF00000FFF7FFFE
7FFFE00001FFE7FFFE
7FFFE00003FFC3FFFE
7FFFE00007FF83FFFE
7FFFC0000FFF03FFFE
7FFFC0001FFE03FFFE
7FFFC0001FFE03FFFF
FFFFC0003FFC03FFFF
FFFFC0007FF801FFFF
FFFFC000FFF001FFFF
FFFFC001FFE001FFFF
FFFFC003FFC001FFFF
FFFFC007FF8001FFFF
FFFFC00FFF0001FFFF
FFFFC01FFE0001FFFF
FFFFC01FFE0003FFFF
7FFFC03FFC0003FFFF
7FFFC07FF80003FFFF
7FFFC0FFF00003FFFE
7FFFE1FFE00003FFFE
7FFFE3FFC00007FFFE
7FFFE7FF800007FFFE
3FFFFFFF000007FFFE
3FFFFFFE00000FFFFC
3FFFFFFE00000FFFFC
1FFFFFFC00001FFFFC
1FFFFFF800001FFFF8
1FFFFFF000003FFFF8
0FFFFFE000007FFFF0
0FFFFFC00000FFFFF0
07FFFFC00003FFFFF0
07FFFFE00007FFFFE0
03FFFFFC001FFFFFC0
03FFFFFFE7FFFFFFC0
01FFFFFFFFFFFFFF80
00FFFFFFFFFFFFFF00
00FFFFFFFFFFFFFE00
01FFFFFFFFFFFFFE00
03FFFFFFFFFFFFFC00
07FFFFFFFFFFFFF000
0FFFFFFFFFFFFFE000
0FFFFFFFFFFFFFC000
1FFEFFFFFFFFFF0000
3FFC7FFFFFFFFE0000
7FF81FFFFFFFF80000
FFF003FFFFFFE00000
7FE0007FFFFF000000
3FC00003FFE0000000
0F8000000000000000
070000000000000000
020000000000000000
ENDCHAR
STARTCHAR 00D9
ENCODING 217
SWIDTH 704 0
DWIDTH 69 0
BBX 61 90 4 -2
BITMAP
000FFFF000000000
0007FFF800000000
0003FFFC00000000
0001FFFC00000000
0000FFFE00000000
0000FFFE00000000
00007FFF00000000
00003FFF80000000
00001FFF80000000
00000FFFC0000000
000007FFC0000000
000003FFE0000000
000001FFF0000000
000000FFF0000000
0000000000000000
0000000000000000
0000000000000000
0000000000000000
FFFF8000000FFFF8
FFFF8000000FFFF8
FFFF8000000FFFF8
FFFF8000000FFFF8
FFFF8000000FFFF8
FFFF8000000FFFF8
FFFF8000000FFFF8
FFFF8000000FFFF8
FFFF8000000FFFF8
FFFF8000000FFFF8
FFFF8000000FFFF8
FFFF8000000FFFF8
FFFF8000000FFFF8
FFFF8000000FFFF8
FFFF8000000FFFF8
FFFF8000000FFFF8
FFFF8000000FFFF8
FFFF8000000FFFF8
FFFF8000000FFFF8
FFFF8000000FFFF8
FFFF8000000FFFF8
FFFF8000000FFFF8
FFFF8000000FFFF8
FFFF8000000FFFF8
FFFF8000000FFFF8
FFFF8000000FFFF8
FFFF8000000FFFF8
FFFF8000000FFFF8
FFFF8000000FFFF8
FFFF8000000FFFF8
FFFF8000000FFFF8
FFFF8000000FFFF8
FFFF8000000FFFF8
FFFF8000000FFFF8
FFFF8000000FFFF8
FFFF8000000FFFF8
FFFF8000000FFFF8
FFFF8000000FFFF8
FFFF8000000FFFF8
FFFF8000000FFFF8
FFFF8000000FFFF8
FFFF8000000FFFF8
FFFF8000000FFFF8
FFFF8000000FFFF8
FFFF8000000FFFF8
FFFF8000000FFFF8
FFFF8000000FFFF8
FFFF8000000FFFF8
7FFF8000000FFFF8
7FFFC000000FFFF8
7FFFC000001FFFF0
7FFFC000001FFFF0
7FFFE000003FFFF0
3FFFF000007FFFF0
3FFFF80000FFFFE0
3FFFFC0001FFFFE0
1FFFFF0007FFFFE0
1FFFFFF07FFFFFC0
0FFFFFFFFFFFFFC0
0FFFFFFFFFFFFF80
07FFFFFFFFFFFF00
03FFFFFFFFFFFF00
01FFFFFFFFFFFE00
01FFFFFFFFFFFC00
00FFFFFFFFFFF800
003FFFFFFFFFF000
001FFFFFFFFFE000
000FFFFFFFFF8000
0003FFFFFFFE0000
00007FFFFFF80000
00001FFFFFC00000
000000FFFC000000
ENDCHAR
STARTCHAR 00DA
ENCODING 218
SWIDTH 704 0
DWIDTH 69 0
BBX 61 90 4 -2
BITMAP
000000007FFFC000
00000000FFFF8000
00000000FFFF0000
00000001FFFE0000
00000001FFFC0000
00000003FFF80000
00000007FFF00000
00000007FFE00000
0000000FFFC00000
0000001FFF800000
0000001FFF000000
0000003FFE000000
0000003FFC000000
0000007FF8000000
0000000000000000
0000000000000000
0000000000000000
0000000000000000
FFFF8000000FFFF8
FFFF8000000FFFF8
FFFF8000000FFFF8
FFFF8000000FFFF8
FFFF8000000FFFF8
FFFF8000000FFFF8
FFFF8000000FFFF8
FFFF8000000FFFF8
FFFF8000000FFFF8
FFFF8000000FFFF8
FFFF8000000FFFF8
FFFF8000000FFFF8
FFFF8000000FFFF8
FFFF8000000FFFF8
FFFF8000000FFFF8
FFFF8000000FFFF8
FFFF8000000FFFF8
FFFF8000000FFFF8
FFFF8000000FFFF8
FFFF8000000FFFF8
FFFF8000000FFFF8
FFFF8000000FFFF8
FFFF8000000FFFF8
FFFF8000000FFFF8
FFFF8000000FFFF8
FFFF8000000FFFF8
FFFF8000000FFFF8
FFFF8000000FFFF8
FFFF8000000FFFF8
FFFF8000000FFFF8
FFFF8000000FFFF8
FFFF8000000FFFF8
FFFF8000000FFFF8
FFFF8000000FFFF8
FFFF8000000FFFF8
FFFF8000000FFFF8
FFFF8000000FFFF8
FFFF8000000FFFF8
FFFF8000000FFFF8
FFFF8000000FFFF8
FFFF8000000FFFF8
FFFF8000000FFFF8
FFFF8000000FFFF8
FFFF8000000FFFF8
FFFF8000000FFFF8
FFFF8000000FFFF8
FFFF8000000FFFF8
FFFF8000000FFFF8
7FFF8000000FFFF8
7FFFC000000FFFF8
7FFFC000001FFFF0
7FFFC000001FFFF0
7FFFE000003FFFF0
3FFFF000007FFFF0
3FFFF80000FFFFE0
3FFFFC0001FFFFE0
1FFFFF0007FFFFE0
1FFFFFF07FFFFFC0
0FFFFFFFFFFFFFC0
0FFFFFFFFFFFFF80
07FFFFFFFFFFFF00
03FFFFFFFFFFFF00
01FFFFFFFFFFFE00
01FFFFFFFFFFFC00
00FFFFFFFFFFF800
003FFFFFFFFFF000
001FFFFFFFFFE000
000FFFFFFFFF8000
0003FFFFFFFE0000
00007FFFFFF80000
00001FFFFFC00000
000000FFFC000000
ENDCHAR
STARTCHAR 00DB
ENCODING 219
SWIDTH 704 0
DWIDTH 69 0
BBX 61 90 4 -2
BITMAP
000003FFFF000000
000007FFFF000000
00000FFFFF800000
00001FFFFFC00000
00003FFFFFE00000
00007FFFFFF00000
00007FFFFFF80000
0000FFFDFFF80000
0001FFFCFFFC0000
0003FFF87FFE0000
0007FFF03FFF0000
0007FFE01FFF8000
000FFFC00FFF8000
001FFF8007FFC000
0000000000000000
0000000000000000
0000000000000000
0000000000000000
FFFF8000000FFFF8
FFFF8000000FFFF8
FFFF8000000FFFF8
FFFF8000000FFFF8
FFFF8000000FFFF8
FFFF8000000FFFF8
FFFF8000000FFFF8
FFFF8000000FFFF8
FFFF8000000FFFF8
FFFF8000000FFFF8
FFFF8000000FFFF8
FFFF8000000FFFF8
FFFF8000000FFFF8
FFFF8000000FFFF8
FFFF8000000FFFF8
FFFF8000000FFFF8
FFFF8000000FFFF8
FFFF8000000FFFF8
FFFF8000000FFFF8
FFFF8000000FFFF8
FFFF8000000FFFF8
FFFF8000000FFFF8
FFFF8000000FFFF8
FFFF8000000FFFF8
FFFF8000000FFFF8
FFFF8000000FFFF8
FFFF8000000FFFF8
FFFF8000000FFFF8
FFFF8000000FFFF8
FFFF8000000FFFF8
FFFF8000000FFFF8
FFFF8000000FFFF8
FFFF8000000FFFF8
FFFF8000000FFFF8
FFFF8000000FFFF8
FFFF8000000FFFF8
FFFF8000000FFFF8
FFFF8000000FFFF8
FFFF8000000FFFF8
FFFF8000000FFFF8
FFFF8000000FFFF8
FFFF8000000FFFF8
FFFF8000000FFFF8
FFFF8000000FFFF8
FFFF8000000FFFF8
FFFF8000000FFFF8
FFFF8000000FFFF8
FFFF8000000FFFF8
7FFF8000000FFFF8
7FFFC000000FFFF8
7FFFC000001FFFF0
7FFFC000001FFFF0
7FFFE000003FFFF0
3FFFF000007FFFF0
3FFFF80000FFFFE0
3FFFFC0001FFFFE0
1FFFFF0007FFFFE0
1FFFFFF07FFFFFC0
0FFFFFFFFFFFFFC0
0FFFFFFFFFFFFF80
07FFFFFFFFFFFF00
03FFFFFFFFFFFF00
01FFFFFFFFFFFE00
01FFFFFFFFFFFC00
00FFFFFFFFFFF800
003FFFFFFFFFF000
001FFFFFFFFFE000
000FFFFFFFFF8000
0003FFFFFFFE0000
00007FFFFFF80000
00001FFFFFC00000
000000FFFC000000
ENDCHAR
STARTCHAR 00DC
ENCODING 220
SWIDTH 704 0
DWIDTH 69 0
BBX 61 89 4 -2
BITMAP
0007FFF03FFF0000
0007FFF03FFF0000
0007FFF03FFF0000
0007FFF03FFF0000
0007FFF03FFF0000
0007FFF03FFF0000
0007FFF03FFF0000
0007FFF03FFF0000
0007FFF03FFF0000
0007FFF03FFF0000
0007FFF03FFF0000
0007FFF03FFF0000
0007FFF03FFF0000
0000000000000000
0000000000000000
0000000000000000
0000000000000000
FFFF8000000FFFF8
FFFF8000000FFFF8
FFFF8000000FFFF8
FFFF8000000FFFF8
FFFF8000000FFFF8
FFFF8000000FFFF8
FFFF8000000FFFF8
FFFF8000000FFFF8
FFFF8000000FFFF8
FFFF8000000FFFF8
FFFF8000000FFFF8
FFFF8000000FFFF8
FFFF8000000FFFF8
FFFF8000000FFFF8
FFFF8000000FFFF8
FFFF8000000FFFF8
FFFF8000000FFFF8
FFFF8000000FFFF8
FFFF8000000FFFF8
FFFF8000000FFFF8
FFFF8000000FFFF8
FFFF8000000FFFF8
FFFF8000000FFFF8
FFFF8000000FFFF8
FFFF8000000FFFF8
FFFF8000000FFFF8
FFFF8000000FFFF8
FFFF8000000FFFF8
FFFF8000000FFFF8
FFFF8000000FFFF8
FFFF8000000FFFF8
FFFF8000000FFFF8
FFFF8000000FFFF8
FFFF8000000FFFF8
FFFF8000000FFFF8
FFFF8000000FFFF8
FFFF8000000FFFF8
FFFF8000000FFFF8
FFFF8000000FFFF8
FFFF8000000FFFF8
FFFF8000000FFFF8
FFFF8000000FFFF8
FFFF8000000FFFF8
FFFF8000000FFFF8
FFFF8000000FFFF8
FFFF8000000FFFF8
FFFF8000000FFFF8
FFFF8000000FFFF8
7FFF8000000FFFF8
7FFFC000000FFFF8
7FFFC000001FFFF0
7FFFC000001FFFF0
7FFFE000003FFFF0
3FFFF000007FFFF0
3FFFF80000FFFFE0
3FFFFC0001FFFFE0
1FFFFF0007FFFFE0
1FFFFFF07FFFFFC0
0FFFFFFFFFFFFFC0
0FFFFFFFFFFFFF80
07FFFFFFFFFFFF00
03FFFFFFFFFFFF00
01FFFFFFFFFFFE00
01FFFFFFFFFFFC00
00FFFFFFFFFFF800
003FFFFFFFFFF000
001FFFFFFFFFE000
000FFFFFFFFF8000
0003FFFFFFFE0000
00007FFFFFF80000
00001FFFFFC00000
000000FFFC000000
ENDCHAR
STARTCHAR 00DD
ENCODING 221
SWIDTH 704 0
DWIDTH 69 0
BBX 68 88 0 0
BITMAP
0000000007FFF80000
000000000FFFF00000
000000001FFFE00000
000000001FFFC00000
000000003FFF800000
000000003FFF000000
000000007FFF000000
00000000FFFE000000
00000000FFFC000000
00000001FFF8000000
00000001FFF0000000
00000003FFE0000000
00000007FFC0000000
00000007FF80000000
000000000000000000
000000000000000000
000000000000000000
000000000000000000
FFFFE00000003FFFF0
7FFFF00000007FFFF0
3FFFF00000007FFFE0
3FFFF8000000FFFFC0
1FFFF8000000FFFFC0
1FFFFC000001FFFF80
0FFFFE000001FFFF80
07FFFE000003FFFF00
07FFFF000007FFFE00
03FFFF000007FFFE00
03FFFF80000FFFFC00
01FFFFC0000FFFFC00
00FFFFC0001FFFF800
00FFFFE0003FFFF000
007FFFE0003FFFF000
007FFFF0007FFFE000
003FFFF0007FFFE000
001FFFF800FFFFC000
001FFFFC00FFFF8000
000FFFFC01FFFF8000
0007FFFE01FFFF0000
0007FFFE03FFFF0000
0003FFFF07FFFE0000
0003FFFF07FFFC0000
0001FFFF8FFFFC0000
0000FFFFCFFFF80000
0000FFFFDFFFF80000
00007FFFFFFFF00000
00007FFFFFFFE00000
00003FFFFFFFE00000
00001FFFFFFFC00000
00001FFFFFFFC00000
00000FFFFFFF800000
00000FFFFFFF000000
000007FFFFFF000000
000003FFFFFE000000
000003FFFFFE000000
000001FFFFFC000000
000000FFFFF8000000
000000FFFFF8000000
0000007FFFF0000000
0000007FFFE0000000
0000003FFFE0000000
0000003FFFE0000000
0000003FFFE0000000
0000003FFFE0000000
0000003FFFE0000000
0000003FFFE0000000
0000003FFFE0000000
0000003FFFE0000000
0000003FFFE0000000
0000003FFFE0000000
0000003FFFE0000000
0000003FFFE0000000
0000003FFFE0000000
0000003FFFE0000000
0000003FFFE0000000
0000003FFFE0000000
0000003FFFE0000000
0000003FFFE0000000
0000003FFFE0000000
0000003FFFE0000000
0000003FFFE0000000
0000003FFFE0000000
0000003FFFE0000000
0000003FFFE0000000
0000003FFFE0000000
0000003FFFE0000000
0000003FFFE0000000
0000003FFFE0000000
ENDCHAR
STARTCHAR 00DE
ENCODING 222
SWIDTH 663 0
DWIDTH 65 0
BBX 58 70 5 0
BITMAP
FFFF800000000000
FFFF800000000000
FFFF800000000000
FFFF800000000000
FFFF800000000000
FFFF800000000000
FFFF800000000000
FFFF800000000000
FFFF800000000000
FFFF800000000000
FFFF800000000000
FFFFFFFFFC000000
FFFFFFFFFFC00000
FFFFFFFFFFF80000
FFFFFFFFFFFE0000
FFFFFFFFFFFF8000
FFFFFFFFFFFFC000
FFFFFFFFFFFFE000
FFFFFFFFFFFFF000
FFFFFFFFFFFFF800
FFFFFFFFFFFFFC00
FFFFFFFFFFFFFC00
FFFFFFFFFFFFFE00
FFFFFFFFFFFFFE00
FFFFFFFFFFFFFF00
FFFF80001FFFFF00
FFFF800007FFFF80
FFFF800003FFFF80
FFFF800001FFFF80
FFFF800000FFFF80
FFFF800000FFFF80
FFFF8000007FFFC0
FFFF8000007FFFC0
FFFF8000007FFFC0
FFFF8000007FFFC0
FFFF8000007FFFC0
FFFF8000007FFFC0
FFFF8000007FFFC0
FFFF8000007FFFC0
FFFF800000FFFF80
FFFF800000FFFF80
FFFF800001FFFF80
FFFF800003FFFF80
FFFF800007FFFF80
FFFF80001FFFFF00
FFFFFFFFFFFFFF00
FFFFFFFFFFFFFE00
FFFFFFFFFFFFFE00
FFFFFFFFFFFFFC00
FFFFFFFFFFFFFC00
FFFFFFFFFFFFF800
FFFFFFFFFFFFF000
FFFFFFFFFFFFE000
FFFFFFFFFFFFC000
FFFFFFFFFFFF8000
FFFFFFFFFFFE0000
FFFFFFFFFFF80000
FFFFFFFFFFE00000
FFFFFFFFFE000000
FFFF800000000000
FFFF800000000000
FFFF800000000000
FFFF800000000000
FFFF800000000000
FFFF800000000000
FFFF800000000000
FFFF800000000000
FFFF800000000000
FFFF800000000000
FFFF800000000000
ENDCHAR
STARTCHAR 00DF
ENCODING 223
SWIDTH 591 0
DWIDTH 58 0
BBX 52 71 4 0
BITMAP
00003FFC000000
0003FFFFC00000
000FFFFFF00000
003FFFFFFC0000
00FFFFFFFE0000
01FFFFFFFF8000
03FFFFFFFFC000
07FFFFFFFFE000
0FFFFFFFFFF000
0FFFFFFFFFF000
1FFFFFFFFFF800
1FFFFFFFFFFC00
3FFFFFFFFFFC00
3FFFF80FFFFC00
7FFFE003FFFE00
7FFFC001FFFE00
7FFF8000FFFE00
7FFF80007FFE00
7FFF00007FFE00
7FFF00007FFE00
FFFF00007FFE00
FFFF00007FFE00
FFFF00007FFE00
FFFF00007FFE00
FFFF00007FFC00
FFFF0000FFFC00
FFFF0000FFFC00
FFFF0001FFF800
FFFF0007FFF800
FFFF001FFFF000
FFFF03FFFFE000
FFFF03FFFFC000
FFFF03FFFF8000
FFFF03FFFFC000
FFFF03FFFFF000
FFFF03FFFFF800
FFFF03FFFFFC00
FFFF03FFFFFE00
FFFF03FFFFFF00
FFFF03FFFFFF80
FFFF0007FFFF80
FFFF0000FFFFC0
FFFF00007FFFC0
FFFF00003FFFE0
FFFF00001FFFE0
FFFF00001FFFE0
FFFF00000FFFF0
FFFF00000FFFF0
FFFF00000FFFF0
FFFF00000FFFF0
FFFF00000FFFF0
FFFF00000FFFF0
FFFF00000FFFF0
FFFF00001FFFE0
FFFF00001FFFE0
FFFF00003FFFE0
FFFF00007FFFE0
FFFF0001FFFFC0
FFFF000FFFFFC0
FFFF07FFFFFF80
FFFF07FFFFFF80
FFFF07FFFFFF00
FFFF07FFFFFE00
FFFF07FFFFFC00
FFFF07FFFFF800
FFFF07FFFFF000
FFFF07FFFFE000
FFFF07FFFF8000
FFFF07FFFE0000
FFFF07FFF80000
FFFF07FF000000
ENDCHAR
STARTCHAR 00E0
ENCODING 224
SWIDTH 561 0
DWIDTH 55 0
BBX 51 72 2 -1
BITMAP
00FFFF00000000
007FFF80000000
003FFFC0000000
001FFFC0000000
000FFFE0000000
0007FFF0000000
0003FFF0000000
0003FFF8000000
0001FFF8000000
0000FFFC000000
00007FFE000000
00003FFE000000
00001FFF000000
00000FFF000000
00000000000000
00000000000000
00000000000000
00000000000000
00000000000000
00001FFFC00000
0001FFFFFC0000
000FFFFFFF8000
003FFFFFFFE000
007FFFFFFFF000
01FFFFFFFFF800
03FFFFFFFFFC00
03FFFFFFFFFE00
07FFFFFFFFFE00
0FFFFFFFFFFF00
0FFFFFFFFFFF00
1FFFFC01FFFF80
1FFFF0007FFF80
1FFFE0003FFF80
1FFFC0003FFF80
1FFFC0003FFF80
3FFFC0003FFF80
3FFFC0003FFF80
000000007FFF80
000000007FFF80
00000003FFFF80
000003FFFFFF80
0003FFFFFFFF80
003FFFFFFFFF80
00FFFFFFFFFF80
03FFFFFFFFFF80
07FFFFFFFFFF80
0FFFFFFFFFFF80
1FFFFFFFFFFF80
3FFFFFFF3FFF80
7FFFFFC03FFF80
7FFFF0003FFF80
7FFFC0003FFF80
FFFF00003FFF80
FFFF00003FFF80
FFFF00003FFF80
FFFE00007FFF80
FFFF00007FFF80
FFFF0000FFFF80
FFFF0000FFFF80
FFFF8003FFFF80
FFFFC007FFFF80
7FFFF87FFFFF80
7FFFFFFFFFFF80
7FFFFFFFFFFF80
3FFFFFFFFFFF80
1FFFFFFFFFFF80
1FFFFFFF9FFF80
0FFFFFFF1FFFC0
03FFFFFE1FFFC0
01FFFFF81FFFC0
007FFFE01FFFE0
0007FF00000000
ENDCHAR
STARTCHAR 00E1
ENCODING 225
SWIDTH 561 0
DWIDTH 55 0
BBX 51 72 2 -1
BITMAP
00000007FFFC00
00000007FFF800
0000000FFFF000
0000001FFFE000
0000001FFFC000
0000003FFF8000
0000007FFF0000
0000007FFE0000
000000FFFC0000
000000FFF80000
000001FFF00000
000003FFE00000
000003FFE00000
000007FFC00000
00000000000000
00000000000000
00000000000000
00000000000000
00000000000000
00001FFFC00000
0001FFFFFC0000
000FFFFFFF8000
003FFFFFFFE000
007FFFFFFFF000
01FFFFFFFFF800
03FFFFFFFFFC00
03FFFFFFFFFE00
07FFFFFFFFFE00
0FFFFFFFFFFF00
0FFFFFFFFFFF00
1FFFFC01FFFF80
1FFFF0007FFF80
1FFFE0003FFF80
1FFFC0003FFF80
1FFFC0003FFF80
3FFFC0003FFF80
3FFFC0003FFF80
000000007FFF80
000000007FFF80
00000003FFFF80
000003FFFFFF80
0003FFFFFFFF80
003FFFFFFFFF80
00FFFFFFFFFF80
03FFFFFFFFFF80
07FFFFFFFFFF80
0FFFFFFFFFFF80
1FFFFFFFFFFF80
3FFFFFFF3FFF80
7FFFFFC03FFF80
7FFFF0003FFF80
7FFFC0003FFF80
FFFF00003FFF80
FFFF00003FFF80
FFFF00003FFF80
FFFE00007FFF80
FFFF00007FFF80
FFFF0000FFFF80
FFFF0000FFFF80
FFFF8003FFFF80
FFFFC007FFFF80
7FFFF87FFFFF80
7FFFFFFFFFFF80
7FFFFFFFFFFF80
3FFFFFFFFFFF80
1FFFFFFFFFFF80
1FFFFFFF9FFF80
0FFFFFFF1FFFC0
03FFFFFE1FFFC0
01FFFFF81FFFC0
007FFFE01FFFE0
0007FF00000000
ENDCHAR
STARTCHAR 00E2
ENCODING 226
SWIDTH 561 0
DWIDTH 55 0
BBX 51 72 2 -1
BITMAP
00007FFFE00000
00007FFFF00000
0000FFFFF80000
0001FFFFFC0000
0003FFFFFE0000
0007FFFFFE0000
0007FFFFFF0000
000FFFDFFF8000
001FFFCFFFC000
003FFF8FFFE000
007FFF07FFF000
00FFFE03FFF000
00FFFC01FFF800
01FFF800FFFC00
00000000000000
00000000000000
00000000000000
00000000000000
00000000000000
00001FFFC00000
0001FFFFFC0000
000FFFFFFF8000
003FFFFFFFE000
007FFFFFFFF000
01FFFFFFFFF800
03FFFFFFFFFC00
03FFFFFFFFFE00
07FFFFFFFFFE00
0FFFFFFFFFFF00
0FFFFFFFFFFF00
1FFFFC01FFFF80
1FFFF0007FFF80
1FFFE0003FFF80
1FFFC0003FFF80
1FFFC0003FFF80
3FFFC0003FFF80
3FFFC0003FFF80
000000007FFF80
000000007FFF80
00000003FFFF80
000003FFFFFF80
0003FFFFFFFF80
003FFFFFFFFF80
00FFFFFFFFFF80
03FFFFFFFFFF80
07FFFFFFFFFF80
0FFFFFFFFFFF80
1FFFFFFFFFFF80
3FFFFFFF3FFF80
7FFFFFC03FFF80
7FFFF0003FFF80
7FFFC0003FFF80
FFFF00003FFF80
FFFF00003FFF80
FFFF00003FFF80
FFFE00007FFF80
FFFF00007FFF80
FFFF0000FFFF80
FFFF0000FFFF80
FFFF8003FFFF80
FFFFC007FFFF80
7FFFF87FFFFF80
7FFFFFFFFFFF80
7FFFFFFFFFFF80
3FFFFFFFFFFF80
1FFFFFFFFFFF80
1FFFFFFF9FFF80
0FFFFFFF1FFFC0
03FFFFFE1FFFC0
01FFFFF81FFFC0
007FFFE01FFFE0
0007FF00000000
ENDCHAR
STARTCHAR 00E3
ENCODING 227
SWIDTH 561 0
DWIDTH 55 0
BBX 51 71 2 -1
BITMAP
0001FC001FF800
0007FFC01FF800
000FFFF01FF800
001FFFFFFFF800
003FFFFFFFF000
007FFFFFFFF000
007FFFFFFFF000
007FFFFFFFF000
00FFFFFFFFE000
00FFFFFFFFC000
00FFC1FFFFC000
00FFC03FFF8000
00FF8007FE0000
00000000000000
00000000000000
00000000000000
00000000000000
00000000000000
00001FFFC00000
0001FFFFFC0000
000FFFFFFF8000
003FFFFFFFE000
007FFFFFFFF000
01FFFFFFFFF800
03FFFFFFFFFC00
03FFFFFFFFFE00
07FFFFFFFFFE00
0FFFFFFFFFFF00
0FFFFFFFFFFF00
1FFFFC01FFFF80
1FFFF0007FFF80
1FFFE0003FFF80
1FFFC0003FFF80
1FFFC0003FFF80
3FFFC0003FFF80
3FFFC0003FFF80
000000007FFF80
000000007FFF80
00000003FFFF80
000003FFFFFF80
0003FFFFFFFF80
003FFFFFFFFF80
00FFFFFFFFFF80
03FFFFFFFFFF80
07FFFFFFFFFF80
0FFFFFFFFFFF80
1FFFFFFFFFFF80
3FFFFFFF3FFF80
7FFFFFC03FFF80
7FFFF0003FFF80
7FFFC0003FFF80
FFFF00003FFF80
FFFF00003FFF80
FFFF00003FFF80
FFFE00007FFF80
FFFF00007FFF80
FFFF0000FFFF80
FFFF0000FFFF80
FFFF8003FFFF80
FFFFC007FFFF80
7FFFF87FFFFF80
7FFFFFFFFFFF80
7FFFFFFFFFFF80
3FFFFFFFFFFF80
1FFFFFFFFFFF80
1FFFFFFF9FFF80
0FFFFFFF1FFFC0
03FFFFFE1FFFC0
01FFFFF81FFFC0
007FFFE01FFFE0
0007FF00000000
ENDCHAR
STARTCHAR 00E4
ENCODING 228
SWIDTH 561 0
DWIDTH 55 0
BBX 51 71 2 -1
BITMAP
007FFE07FFF000
007FFE07FFF000
007FFE07FFF000
007FFE07FFF000
007FFE07FFF000
007FFE07FFF000
007FFE07FFF000
007FFE07FFF000
007FFE07FFF000
007FFE07FFF000
007FFE07FFF000
007FFE07FFF000
007FFE07FFF000
00000000000000
00000000000000
00000000000000
00000000000000
00000000000000
00001FFFC00000
0001FFFFFC0000
000FFFFFFF8000
003FFFFFFFE000
007FFFFFFFF000
01FFFFFFFFF800
03FFFFFFFFFC00
03FFFFFFFFFE00
07FFFFFFFFFE00
0FFFFFFFFFFF00
0FFFFFFFFFFF00
1FFFFC01FFFF80
1FFFF0007FFF80
1FFFE0003FFF80
1FFFC0003FFF80
1FFFC0003FFF80
3FFFC0003FFF80
3FFFC0003FFF80
000000007FFF80
000000007FFF80
00000003FFFF80
000003FFFFFF80
0003FFFFFFFF80
003FFFFFFFFF80
00FFFFFFFFFF80
03FFFFFFFFFF80
07FFFFFFFFFF80
0FFFFFFFFFFF80
1FFFFFFFFFFF80
3FFFFFFF3FFF80
7FFFFFC03FFF80
7FFFF0003FFF80
7FFFC0003FFF80
FFFF00003FFF80
FFFF00003FFF80
FFFF00003FFF80
FFFE00007FFF80
FFFF00007FFF80
FFFF0000FFFF80
FFFF0000FFFF80
FFFF8003FFFF80
FFFFC007FFFF80
7FFFF87FFFFF80
7FFFFFFFFFFF80
7FFFFFFFFFFF80
3FFFFFFFFFFF80
1FFFFFFFFFFF80
1FFFFFFF9FFF80
0FFFFFFF1FFFC0
03FFFFFE1FFFC0
01FFFFF81FFFC0
007FFFE01FFFE0
0007FF00000000
ENDCHAR
STARTCHAR 00E5
ENCODING 229
SWIDTH 561 0
DWIDTH 55 0
BBX 51 86 2 -1
BITMAP
00000020000000
000007FF000000
00003FFFC00000
00007FFFF00000
0000FFFFF80000
0001FFFFFC0000
0003FFFFFE0000
0007FFFFFF0000
0007FFFFFF0000
000FFF07FF8000
000FFC03FF8000
000FFC01FF8000
001FF800FF8000
001FF800FF8000
001FF800FFC000
001FF800FF8000
001FF800FF8000
000FFC01FF8000
000FFC03FF8000
000FFF07FF8000
0007FFFFFF0000
0007FFFFFF0000
0003FFFFFE0000
0001FFFFFC0000
0000FFFFF80000
00007FFFF00000
00003FFFE00000
00000FFF800000
00000070000000
00000000000000
00000000000000
00000000000000
00000000000000
00001FFFC00000
0001FFFFFC0000
000FFFFFFF8000
003FFFFFFFE000
007FFFFFFFF000
01FFFFFFFFF800
03FFFFFFFFFC00
03FFFFFFFFFE00
07FFFFFFFFFE00
0FFFFFFFFFFF00
0FFFFFFFFFFF00
1FFFFC01FFFF80
1FFFF0007FFF80
1FFFE0003FFF80
1FFFC0003FFF80
1FFFC0003FFF80
3FFFC0003FFF80
3FFFC0003FFF80
000000007FFF80
000000007FFF80
00000003FFFF80
000003FFFFFF80
0003FFFFFFFF80
003FFFFFFFFF80
00FFFFFFFFFF80
03FFFFFFFFFF80
07FFFFFFFFFF80
0FFFFFFFFFFF80
1FFFFFFFFFFF80
3FFFFFFF3FFF80
7FFFFFC03FFF80
7FFFF0003FFF80
7FFFC0003FFF80
FFFF00003FFF80
FFFF00003FFF80
FFFF00003FFF80
FFFE00007FFF80
FFFF00007FFF80
FFFF0000FFFF80
FFFF0000FFFF80
FFFF8003FFFF80
FFFFC007FFFF80
7FFFF87FFFFF80
7FFFFFFFFFFF80
7FFFFFFFFFFF80
3FFFFFFFFFFF80
1FFFFFFFFFFF80
1FFFFFFF9FFF80
0FFFFFFF1FFFC0
03FFFFFE1FFFC0
01FFFFF81FFFC0
007FFFE01FFFE0
0007FF00000000
ENDCHAR
STARTCHAR 00E6
ENCODING 230
SWIDTH 897 0
DWIDTH 88 0
BBX 84 53 2 -1
BITMAP
00001FFF800007FF000000
0001FFFFF8003FFFF00000
000FFFFFFF01FFFFFC0000
003FFFFFFF83FFFFFF0000
007FFFFFFFCFFFFFFFC000
01FFFFFFFFFFFFFFFFE000
03FFFFFFFFFFFFFFFFF000
03FFFFFFFFFFFFFFFFF800
07FFFFFFFFFFFFFFFFFC00
0FFFFFFFFFFFFFFFFFFC00
0FFFFFFFFFFFFFFFFFFE00
1FFFFC01FFFFFF87FFFF00
1FFFF0007FFFFC00FFFF00
1FFFE0003FFFF0007FFF80
1FFFC0003FFFE0003FFF80
3FFFC0003FFFC0001FFFC0
3FFFC0003FFFC0000FFFC0
3FFFC0003FFF80000FFFC0
000000007FFF800007FFC0
000000007FFF800007FFE0
00000003FFFF000007FFE0
000003FFFFFFFFFFFFFFE0
0003FFFFFFFFFFFFFFFFE0
003FFFFFFFFFFFFFFFFFE0
00FFFFFFFFFFFFFFFFFFF0
03FFFFFFFFFFFFFFFFFFF0
07FFFFFFFFFFFFFFFFFFF0
1FFFFFFFFFFFFFFFFFFFF0
1FFFFFFFFFFFFFFFFFFFF0
3FFFFFFF3FFFFFFFFFFFF0
7FFFFFC03FFFFFFFFFFFF0
7FFFF0003FFF0000000000
7FFFC0003FFF0000000000
FFFF00003FFF8000000000
FFFF00003FFF8000000000
FFFF00003FFF8000000000
FFFE00007FFFC00007FFC0
FFFE00007FFFC0000FFFC0
FFFF0000FFFFE0001FFFC0
FFFF0000FFFFF0003FFF80
FFFF8003FFFFFC007FFF80
FFFFC007FFFFFF87FFFF00
7FFFF87FFFFFFFFFFFFF00
7FFFFFFFFFFFFFFFFFFE00
7FFFFFFFFFFFFFFFFFFC00
3FFFFFFFFF7FFFFFFFFC00
1FFFFFFFFE3FFFFFFFF800
0FFFFFFFFC1FFFFFFFE000
07FFFFFFF00FFFFFFFC000
03FFFFFFE003FFFFFF8000
00FFFFFF8001FFFFFE0000
003FFFFC00003FFFF00000
0003FFC0000003FF000000
ENDCHAR
STARTCHAR 00E7
ENCODING 231
SWIDTH 561 0
DWIDTH 55 0
BBX 51 75 2 -23
BITMAP
00000FFF000000
00007FFFF00000
0003FFFFFE0000
000FFFFFFF8000
001FFFFFFFC000
007FFFFFFFE000
00FFFFFFFFF800
01FFFFFFFFFC00
03FFFFFFFFFC00
07FFFFFFFFFE00
07FFFFFFFFFF00
0FFFFFFFFFFF00
1FFFFFDFFFFF80
1FFFFC01FFFF80
1FFFF0007FFFC0
3FFFE0003FFFC0
3FFFC0003FFFC0
3FFFC0001FFFE0
7FFF80001FFFE0
7FFF80000FFFE0
7FFF0000000000
7FFF0000000000
7FFF0000000000
FFFF0000000000
FFFF0000000000
FFFF0000000000
FFFF0000000000
FFFF0000000000
FFFF0000000000
FFFF0000000000
7FFF0000000000
7FFF0000000000
7FFF00000FFFE0
7FFF80000FFFE0
7FFF80000FFFE0
7FFFC0001FFFE0
3FFFC0001FFFE0
3FFFE0003FFFC0
1FFFF0007FFFC0
1FFFF801FFFF80
1FFFFFDFFFFF80
0FFFFFFFFFFF80
07FFFFFFFFFF00
07FFFFFFFFFE00
03FFFFFFFFFE00
01FFFFFFFFFC00
00FFFFFFFFF800
007FFFFFFFF000
003FFFFFFFC000
000FFFFFFF8000
0003FFFFFE0000
0000FFFFF80000
00000FFF800000
000000FC000000
000001F8000000
000003F0000000
000007F0000000
00000FFF000000
00000FFFE00000
00000FFFF00000
00000FFFF80000
0000003FFC0000
0000001FFC0000
0000000FFE0000
0000000FFE0000
0000000FFE0000
0000000FFE0000
0000001FFC0000
0000007FFC0000
00007FFFFC0000
00007FFFF80000
00007FFFF00000
00007FFFE00000
00007FFF800000
00001FF8000000
ENDCHAR
STARTCHAR 00E8
ENCODING 232
SWIDTH 581 0
DWIDTH 57 0
BBX 52 72 2 -1
BITMAP
00FFFF00000000
007FFF80000000
003FFFC0000000
001FFFC0000000
000FFFE0000000
0007FFE0000000
0007FFF0000000
0003FFF8000000
0001FFF8000000
0000FFFC000000
00007FFC000000
00003FFE000000
00001FFF000000
00000FFF000000
00000000000000
00000000000000
00000000000000
00000000000000
00000000000000
000007FF000000
00007FFFF00000
0003FFFFFC0000
000FFFFFFF0000
001FFFFFFFC000
007FFFFFFFE000
00FFFFFFFFF000
01FFFFFFFFF800
03FFFFFFFFFC00
07FFFFFFFFFE00
07FFFFFFFFFF00
0FFFFF07FFFF00
0FFFF800FFFF80
1FFFE0007FFF80
1FFFC0003FFFC0
3FFF80001FFFC0
3FFF80000FFFE0
3FFF00000FFFE0
7FFF000007FFE0
7FFF000007FFF0
7FFE000007FFF0
7FFFFFFFFFFFF0
7FFFFFFFFFFFF0
FFFFFFFFFFFFF0
FFFFFFFFFFFFF0
FFFFFFFFFFFFF0
FFFFFFFFFFFFF0
FFFFFFFFFFFFF0
FFFFFFFFFFFFF0
FFFFFFFFFFFFF0
7FFFFFFFFFFFF0
7FFE0000000000
7FFE0000000000
7FFF0000000000
7FFF0000000000
3FFF0000000000
3FFF800007FFE0
3FFF80000FFFE0
1FFFC0001FFFE0
1FFFE0003FFFC0
0FFFF800FFFFC0
0FFFFF07FFFF80
07FFFFFFFFFF00
03FFFFFFFFFF00
03FFFFFFFFFE00
01FFFFFFFFFC00
00FFFFFFFFF800
007FFFFFFFF000
001FFFFFFFE000
000FFFFFFF8000
0003FFFFFE0000
00007FFFF00000
000007FF000000
ENDCHAR
STARTCHAR 00E9
ENCODING 233
SWIDTH 581 0
DWIDTH 57 0
BBX 52 72 2 -1
BITMAP
00000007FFFC00
00000007FFF800
0000000FFFF000
0000001FFFE000
0000001FFFC000
0000003FFF8000
0000007FFF0000
0000007FFE0000
000000FFFC0000
000000FFF80000
000001FFF00000
000003FFE00000
000003FFE00000
000007FFC00000
00000000000000
00000000000000
00000000000000
00000000000000
00000000000000
000007FF000000
00007FFFF00000
0003FFFFFC0000
000FFFFFFF0000
001FFFFFFFC000
007FFFFFFFE000
00FFFFFFFFF000
01FFFFFFFFF800
03FFFFFFFFFC00
07FFFFFFFFFE00
07FFFFFFFFFF00
0FFFFF07FFFF00
0FFFF800FFFF80
1FFFE0007FFF80
1FFFC0003FFFC0
3FFF80001FFFC0
3FFF80000FFFE0
3FFF00000FFFE0
7FFF000007FFE0
7FFF000007FFF0
7FFE000007FFF0
7FFFFFFFFFFFF0
7FFFFFFFFFFFF0
FFFFFFFFFFFFF0
FFFFFFFFFFFFF0
FFFFFFFFFFFFF0
FFFFFFFFFFFFF0
FFFFFFFFFFFFF0
FFFFFFFFFFFFF0
FFFFFFFFFFFFF0
7FFFFFFFFFFFF0
7FFE0000000000
7FFE0000000000
7FFF0000000000
7FFF0000000000
3FFF0000000000
3FFF800007FFE0
3FFF80000FFFE0
1FFFC0001FFFE0
1FFFE0003FFFC0
0FFFF800FFFFC0
0FFFFF07FFFF80
07FFFFFFFFFF00
03FFFFFFFFFF00
03FFFFFFFFFE00
01FFFFFFFFFC00
00FFFFFFFFF800
007FFFFFFFF000
001FFFFFFFE000
000FFFFFFF8000
0003FFFFFE0000
00007FFFF00000
000007FF000000
ENDCHAR
STARTCHAR 00EA
ENCODING 234
SWIDTH 581 0
DWIDTH 57 0
BBX 52 72 2 -1
BITMAP
00007FFFE00000
00007FFFF00000
0000FFFFF80000
0001FFFFFC0000
0003FFFFFC0000
0007FFFFFE0000
000FFFFFFF0000
000FFFFFFF8000
001FFF9FFFC000
003FFF0FFFE000
007FFE07FFE000
00FFFE03FFF000
00FFFC01FFF800
01FFF800FFFC00
00000000000000
00000000000000
00000000000000
00000000000000
00000000000000
000007FF000000
00007FFFF00000
0003FFFFFC0000
000FFFFFFF0000
001FFFFFFFC000
007FFFFFFFE000
00FFFFFFFFF000
01FFFFFFFFF800
03FFFFFFFFFC00
07FFFFFFFFFE00
07FFFFFFFFFF00
0FFFFF07FFFF00
0FFFF800FFFF80
1FFFE0007FFF80
1FFFC0003FFFC0
3FFF80001FFFC0
3FFF80000FFFE0
3FFF00000FFFE0
7FFF000007FFE0
7FFF000007FFF0
7FFE000007FFF0
7FFFFFFFFFFFF0
7FFFFFFFFFFFF0
FFFFFFFFFFFFF0
FFFFFFFFFFFFF0
FFFFFFFFFFFFF0
FFFFFFFFFFFFF0
FFFFFFFFFFFFF0
FFFFFFFFFFFFF0
FFFFFFFFFFFFF0
7FFFFFFFFFFFF0
7FFE0000000000
7FFE0000000000
7FFF0000000000
7FFF0000000000
3FFF0000000000
3FFF800007FFE0
3FFF80000FFFE0
1FFFC0001FFFE0
1FFFE0003FFFC0
0FFFF800FFFFC0
0FFFFF07FFFF80
07FFFFFFFFFF00
03FFFFFFFFFF00
03FFFFFFFFFE00
01FFFFFFFFFC00
00FFFFFFFFF800
007FFFFFFFF000
001FFFFFFFE000
000FFFFFFF8000
0003FFFFFE0000
00007FFFF00000
000007FF000000
ENDCHAR
STARTCHAR 00EB
ENCODING 235
SWIDTH 581 0
DWIDTH 57 0
BBX 52 71 2 -1
BITMAP
007FFE07FFF000
007FFE07FFF000
007FFE07FFF000
007FFE07FFF000
007FFE07FFF000
007FFE07FFF000
007FFE07FFF000
007FFE07FFF000
007FFE07FFF000
007FFE07FFF000
007FFE07FFF000
007FFE07FFF000
007FFE07FFF000
00000000000000
00000000000000
00000000000000
00000000000000
00000000000000
000007FF000000
00007FFFF00000
0003FFFFFC0000
000FFFFFFF0000
001FFFFFFFC000
007FFFFFFFE000
00FFFFFFFFF000
01FFFFFFFFF800
03FFFFFFFFFC00
07FFFFFFFFFE00
07FFFFFFFFFF00
0FFFFF07FFFF00
0FFFF800FFFF80
1FFFE0007FFF80
1FFFC0003FFFC0
3FFF80001FFFC0
3FFF80000FFFE0
3FFF00000FFFE0
7FFF000007FFE0
7FFF000007FFF0
7FFE000007FFF0
7FFFFFFFFFFFF0
7FFFFFFFFFFFF0
FFFFFFFFFFFFF0
FFFFFFFFFFFFF0
FFFFFFFFFFFFF0
FFFFFFFFFFFFF0
FFFFFFFFFFFFF0
FFFFFFFFFFFFF0
FFFFFFFFFFFFF0
7FFFFFFFFFFFF0
7FFE0000000000
7FFE0000000000
7FFF0000000000
7FFF0000000000
3FFF0000000000
3FFF800007FFE0
3FFF80000FFFE0
1FFFC0001FFFE0
1FFFE0003FFFC0
0FFFF800FFFFC0
0FFFFF07FFFF80
07FFFFFFFFFF00
03FFFFFFFFFF00
03FFFFFFFFFE00
01FFFFFFFFFC00
00FFFFFFFFF800
007FFFFFFFF000
001FFFFFFFE000
000FFFFFFF8000
0003FFFFFE0000
00007FFFF00000
000007FF000000
ENDCHAR
STARTCHAR 00EC
ENCODING 236
SWIDTH 244 0
DWIDTH 24 0
BBX 22 71 -2 0
BITMAP
FFFE00
FFFE00
7FFE00
3FFF00
3FFF00
1FFF00
0FFF80
0FFF80
07FF80
07FFC0
03FFC0
01FFE0
01FFE0
00FFE0
000000
000000
000000
000000
000000
000000
03FFFC
03FFFC
03FFFC
03FFFC
03FFFC
03FFFC
03FFFC
03FFFC
03FFFC
03FFFC
03FFFC
03FFFC
03FFFC
03FFFC
03FFFC
03FFFC
03FFFC
03FFFC
03FFFC
03FFFC
03FFFC
03FFFC
03FFFC
03FFFC
03FFFC
03FFFC
03FFFC
03FFFC
03FFFC
03FFFC
03FFFC
03FFFC
03FFFC
03FFFC
03FFFC
03FFFC
03FFFC
03FFFC
03FFFC
03FFFC
03FFFC
03FFFC
03FFFC
03FFFC
03FFFC
03FFFC
03FFFC
03FFFC
03FFFC
03FFFC
03FFFC
ENDCHAR
STARTCHAR 00ED
ENCODING 237
SWIDTH 244 0
DWIDTH 24 0
BBX 23 71 4 0
BITMAP
01FFFE
01FFFC
01FFF8
03FFF8
03FFF0
03FFE0
07FFE0
07FFC0
07FF80
0FFF80
0FFF00
0FFE00
1FFE00
1FFC00
000000
000000
000000
000000
000000
000000
FFFF00
FFFF00
FFFF00
FFFF00
FFFF00
FFFF00
FFFF00
FFFF00
FFFF00
FFFF00
FFFF00
FFFF00
FFFF00
FFFF00
FFFF00
FFFF00
FFFF00
FFFF00
FFFF00
FFFF00
FFFF00
FFFF00
FFFF00
FFFF00
FFFF00
FFFF00
FFFF00
FFFF00
FFFF00
FFFF00
FFFF00
FFFF00
FFFF00
FFFF00
FFFF00
FFFF00
FFFF00
FFFF00
FFFF00
FFFF00
FFFF00
FFFF00
FFFF00
FFFF00
FFFF00
FFFF00
FFFF00
FFFF00
FFFF00
FFFF00
FFFF00
ENDCHAR
STARTCHAR 00EE
ENCODING 238
SWIDTH 244 0
DWIDTH 24 0
BBX 34 71 -5 0
BITMAP
007FFF8000
00FFFFC000
01FFFFE000
01FFFFE000
03FFFFF000
07FFFFF800
0FFFFFFC00
0FFFFFFC00
1FFF3FFE00
3FFE1FFF00
3FFE1FFF00
7FFC0FFF80
FFF807FFC0
FFF807FFC0
0000000000
0000000000
0000000000
0000000000
0000000000
0000000000
007FFF8000
007FFF8000
007FFF8000
007FFF8000
007FFF8000
007FFF8000
007FFF8000
007FFF8000
007FFF8000
007FFF8000
007FFF8000
007FFF8000
007FFF8000
007FFF8000
007FFF8000
007FFF8000
007FFF8000
007FFF8000
007FFF8000
007FFF8000
007FFF8000
007FFF8000
007FFF8000
007FFF8000
007FFF8000
007FFF8000
007FFF8000
007FFF8000
007FFF8000
007FFF8000
007FFF8000
007FFF8000
007FFF8000
007FFF8000
007FFF8000
007FFF8000
007FFF8000
007FFF8000
007FFF8000
007FFF8000
007FFF8000
007FFF8000
007FFF8000
007FFF8000
007FFF8000
007FFF8000
007FFF8000
007FFF8000
007FFF8000
007FFF8000
007FFF8000
ENDCHAR
STARTCHAR 00EF
ENCODING 239
SWIDTH 244 0
DWIDTH 24 0
BBX 32 70 -4 0
BITMAP
FFFC1FFF
FFFC1FFF
FFFC1FFF
FFFC1FFF
FFFC1FFF
FFFC1FFF
FFFC1FFF
FFFC1FFF
FFFC1FFF
FFFC1FFF
FFFC1FFF
FFFC1FFF
FFFC1FFF
00000000
00000000
00000000
00000000
00000000
00000000
00FFFF00
00FFFF00
00FFFF00
00FFFF00
00FFFF00
00FFFF00
00FFFF00
00FFFF00
00FFFF00
00FFFF00
00FFFF00
00FFFF00
00FFFF00
00FFFF00
00FFFF00
00FFFF00
00FFFF00
00FFFF00
00FFFF00
00FFFF00
00FFFF00
00FFFF00
00FFFF00
00FFFF00
00FFFF00
00FFFF00
00FFFF00
00FFFF00
00FFFF00
00FFFF00
00FFFF00
00FFFF00
00FFFF00
00FFFF00
00FFFF00
00FFFF00
00FFFF00
00FFFF00
00FFFF00
00FFFF00
00FFFF00
00FFFF00
00FFFF00
00FFFF00
00FFFF00
00FFFF00
00FFFF00
00FFFF00
00FFFF00
00FFFF00
00FFFF00
ENDCHAR
STARTCHAR 00F0
ENCODING 240
SWIDTH 591 0
DWIDTH 58 0
BBX 53 72 2 -1
BITMAP
00000000000100
0003FFFC000F00
0001FFFE00FF00
0000FFFF07FF00
00007FFFFFFF00
00003FFFFFFF00
00001FFFFFFF00
00000FFFFFFF00
00000FFFFFFF00
0000FFFFFFFC00
0007FFFFFFC000
001FFFFFFF0000
001FFFFFFF0000
001FFFFFFF8000
001FFFFFFFC000
001FFF8FFFE000
001FF807FFE000
001FC007FFF000
001C0003FFF800
00000001FFF800
00000000FFFC00
000007FC7FFE00
00007FFFFFFE00
0003FFFFFFFF00
000FFFFFFFFF00
003FFFFFFFFF80
007FFFFFFFFF80
00FFFFFFFFFFC0
01FFFFFFFFFFC0
03FFFFFFFFFFC0
07FFFFFFFFFFE0
0FFFFFFFFFFFE0
0FFFFFFFFFFFE0
1FFFFE03FFFFF0
1FFFF8007FFFF0
3FFFF0003FFFF0
3FFFE0001FFFF0
3FFFC0000FFFF8
7FFF80000FFFF8
7FFF800007FFF8
7FFF800007FFF8
7FFF000007FFF8
7FFF000003FFF8
FFFF000003FFF8
FFFF000003FFF8
FFFF000003FFF8
FFFF000003FFF8
FFFF000003FFF8
FFFF000003FFF8
FFFF000003FFF8
7FFF000003FFF8
7FFF000007FFF8
7FFF800007FFF0
7FFF800007FFF0
7FFF80000FFFF0
3FFFC0000FFFF0
3FFFE0001FFFE0
1FFFF0003FFFE0
1FFFF800FFFFC0
0FFFFF07FFFFC0
0FFFFFFFFFFF80
07FFFFFFFFFF80
07FFFFFFFFFF00
03FFFFFFFFFE00
01FFFFFFFFFC00
00FFFFFFFFF800
007FFFFFFFF000
001FFFFFFFE000
000FFFFFFF8000
0001FFFFFE0000
00007FFFF80000
000007FF800000
ENDCHAR
STARTCHAR 00F1
ENCODING 241
SWIDTH 581 0
DWIDTH 57 0
BBX 49 70 4 0
BITMAP
0007F8003FE000
001FFF007FE000
003FFFC07FE000
007FFFFFFFE000
00FFFFFFFFE000
00FFFFFFFFC000
01FFFFFFFFC000
01FFFFFFFFC000
01FFFFFFFF8000
03FFFFFFFF8000
03FF07FFFF0000
03FF00FFFE0000
03FE001FF80000
00000000000000
00000000000000
00000000000000
00000000000000
00000000000000
0000001FF00000
FFFE00FFFE0000
FFFE03FFFF8000
FFFE0FFFFFC000
FFFE1FFFFFF000
FFFE3FFFFFF000
FFFE7FFFFFF800
FFFEFFFFFFFC00
FFFFFFFFFFFC00
FFFFFFFFFFFE00
FFFFFFFFFFFE00
FFFFFFFFFFFF00
FFFFFFFFFFFF00
FFFFFC07FFFF00
FFFFF001FFFF00
FFFFE000FFFF80
FFFFC000FFFF80
FFFF80007FFF80
FFFF80007FFF80
FFFF00007FFF80
FFFF00007FFF80
FFFF00007FFF80
FFFF00007FFF80
FFFF00007FFF80
FFFF00007FFF80
FFFF00007FFF80
FFFF00007FFF80
FFFF00007FFF80
FFFF00007FFF80
FFFF00007FFF80
FFFF00007FFF80
FFFF00007FFF80
FFFF00007FFF80
FFFF00007FFF80
FFFF00007FFF80
FFFF00007FFF80
FFFF00007FFF80
FFFF00007FFF80
FFFF00007FFF80
FFFF00007FFF80
FFFF00007FFF80
FFFF00007FFF80
FFFF00007FFF80
FFFF00007FFF80
FFFF00007FFF80
FFFF00007FFF80
FFFF00007FFF80
FFFF00007FFF80
FFFF00007FFF80
FFFF00007FFF80
FFFF00007FFF80
FFFF00007FFF80
ENDCHAR
STARTCHAR 00F2
ENCODING 242
SWIDTH 591 0
DWIDTH 58 0
BBX 53 72 2 -1
BITMAP
00FFFF80000000
007FFF80000000
003FFFC0000000
001FFFE0000000
000FFFE0000000
0007FFF0000000
0003FFF8000000
0001FFF8000000
0000FFFC000000
00007FFC000000
00003FFE000000
00001FFF000000
00000FFF000000
00000FFF800000
00000000000000
00000000000000
00000000000000
00000000000000
00000000000000
000007FF800000
00007FFFF80000
0003FFFFFE0000
000FFFFFFF8000
001FFFFFFFE000
007FFFFFFFF000
00FFFFFFFFF800
01FFFFFFFFFC00
03FFFFFFFFFE00
03FFFFFFFFFF00
07FFFFFFFFFF80
0FFFFFFFFFFFC0
0FFFFF87FFFFC0
1FFFFC00FFFFE0
1FFFF0003FFFE0
3FFFE0001FFFE0
3FFFC0001FFFF0
3FFFC0000FFFF0
7FFF80000FFFF0
7FFF800007FFF8
7FFF800007FFF8
7FFF000007FFF8
7FFF000003FFF8
FFFF000003FFF8
FFFF000003FFF8
FFFF000003FFF8
FFFF000003FFF8
FFFF000003FFF8
FFFF000003FFF8
FFFF000003FFF8
7FFF000003FFF8
7FFF000007FFF8
7FFF800007FFF8
7FFF800007FFF8
7FFF80000FFFF0
3FFFC0000FFFF0
3FFFC0001FFFF0
3FFFE0001FFFE0
1FFFF0003FFFE0
1FFFF800FFFFE0
0FFFFF07FFFFC0
0FFFFFFFFFFFC0
07FFFFFFFFFF80
07FFFFFFFFFF00
03FFFFFFFFFE00
01FFFFFFFFFC00
00FFFFFFFFF800
007FFFFFFFF000
001FFFFFFFE000
000FFFFFFF8000
0003FFFFFE0000
00007FFFF80000
000007FF800000
ENDCHAR
STARTCHAR 00F3
ENCODING 243
SWIDTH 591 0
DWIDTH 58 0
BBX 53 72 2 -1
BITMAP
00000003FFFC00
00000007FFF800
0000000FFFF000
0000000FFFE000
0000001FFFC000
0000001FFFC000
0000003FFF8000
0000007FFF0000
0000007FFE0000
000000FFFC0000
000000FFF80000
000001FFF00000
000003FFE00000
000003FFC00000
00000000000000
00000000000000
00000000000000
00000000000000
00000000000000
000007FF800000
00007FFFF80000
0003FFFFFE0000
000FFFFFFF8000
001FFFFFFFE000
007FFFFFFFF000
00FFFFFFFFF800
01FFFFFFFFFC00
03FFFFFFFFFE00
03FFFFFFFFFF00
07FFFFFFFFFF80
0FFFFFFFFFFFC0
0FFFFF87FFFFC0
1FFFFC00FFFFE0
1FFFF0003FFFE0
3FFFE0001FFFE0
3FFFC0001FFFF0
3FFFC0000FFFF0
7FFF80000FFFF0
7FFF800007FFF8
7FFF800007FFF8
7FFF000007FFF8
7FFF000003FFF8
FFFF000003FFF8
FFFF000003FFF8
FFFF000003FFF8
FFFF000003FFF8
FFFF000003FFF8
FFFF000003FFF8
FFFF000003FFF8
7FFF000003FFF8
7FFF000007FFF8
7FFF800007FFF8
7FFF800007FFF8
7FFF80000FFFF0
3FFFC0000FFFF0
3FFFC0001FFFF0
3FFFE0001FFFE0
1FFFF0003FFFE0
1FFFF800FFFFE0
0FFFFF07FFFFC0
0FFFFFFFFFFFC0
07FFFFFFFFFF80
07FFFFFFFFFF00
03FFFFFFFFFE00
01FFFFFFFFFC00
00FFFFFFFFF800
007FFFFFFFF000
001FFFFFFFE000
000FFFFFFF8000
0003FFFFFE0000
00007FFFF80000
000007FF800000
ENDCHAR
STARTCHAR 00F4
ENCODING 244
SWIDTH 591 0
DWIDTH 58 0
BBX 53 72 2 -1
BITMAP
00003FFFF00000
00007FFFF00000
0000FFFFF80000
0001FFFFFC0000
0001FFFFFE0000
0003FFFFFF0000
0007FFFFFF8000
000FFFFFFF8000
001FFFCFFFC000
003FFF87FFE000
003FFF03FFF000
007FFE01FFF800
00FFFC00FFFC00
01FFF8007FFC00
00000000000000
00000000000000
00000000000000
00000000000000
00000000000000
000007FF800000
00007FFFF80000
0003FFFFFE0000
000FFFFFFF8000
001FFFFFFFE000
007FFFFFFFF000
00FFFFFFFFF800
01FFFFFFFFFC00
03FFFFFFFFFE00
03FFFFFFFFFF00
07FFFFFFFFFF80
0FFFFFFFFFFFC0
0FFFFF87FFFFC0
1FFFFC00FFFFE0
1FFFF0003FFFE0
3FFFE0001FFFE0
3FFFC0001FFFF0
3FFFC0000FFFF0
7FFF80000FFFF0
7FFF800007FFF8
7FFF800007FFF8
7FFF000007FFF8
7FFF000003FFF8
FFFF000003FFF8
FFFF000003FFF8
FFFF000003FFF8
FFFF000003FFF8
FFFF000003FFF8
FFFF000003FFF8
FFFF000003FFF8
7FFF000003FFF8
7FFF000007FFF8
7FFF800007FFF8
7FFF800007FFF8
7FFF80000FFFF0
3FFFC0000FFFF0
3FFFC0001FFFF0
3FFFE0001FFFE0
1FFFF0003FFFE0
1FFFF800FFFFE0
0FFFFF07FFFFC0
0FFFFFFFFFFFC0
07FFFFFFFFFF80
07FFFFFFFFFF00
03FFFFFFFFFE00
01FFFFFFFFFC00
00FFFFFFFFF800
007FFFFFFFF000
001FFFFFFFE000
000FFFFFFF8000
0003FFFFFE0000
00007FFFF80000
000007FF800000
ENDCHAR
STARTCHAR 00F5
ENCODING 245
SWIDTH 591 0
DWIDTH 58 0
BBX 53 71 2 -1
BITMAP
0001FE000FF800
0007FFC00FF800
000FFFF81FF800
001FFFFFFFF800
003FFFFFFFF800
003FFFFFFFF800
007FFFFFFFF000
007FFFFFFFF000
007FFFFFFFE000
007FFFFFFFE000
007FE0FFFFC000
00FFC03FFF8000
00FFC007FE0000
00000000000000
00000000000000
00000000000000
00000000000000
00000000000000
000007FF800000
00007FFFF80000
0003FFFFFE0000
000FFFFFFF8000
001FFFFFFFE000
007FFFFFFFF000
00FFFFFFFFF800
01FFFFFFFFFC00
03FFFFFFFFFE00
03FFFFFFFFFF00
07FFFFFFFFFF80
0FFFFFFFFFFFC0
0FFFFF87FFFFC0
1FFFFC00FFFFE0
1FFFF0003FFFE0
3FFFE0001FFFE0
3FFFC0001FFFF0
3FFFC0000FFFF0
7FFF80000FFFF0
7FFF800007FFF8
7FFF800007FFF8
7FFF000007FFF8
7FFF000003FFF8
FFFF000003FFF8
FFFF000003FFF8
FFFF000003FFF8
FFFF000003FFF8
FFFF000003FFF8
FFFF000003FFF8
FFFF000003FFF8
7FFF000003FFF8
7FFF000007FFF8
7FFF800007FFF8
7FFF800007FFF8
7FFF80000FFFF0
3FFFC0000FFFF0
3FFFC0001FFFF0
3FFFE0001FFFE0
1FFFF0003FFFE0
1FFFF800FFFFE0
0FFFFF07FFFFC0
0FFFFFFFFFFFC0
07FFFFFFFFFF80
07FFFFFFFFFF00
03FFFFFFFFFE00
01FFFFFFFFFC00
00FFFFFFFFF800
007FFFFFFFF000
001FFFFFFFE000
000FFFFFFF8000
0003FFFFFE0000
00007FFFF80000
000007FF800000
ENDCHAR
STARTCHAR 00F6
ENCODING 246
SWIDTH 591 0
DWIDTH 58 0
BBX 53 71 2 -1
BITMAP
007FFF03FFF000
007FFF03FFF000
007FFF03FFF000
007FFF03FFF000
007FFF03FFF000
007FFF03FFF000
007FFF03FFF000
007FFF03FFF000
007FFF03FFF000
007FFF03FFF000
007FFF03FFF000
007FFF03FFF000
007FFF03FFF000
00000000000000
00000000000000
00000000000000
00000000000000
00000000000000
000007FF800000
00007FFFF80000
0003FFFFFE0000
000FFFFFFF8000
001FFFFFFFE000
007FFFFFFFF000
00FFFFFFFFF800
01FFFFFFFFFC00
03FFFFFFFFFE00
03FFFFFFFFFF00
07FFFFFFFFFF80
0FFFFFFFFFFFC0
0FFFFF87FFFFC0
1FFFFC00FFFFE0
1FFFF0003FFFE0
3FFFE0001FFFE0
3FFFC0001FFFF0
3FFFC0000FFFF0
7FFF80000FFFF0
7FFF800007FFF8
7FFF800007FFF8
7FFF000007FFF8
7FFF000003FFF8
FFFF000003FFF8
FFFF000003FFF8
FFFF000003FFF8
FFFF000003FFF8
FFFF000003FFF8
FFFF000003FFF8
FFFF000003FFF8
7FFF000003FFF8
7FFF000007FFF8
7FFF800007FFF8
7FFF800007FFF8
7FFF80000FFFF0
3FFFC0000FFFF0
3FFFC0001FFFF0
3FFFE0001FFFE0
1FFFF0003FFFE0
1FFFF800FFFFE0
0FFFFF07FFFFC0
0FFFFFFFFFFFC0
07FFFFFFFFFF80
07FFFFFFFFFF00
03FFFFFFFFFE00
01FFFFFFFFFC00
00FFFFFFFFF800
007FFFFFFFF000
001FFFFFFFE000
000FFFFFFF8000
0003FFFFFE0000
00007FFFF80000
000007FF800000
ENDCHAR
STARTCHAR 00F7
ENCODING 247
SWIDTH 530 0
DWIDTH 52 0
BBX 46 49 3 10
BITMAP
0000FFFC0000
0000FFFC0000
0000FFFC0000
0000FFFC0000
0000FFFC0000
0000FFFC0000
0000FFFC0000
0000FFFC0000
0000FFFC0000
0000FFFC0000
0000FFFC0000
0000FFFC0000
000000000000
000000000000
000000000000
000000000000
000000000000
000000000000
FFFFFFFFFFFC
FFFFFFFFFFFC
FFFFFFFFFFFC
FFFFFFFFFFFC
FFFFFFFFFFFC
FFFFFFFFFFFC
FFFFFFFFFFFC
FFFFFFFFFFFC
FFFFFFFFFFFC
FFFFFFFFFFFC
FFFFFFFFFFFC
FFFFFFFFFFFC
FFFFFFFFFFFC
000000000000
000000000000
000000000000
000000000000
000000000000
000000000000
0000FFFC0000
0000FFFC0000
0000FFFC0000
0000FFFC0000
0000FFFC0000
0000FFFC0000
0000FFFC0000
0000FFFC0000
0000FFFC0000
0000FFFC0000
0000FFFC0000
0000FFFC0000
ENDCHAR
STARTCHAR 00F8
ENCODING 248
SWIDTH 591 0
DWIDTH 58 0
BBX 53 58 2 -3
BITMAP
00000000000180
000000000003E0
000007FF8007F0
00007FFFF80FF8
0003FFFFFE1FF8
000FFFFFFFBFF0
001FFFFFFFFFE0
007FFFFFFFFFE0
00FFFFFFFFFFC0
01FFFFFFFFFF80
03FFFFFFFFFF00
03FFFFFFFFFF00
07FFFFFFFFFF80
0FFFFF87FFFFC0
0FFFF800FFFFC0
1FFFF0007FFFE0
1FFFE000FFFFE0
3FFFC000FFFFE0
3FFF8001FFFFF0
3FFF8003FFFFF0
7FFF0007FFFFF0
7FFF000FFFFFF8
7FFF001FFBFFF8
7FFF003FF3FFF8
7FFE007FE3FFF8
FFFE00FFE3FFF8
FFFE00FFC3FFF8
FFFE01FF81FFF8
FFFE03FF01FFF8
FFFE07FE01FFF8
FFFE0FFC03FFF8
FFFE1FF803FFF8
7FFE3FF003FFF8
7FFF7FE003FFF8
7FFF7FE003FFF8
7FFFFFC003FFF8
7FFFFF8007FFF0
3FFFFF0007FFF0
3FFFFE000FFFF0
3FFFFC000FFFE0
1FFFF8001FFFE0
1FFFF0003FFFE0
0FFFF800FFFFC0
0FFFFF07FFFFC0
07FFFFFFFFFF80
03FFFFFFFFFF00
03FFFFFFFFFE00
07FFFFFFFFFC00
0FFFFFFFFFF800
1FFFFFFFFFF000
3FFFFFFFFFE000
7FFFFFFFFF8000
7FE3FFFFFE0000
7FC07FFFF80000
3F8007FF800000
1F000000000000
0E000000000000
04000000000000
ENDCHAR
STARTCHAR 00F9
ENCODING 249
SWIDTH 581 0
DWIDTH 57 0
BBX 49 72 4 -1
BITMAP
03FFFC00000000
01FFFE00000000
00FFFE00000000
00FFFF00000000
007FFF80000000
003FFF80000000
001FFFC0000000
000FFFC0000000
0007FFE0000000
0003FFF0000000
0001FFF0000000
0000FFF8000000
00007FFC000000
00003FFC000000
00000000000000
00000000000000
00000000000000
00000000000000
00000000000000
00000000000000
FFFF00007FFF80
FFFF00007FFF80
FFFF00007FFF80
FFFF00007FFF80
FFFF00007FFF80
FFFF00007FFF80
FFFF00007FFF80
FFFF00007FFF80
FFFF00007FFF80
FFFF00007FFF80
FFFF00007FFF80
FFFF00007FFF80
FFFF00007FFF80
FFFF00007FFF80
FFFF00007FFF80
FFFF00007FFF80
FFFF00007FFF80
FFFF00007FFF80
FFFF00007FFF80
FFFF00007FFF80
FFFF00007FFF80
FFFF00007FFF80
FFFF00007FFF80
FFFF00007FFF80
FFFF00007FFF80
FFFF00007FFF80
FFFF00007FFF80
FFFF00007FFF80
FFFF00007FFF80
FFFF00007FFF80
FFFF00007FFF80
FFFF00007FFF80
FFFF00007FFF80
FFFF0000FFFF80
FFFF0000FFFF80
FFFF8001FFFF80
7FFF8003FFFF80
7FFFC007FFFF80
7FFFF01FFFFF80
7FFFFFFFFFFF80
7FFFFFFFFFFF80
3FFFFFFFFFFF80
3FFFFFFFFFFF80
1FFFFFFFFFFF80
1FFFFFFFBFFF80
0FFFFFFF3FFF80
07FFFFFE3FFF80
03FFFFFC3FFF80
01FFFFF83FFF80
00FFFFF03FFF80
003FFFC03FFF80
0007FC00000000
ENDCHAR
STARTCHAR 00FA
ENCODING 250
SWIDTH 581 0
DWIDTH 57 0
BBX 49 72 4 -1
BITMAP
0000001FFFE000
0000003FFFC000
0000003FFFC000
0000007FFF8000
000000FFFF0000
000000FFFE0000
000001FFFC0000
000001FFF80000
000003FFF00000
000007FFE00000
000007FFC00000
00000FFF800000
00000FFF000000
00001FFE000000
00000000000000
00000000000000
00000000000000
00000000000000
00000000000000
00000000000000
FFFF00007FFF80
FFFF00007FFF80
FFFF00007FFF80
FFFF00007FFF80
FFFF00007FFF80
FFFF00007FFF80
FFFF00007FFF80
FFFF00007FFF80
FFFF00007FFF80
FFFF00007FFF80
FFFF00007FFF80
FFFF00007FFF80
FFFF00007FFF80
FFFF00007FFF80
FFFF00007FFF80
FFFF00007FFF80
FFFF00007FFF80
FFFF00007FFF80
FFFF00007FFF80
FFFF00007FFF80
FFFF00007FFF80
FFFF00007FFF80
FFFF00007FFF80
FFFF00007FFF80
FFFF00007FFF80
FFFF00007FFF80
FFFF00007FFF80
FFFF00007FFF80
FFFF00007FFF80
FFFF00007FFF80
FFFF00007FFF80
FFFF00007FFF80
FFFF00007FFF80
FFFF0000FFFF80
FFFF0000FFFF80
FFFF8001FFFF80
7FFF8003FFFF80
7FFFC007FFFF80
7FFFF01FFFFF80
7FFFFFFFFFFF80
7FFFFFFFFFFF80
3FFFFFFFFFFF80
3FFFFFFFFFFF80
1FFFFFFFFFFF80
1FFFFFFFBFFF80
0FFFFFFF3FFF80
07FFFFFE3FFF80
03FFFFFC3FFF80
01FFFFF83FFF80
00FFFFF03FFF80
003FFFC03FFF80
0007FC00000000
ENDCHAR
STARTCHAR 00FB
ENCODING 251
SWIDTH 581 0
DWIDTH 57 0
BBX 49 72 4 -1
BITMAP
0001FFFF800000
0003FFFFC00000
0007FFFFE00000
0007FFFFE00000
000FFFFFF00000
001FFFFFF80000
003FFFFFFC0000
007FFFFFFE0000
007FFE7FFE0000
00FFFC3FFF0000
01FFF81FFF8000
03FFF00FFFC000
07FFE007FFE000
0FFFC003FFF000
00000000000000
00000000000000
00000000000000
00000000000000
00000000000000
00000000000000
FFFF00007FFF80
FFFF00007FFF80
FFFF00007FFF80
FFFF00007FFF80
FFFF00007FFF80
FFFF00007FFF80
FFFF00007FFF80
FFFF00007FFF80
FFFF00007FFF80
FFFF00007FFF80
FFFF00007FFF80
FFFF00007FFF80
FFFF00007FFF80
FFFF00007FFF80
FFFF00007FFF80
FFFF00007FFF80
FFFF00007FFF80
FFFF00007FFF80
FFFF00007FFF80
FFFF00007FFF80
FFFF00007FFF80
FFFF00007FFF80
FFFF00007FFF80
FFFF00007FFF80
FFFF00007FFF80
FFFF00007FFF80
FFFF00007FFF80
FFFF00007FFF80
FFFF00007FFF80
FFFF00007FFF80
FFFF00007FFF80
FFFF00007FFF80
FFFF00007FFF80
FFFF0000FFFF80
FFFF0000FFFF80
FFFF8001FFFF80
7FFF8003FFFF80
7FFFC007FFFF80
7FFFF01FFFFF80
7FFFFFFFFFFF80
7FFFFFFFFFFF80
3FFFFFFFFFFF80
3FFFFFFFFFFF80
1FFFFFFFFFFF80
1FFFFFFFBFFF80
0FFFFFFF3FFF80
07FFFFFE3FFF80
03FFFFFC3FFF80
01FFFFF83FFF80
00FFFFF03FFF80
003FFFC03FFF80
0007FC00000000
ENDCHAR
ENDFONT
